SplineFontDB: 2.0
FontName: Sawasdee-Oblique
FullName: Sawasdee Oblique
FamilyName: Sawasdee
Weight: Regular
Copyright: Created by Pol Udomwittayanukul,,, with FontForge 2.0 (http://fontforge.sf.net)
Version: 001.000
ItalicAngle: -12
UnderlinePosition: -75
UnderlineWidth: 50
Ascent: 750
Descent: 250
NeedsXUIDChange: 1
XUID: [1021 180 1442959360 14105407]
UniqueID: 4256560
FSType: 8
OS2Version: 0
OS2_WeightWidthSlopeOnly: 0
OS2_UseTypoMetrics: 1
CreationTime: 1178430034
ModificationTime: 1181123215
PfmFamily: 17
TTFWeight: 400
TTFWidth: 5
LineGap: 90
VLineGap: 0
OS2TypoAscent: 0
OS2TypoAOffset: 1
OS2TypoDescent: 0
OS2TypoDOffset: 1
OS2TypoLinegap: 90
OS2WinAscent: 0
OS2WinAOffset: 1
OS2WinDescent: 0
OS2WinDOffset: 1
HheadAscent: 2
HheadAOffset: 1
HheadDescent: 40
HheadDOffset: 1
OS2Vendor: 'PfEd'
Lookup: 4 0 1 "'liga' Standard Ligatures in Latin lookup 0"  {"'liga' Standard Ligatures in Latin lookup 0"  } ['liga' ('latn' <'dflt' > ) ]
Lookup: 4 0 0 "'frac' Diagonal Fractions in Latin lookup 42"  {"'frac' Diagonal Fractions in Latin lookup 42"  } ['frac' ('latn' <'dflt' > ) ]
Lookup: 6 0 0 "'ccmp' Glyph Composition/Decomposition in Thai lookup 0"  {"'ccmp' Glyph Composition/Decomposition in Thai lookup 0"  } ['ccmp' ('thai' <'KUY ' 'PAL ' 'THA ' 'dflt' > ) ]
Lookup: 6 0 0 "'ccmp' Glyph Composition/Decomposition in Thai lookup 1"  {"'ccmp' Glyph Composition/Decomposition in Thai lookup 1"  } ['ccmp' ('thai' <'KUY ' 'PAL ' 'THA ' 'dflt' > ) ]
Lookup: 5 0 0 "Required Feature in Thai lookup 2"  {"Required Feature in Thai lookup 2"  } [' RQD' ('thai' <'PAL ' > ) ]
Lookup: 1 0 0 "Single Substitution lookup 3"  {"Single Substitution lookup 3"  } []
Lookup: 1 0 0 "Single Substitution lookup 4"  {"Single Substitution lookup 4"  } []
Lookup: 2 0 0 "Multiple Substitution lookup 5"  {"Multiple Substitution lookup 5"  } []
Lookup: 1 0 0 "Single Substitution lookup 6"  {"Single Substitution lookup 6"  } []

StartChar: exclam
Encoding: 1 33 1
Width: 223
VWidth: 1333
Flags: HW
HStem: 640 27G<227 280>
VStem: 81 199<31 667>
Fore
151 120 m 1
 124 120 l 1
 227 667 l 1
 280 667 l 1
 151 120 l 1
81 31 m 0
 85 51 106 68 126 68 c 0
 146 68 160 51 156 31 c 0
 152 11 131 -7 111 -7 c 0
 91 -7 77 11 81 31 c 0
EndSplineSet
EndChar
StartChar: quotedbl
Encoding: 2 34 2
Width: 309
VWidth: 1333
Flags: HW
Fore
225 520 m 1
 199 520 l 1
 222 693 l 1
 275 693 l 1
 225 520 l 1
332 520 m 1
 305 520 l 1
 329 693 l 1
 382 693 l 1
 332 520 l 1
EndSplineSet
EndChar
StartChar: numbersign
Encoding: 3 35 3
Width: 477
VWidth: 1333
Flags: HW
HStem: 0 28G<47 88 233 273> 207 40<52 140 198 327 384 475> 420 40<143 236 295 421 482 567> 640 27G<347 388 534 575>
VStem: 44 531<207 460>
Fore
273 0 m 1
 233 0 l 1
 327 207 l 1
 181 207 l 1
 88 0 l 1
 47 0 l 1
 140 207 l 1
 44 207 l 1
 52 247 l 1
 158 247 l 1
 236 420 l 1
 135 420 l 1
 143 460 l 1
 254 460 l 1
 347 667 l 1
 388 667 l 1
 295 460 l 1
 440 460 l 1
 534 667 l 1
 575 667 l 1
 482 460 l 1
 575 460 l 1
 567 420 l 1
 463 420 l 1
 384 247 l 1
 483 247 l 1
 475 207 l 1
 367 207 l 1
 273 0 l 1
198 247 m 1
 343 247 l 1
 421 420 l 1
 276 420 l 1
 198 247 l 1
EndSplineSet
EndChar
StartChar: dollar
Encoding: 4 36 4
Width: 527
VWidth: 1333
Flags: HW
VStem: 94 41<55 194> 508 40<535 610>
Fore
272 -67 m 1
 231 -67 l 1
 243 -12 l 1
 156 -5 84 56 94 185 c 1
 135 191 l 1
 127 84 182 36 252 29 c 1
 322 360 l 1
 257 392 198 429 216 516 c 0
 233 595 302 663 388 671 c 1
 401 731 l 1
 441 731 l 1
 428 671 l 1
 488 663 539 621 548 548 c 1
 508 535 l 1
 500 592 464 623 421 631 c 1
 369 388 l 1
 449 351 539 311 514 191 c 0
 490 80 388 4 285 -7 c 1
 272 -67 l 1
358 341 m 1
 292 29 l 1
 371 40 453 99 472 188 c 0
 490 275 427 309 358 341 c 1
331 403 m 1
 379 627 l 1
 317 619 268 571 256 513 c 0
 244 457 282 428 331 403 c 1
EndSplineSet
EndChar
StartChar: percent
Encoding: 5 37 5
Width: 701
VWidth: 1333
Flags: HW
HStem: -8 41<457 589> 212 41<495 627> 411 41<216 347> 631 41<254 385>
VStem: 89 664<0 667>
Fore
570 253 m 0
 642 253 688 195 673 123 c 0
 657 51 586 -8 514 -8 c 0
 442 -8 396 51 411 123 c 0
 427 195 498 253 570 253 c 0
451 123 m 0
 441 73 472 33 523 33 c 0
 574 33 622 73 633 123 c 0
 643 172 612 212 561 212 c 0
 510 212 462 172 451 123 c 0
328 672 m 0
 400 672 446 613 431 541 c 0
 416 469 345 411 273 411 c 0
 201 411 154 469 170 541 c 0
 185 613 256 672 328 672 c 0
210 541 m 0
 199 492 231 452 281 452 c 0
 332 452 381 492 391 541 c 0
 402 591 370 631 319 631 c 0
 269 631 220 591 210 541 c 0
704 667 m 1
 754 667 l 1
 139 0 l 1
 89 0 l 1
 704 667 l 1
EndSplineSet
EndChar
StartChar: ampersand
Encoding: 6 38 6
Width: 605
VWidth: 1333
Flags: HW
HStem: -7 39<161 397> 636 40<385 522>
VStem: 106 504<216 240 239 240>
Fore
567 239 m 1
 609 239 l 1
 599 188 573 141 538 103 c 1
 589 0 l 1
 540 0 l 1
 504 71 l 1
 449 23 377 -7 305 -7 c 0
 167 -7 77 104 106 240 c 0
 127 343 210 431 309 468 c 1
 300 496 299 524 305 549 c 0
 321 625 390 676 468 676 c 0
 540 676 598 629 577 532 c 1
 537 532 l 1
 553 608 507 636 459 636 c 0
 402 636 356 601 345 549 c 0
 340 525 342 497 356 465 c 2
 520 137 l 1
 544 168 559 201 567 239 c 1
488 103 m 1
 322 432 l 1
 236 403 164 327 145 239 c 0
 121 125 196 32 313 32 c 0
 377 32 441 60 488 103 c 1
EndSplineSet
EndChar
StartChar: quoteright
Encoding: 300 8217 7
Width: 234
VWidth: 1333
Flags: HW
HStem: 647 27G<246 246>
VStem: 158 130<481 611>
Fore
246 673 m 1
 246 673 l 1
 271 673 298 654 288 611 c 0
 278 560 238 512 192 481 c 1
 158 481 l 1
 196 507 231 553 237 584 c 1
 234 583 230 583 227 583 c 0
 202 583 186 603 191 628 c 0
 196 653 221 673 246 673 c 1
EndSplineSet
EndChar
StartChar: parenleft
Encoding: 8 40 8
Width: 218
VWidth: 1333
Flags: HW
VStem: 119 218<305 703>
Fore
307 703 m 1
 337 703 l 1
 251 571 193 436 163 299 c 0
 134 162 134 22 165 -120 c 1
 134 -120 l 1
 95 23 90 165 119 305 c 0
 148 440 210 573 307 703 c 1
EndSplineSet
EndChar
StartChar: parenright
Encoding: 9 41 9
Width: 205
VWidth: 1333
Flags: HW
VStem: 2 226<-120 305>
Fore
180 703 m 1
 211 703 l 1
 252 573 258 440 229 305 c 0
 199 165 133 23 33 -120 c 1
 2 -120 l 1
 93 22 153 162 182 299 c 0
 212 436 211 571 180 703 c 1
EndSplineSet
EndChar
StartChar: asterisk
Encoding: 10 42 10
Width: 407
VWidth: 1333
Flags: HW
HStem: 547 243<350 380>
VStem: 219 259<681 681>
Fore
350 789 m 1
 393 789 l 1
 373 696 l 1
 477 720 l 1
 478 681 l 1
 377 659 l 1
 418 569 l 1
 380 547 l 1
 339 636 l 1
 260 547 l 1
 232 569 l 1
 311 659 l 1
 219 681 l 1
 237 720 l 1
 331 696 l 1
 350 789 l 1
EndSplineSet
EndChar
StartChar: plus
Encoding: 11 43 11
Width: 463
VWidth: 1333
Flags: HW
HStem: 313 40<130 279 327 476>
VStem: 121 363<313 353>
Fore
285 156 m 1
 245 156 l 1
 279 313 l 1
 121 313 l 1
 130 353 l 1
 287 353 l 1
 321 511 l 1
 361 511 l 1
 327 353 l 1
 484 353 l 1
 476 313 l 1
 319 313 l 1
 285 156 l 1
EndSplineSet
EndChar
StartChar: comma
Encoding: 12 44 12
Width: 234
VWidth: 1333
Flags: HW
VStem: 52 111<-108 13>
Fore
81 31 m 4
 85 51 106 68 126 68 c 4
 148 68 171 52 163 13 c 4
 147 -61 72 -108 72 -108 c 5
 52 -108 l 5
 83 -87 125 -33 132 0 c 5
 124 -5 119 -7 111 -7 c 4
 91 -7 77 11 81 31 c 4
EndSplineSet
EndChar
StartChar: hyphen
Encoding: 13 45 13
Width: 383
VWidth: 1333
Flags: HW
HStem: 247 40<116 382>
VStem: 107 283<247 287>
Fore
390 287 m 5
 382 247 l 5
 107 247 l 5
 116 287 l 5
 390 287 l 5
EndSplineSet
EndChar
StartChar: period
Encoding: 14 46 14
Width: 223
VWidth: 1333
Flags: HW
VStem: 81 75<6 55 31 31>
Fore
81 31 m 4
 85 51 106 68 126 68 c 4
 146 68 160 51 156 31 c 4
 152 11 131 -7 111 -7 c 4
 91 -7 77 11 81 31 c 4
EndSplineSet
EndChar
StartChar: slash
Encoding: 15 47 15
Width: 522
VWidth: 1333
Flags: HW
HStem: 0 28G<0 49> 640 27G<615 664>
VStem: 0 664<0 667>
Fore
615 667 m 1
 664 667 l 1
 49 0 l 1
 0 0 l 1
 615 667 l 1
EndSplineSet
EndChar
StartChar: zero
Encoding: 16 48 16
Width: 533
VWidth: 1333
Flags: HW
HStem: -7 40<154 393> 633 40<282 521>
VStem: 116 443<309 358 333 333>
Fore
559 333 m 0
 521 155 396 -7 265 -7 c 0
 135 -7 78 155 116 333 c 0
 154 512 279 673 410 673 c 0
 540 673 597 512 559 333 c 0
156 333 m 0
 119 159 182 33 274 33 c 0
 366 33 482 159 519 333 c 0
 556 508 493 633 401 633 c 0
 309 633 193 508 156 333 c 0
EndSplineSet
EndChar
StartChar: one
Encoding: 17 49 17
Width: 533
VWidth: 1333
Flags: HW
HStem: 0 28G<247 287>
VStem: 247 182<0 667>
Fore
247 0 m 1
 372 595 l 1
 291 552 l 1
 278 587 l 1
 428 667 l 1
 287 0 l 1
 247 0 l 1
EndSplineSet
EndChar
StartChar: two
Encoding: 18 50 18
Width: 533
VWidth: 1333
Flags: HW
HStem: 0 40<94 480> 461 28G<171 211> 633 40<293 510>
VStem: 45 513<0 461>
Fore
480 0 m 1
 45 0 l 1
 49 19 l 2
 98 247 481 281 519 461 c 0
 540 559 485 633 403 633 c 0
 319 633 232 559 211 461 c 1
 171 461 l 1
 196 577 302 673 410 673 c 0
 518 673 583 577 558 461 c 0
 515 259 156 221 94 40 c 1
 488 40 l 1
 480 0 l 1
EndSplineSet
EndChar
StartChar: three
Encoding: 19 51 19
Width: 533
VWidth: 1333
Flags: HW
HStem: -7 40<157 393> 364 40<345 439> 633 40<316 489>
VStem: 104 434<199 515>
Fore
104 199 m 1
 145 199 l 1
 126 108 184 33 275 33 c 0
 366 33 456 108 476 199 c 0
 495 289 436 364 345 364 c 1
 354 404 l 1
 419 404 483 448 497 515 c 0
 511 580 469 633 403 633 c 0
 336 633 271 580 257 515 c 1
 217 515 l 1
 236 603 323 673 411 673 c 0
 499 673 556 603 537 515 c 0
 525 457 485 411 434 385 c 1
 498 353 532 281 514 199 c 0
 490 85 379 -7 265 -7 c 0
 152 -7 79 85 104 199 c 1
EndSplineSet
EndChar
StartChar: four
Encoding: 20 52 20
Width: 533
VWidth: 1333
Flags: HW
HStem: 0 28G<377 417> 124 40<115 404 452 504>
VStem: 26 534<124 675>
Fore
412 164 m 1
 495 555 l 1
 115 164 l 1
 412 164 l 1
417 0 m 1
 377 0 l 1
 404 124 l 1
 26 124 l 1
 561 675 l 1
 452 164 l 1
 526 164 l 1
 504 124 l 1
 444 124 l 1
 417 0 l 1
EndSplineSet
EndChar
StartChar: five
Encoding: 21 53 21
Width: 533
VWidth: 1333
Flags: HW
HStem: -8 40<156 402> 437 37<286 488> 627 40<259 543>
VStem: 86 40<77 200>
Fore
543 627 m 1
 259 627 l 1
 193 404 l 1
 243 448 305 475 366 475 c 0
 492 475 567 365 539 233 c 0
 511 101 389 -8 264 -8 c 0
 150 -8 78 83 86 197 c 1
 126 197 l 1
 122 103 183 32 272 32 c 0
 372 32 475 121 499 235 c 0
 523 348 458 437 358 437 c 0
 290 437 220 395 175 333 c 1
 131 333 l 1
 230 667 l 1
 564 667 l 1
 543 627 l 1
EndSplineSet
EndChar
StartChar: six
Encoding: 22 54 22
Width: 533
VWidth: 1333
Flags: HW
HStem: 0 39<144 404> 444 39<315 490> 645 27G<420 468>
VStem: 93 448<217 266 241 241>
Fore
501 241 m 0
 525 355 460 444 360 444 c 0
 260 444 157 355 133 241 c 0
 109 128 174 39 274 39 c 0
 374 39 477 128 501 241 c 0
420 672 m 1
 468 672 l 1
 287 468 l 1
 313 477 341 483 368 483 c 0
 493 483 569 373 541 241 c 0
 513 109 391 0 265 0 c 0
 140 0 65 109 93 241 c 0
 121 373 227 453 420 672 c 1
EndSplineSet
EndChar
StartChar: seven
Encoding: 23 55 23
Width: 533
VWidth: 1333
Flags: HW
HStem: 0 28G<177 221> 627 40<215 592>
VStem: 177 484<0 667>
Fore
215 667 m 1
 662 667 l 1
 221 0 l 1
 177 0 l 1
 592 627 l 1
 193 627 l 1
 215 667 l 1
EndSplineSet
EndChar
StartChar: eight
Encoding: 24 56 24
Width: 533
VWidth: 1333
Flags: HW
HStem: -7 40<156 392> 364 40<268 437> 633 40<316 486>
VStem: 104 432<199 519>
Fore
410 673 m 0
 496 673 554 604 536 519 c 0
 524 463 483 413 432 387 c 1
 497 355 532 283 514 199 c 0
 490 85 379 -7 265 -7 c 0
 152 -7 79 85 104 199 c 0
 121 283 187 355 266 387 c 1
 227 413 206 463 218 519 c 0
 236 604 323 673 410 673 c 0
144 199 m 0
 124 108 183 33 274 33 c 0
 364 33 455 108 474 199 c 0
 493 289 435 364 344 364 c 0
 253 364 163 289 144 199 c 0
353 404 m 0
 418 404 482 456 496 519 c 0
 509 581 467 633 401 633 c 0
 336 633 272 581 258 519 c 0
 245 456 287 404 353 404 c 0
EndSplineSet
EndChar
StartChar: nine
Encoding: 25 57 25
Width: 533
VWidth: 1333
Flags: HW
HStem: 0 28G<205 253> 189 39<184 358> 633 39<270 530>
VStem: 133 448<406 455 431 431>
Fore
173 431 m 0
 149 317 214 228 314 228 c 0
 414 228 517 317 541 431 c 0
 565 544 500 633 400 633 c 0
 300 633 197 544 173 431 c 0
253 0 m 1
 205 0 l 1
 386 204 l 1
 360 195 332 189 306 189 c 0
 180 189 105 299 133 431 c 0
 161 563 283 672 408 672 c 0
 533 672 609 563 581 431 c 0
 553 299 446 219 253 0 c 1
EndSplineSet
EndChar
StartChar: colon
Encoding: 26 58 26
Width: 223
VWidth: 1333
Flags: HW
HStem: 435 27G<200 220>
VStem: 81 158<31 424>
Fore
81 31 m 0
 85 51 106 68 126 68 c 0
 146 68 160 51 156 31 c 0
 152 11 131 -7 111 -7 c 0
 91 -7 77 11 81 31 c 0
165 424 m 0
 169 444 190 461 210 461 c 0
 230 461 244 444 239 424 c 0
 235 404 214 387 194 387 c 0
 174 387 161 404 165 424 c 0
EndSplineSet
EndChar
StartChar: semicolon
Encoding: 27 59 27
Width: 223
VWidth: 1333
Flags: HW
HStem: 435 27G<200 220>
VStem: 52 188<-108 424>
Fore
81 31 m 0
 85 51 106 68 126 68 c 0
 148 68 171 52 163 13 c 0
 147 -61 72 -108 72 -108 c 1
 52 -108 l 1
 83 -87 125 -33 132 0 c 1
 124 -5 119 -7 111 -7 c 0
 91 -7 77 11 81 31 c 0
165 424 m 0
 169 444 190 461 210 461 c 0
 230 461 244 444 239 424 c 0
 235 404 214 387 194 387 c 0
 174 387 161 404 165 424 c 0
EndSplineSet
EndChar
StartChar: less
Encoding: 28 60 28
Width: 529
VWidth: 1333
Flags: HW
HStem: 0 28G<425 503> 427 27G<522 599>
VStem: 103 496<227 453>
Fore
503 0 m 1
 425 0 l 1
 103 227 l 1
 522 453 l 1
 599 453 l 1
 180 227 l 1
 503 0 l 1
EndSplineSet
EndChar
StartChar: equal
Encoding: 29 61 29
Width: 463
VWidth: 1333
Flags: HW
HStem: 193 40<104 450> 300 40<127 473>
VStem: 96 386<193 340>
Fore
482 340 m 1
 473 300 l 1
 118 300 l 1
 127 340 l 1
 482 340 l 1
459 233 m 1
 450 193 l 1
 96 193 l 1
 104 233 l 1
 459 233 l 1
EndSplineSet
EndChar
StartChar: greater
Encoding: 30 62 30
Width: 538
VWidth: 1333
Flags: HW
HStem: 0 28G<55 132> 427 27G<151 228>
VStem: 55 496<0 227>
Fore
132 0 m 1
 55 0 l 1
 474 227 l 1
 151 453 l 1
 228 453 l 1
 551 227 l 1
 132 0 l 1
EndSplineSet
EndChar
StartChar: question
Encoding: 31 63 31
Width: 463
VWidth: 1333
Flags: HW
HStem: 633 40<265 470>
VStem: 162 355<505 530 505 505>
Fore
188 31 m 0
 192 51 213 68 233 68 c 0
 253 68 267 51 263 31 c 0
 258 11 237 -7 217 -7 c 0
 197 -7 184 11 188 31 c 0
269 137 m 1
 229 137 l 1
 243 204 l 2
 277 360 457 415 477 505 c 0
 493 581 448 633 376 633 c 0
 291 633 215 567 202 505 c 1
 162 505 l 1
 181 593 280 673 384 673 c 0
 480 673 537 603 517 505 c 0
 492 389 313 341 283 204 c 2
 269 137 l 1
EndSplineSet
EndChar
StartChar: at
Encoding: 32 64 32
Width: 907
VWidth: 1333
Flags: HW
HStem: -221 39<161 497> -9 41<281 475 668 772> 419 40<427 667> 631 41<334 840>
Fore
743 453 m 1
 786 453 l 1
 685 231 l 2
 680 221 665 192 658 160 c 0
 641 79 680 32 720 32 c 0
 760 32 830 80 863 235 c 0
 910 456 782 631 589 631 c 0
 393 631 192 451 144 224 c 0
 95 -3 220 -183 416 -183 c 0
 478 -183 541 -164 600 -132 c 1
 614 -165 l 1
 549 -201 478 -221 408 -221 c 0
 185 -221 50 -20 103 225 c 0
 155 471 375 672 597 672 c 0
 816 672 954 475 903 235 c 0
 864 48 769 -9 711 -9 c 0
 650 -9 610 47 613 123 c 1
 545 47 450 -8 366 -8 c 0
 270 -8 222 64 243 163 c 0
 275 313 445 459 579 459 c 0
 647 459 691 423 703 367 c 1
 743 453 l 1
573 419 m 0
 461 419 312 291 286 164 c 0
 269 88 303 33 376 33 c 0
 486 33 636 157 664 288 c 0
 680 364 646 419 573 419 c 0
EndSplineSet
EndChar
StartChar: A
Encoding: 33 65 33
Width: 591
VWidth: 1333
Flags: HW
HStem: 0 28G<16 59 533 576> 207 40<215 484>
VStem: 16 560<0 0>
Fore
215 247 m 1
 484 247 l 1
 419 571 l 1
 215 247 l 1
492 207 m 1
 188 207 l 1
 59 0 l 1
 16 0 l 1
 439 675 l 1
 576 0 l 1
 533 0 l 1
 492 207 l 1
EndSplineSet
EndChar
StartChar: B
Encoding: 34 66 34
Width: 578
VWidth: 1333
Flags: HW
HStem: 0 40<123 318> 351 40<198 481> 627 40<248 532>
VStem: 75 508<0 507>
Fore
123 40 m 1
 318 40 l 2
 416 40 508 112 526 196 c 0
 544 280 483 351 384 351 c 2
 189 351 l 1
 123 40 l 1
541 507 m 2
 541 508 l 2
 555 571 509 627 435 627 c 2
 248 627 l 1
 198 391 l 1
 384 391 l 2
 459 391 528 444 541 507 c 2
216 667 m 1
 446 667 l 2
 539 667 601 595 582 507 c 0
 570 451 528 403 474 375 c 1
 544 345 583 277 566 196 c 0
 542 87 427 0 309 0 c 2
 75 0 l 1
 216 667 l 1
EndSplineSet
EndChar
StartChar: C
Encoding: 35 67 35
Width: 719
VWidth: 1333
Flags: HW
HStem: -5 39<185 529> 633 41<313 656>
VStem: 126 653<335 536>
Fore
666 155 m 1
 694 133 l 1
 614 49 504 -5 392 -5 c 0
 206 -5 86 147 126 335 c 0
 166 523 350 675 537 675 c 0
 649 675 736 620 779 536 c 1
 742 512 l 1
 703 585 627 633 528 633 c 0
 363 633 201 499 166 333 c 0
 130 168 235 33 400 33 c 0
 499 33 596 81 666 155 c 1
EndSplineSet
EndChar
StartChar: D
Encoding: 36 68 36
Width: 602
VWidth: 1333
Flags: HW
HStem: 0 40<123 218> 627 40<248 557>
VStem: 75 544<0 333>
Fore
123 40 m 1
 218 40 l 2
 383 40 544 168 579 333 c 0
 614 499 508 627 343 627 c 2
 248 627 l 1
 123 40 l 1
75 0 m 1
 216 667 l 1
 351 667 l 2
 538 667 659 521 619 333 c 0
 579 145 396 0 209 0 c 2
 75 0 l 1
EndSplineSet
EndChar
StartChar: E
Encoding: 37 69 37
Width: 489
VWidth: 1333
Flags: HW
HStem: 0 40<123 461> 367 40<201 513> 627 40<248 596>
VStem: 75 530<0 667>
Fore
521 407 m 1
 513 367 l 1
 193 367 l 1
 123 40 l 1
 470 40 l 1
 461 0 l 1
 75 0 l 1
 216 667 l 1
 604 667 l 1
 596 627 l 1
 248 627 l 1
 201 407 l 1
 521 407 l 1
EndSplineSet
EndChar
StartChar: F
Encoding: 38 70 38
Width: 489
VWidth: 1333
Flags: HW
HStem: 0 28G<75 115> 367 40<201 513> 627 40<248 596>
VStem: 75 530<0 667>
Fore
521 407 m 1
 513 367 l 1
 193 367 l 1
 115 0 l 1
 75 0 l 1
 216 667 l 1
 604 667 l 1
 596 627 l 1
 248 627 l 1
 201 407 l 1
 521 407 l 1
EndSplineSet
EndChar
StartChar: G
Encoding: 39 71 39
Width: 786
VWidth: 1333
Flags: HW
HStem: -7 40<185 607> 313 40<468 757> 633 40<313 656>
CounterMasks: 1 00
Fore
779 536 m 1
 742 512 l 1
 703 585 627 633 528 633 c 0
 363 633 201 499 166 333 c 0
 130 168 235 33 400 33 c 0
 559 33 715 157 757 313 c 1
 460 313 l 1
 468 353 l 1
 807 353 l 1
 803 333 l 2
 763 145 579 -7 392 -7 c 0
 205 -7 86 145 126 333 c 0
 165 521 350 673 536 673 c 0
 647 673 735 619 779 536 c 1
EndSplineSet
EndChar
StartChar: H
Encoding: 40 72 40
Width: 623
VWidth: 1333
Flags: HW
HStem: 0 28G<75 115 509 549> 367 40<201 587> 640 27G<216 256 651 691>
VStem: 75 616<0 667>
Fore
651 667 m 1
 691 667 l 1
 549 0 l 1
 509 0 l 1
 587 367 l 1
 193 367 l 1
 115 0 l 1
 75 0 l 1
 216 667 l 1
 256 667 l 1
 201 407 l 1
 596 407 l 1
 651 667 l 1
EndSplineSet
EndChar
StartChar: I
Encoding: 41 73 41
Width: 189
VWidth: 1333
Flags: HW
HStem: 0 28G<75 115> 640 27G<216 256>
VStem: 75 182<0 667>
Fore
115 0 m 1
 75 0 l 1
 216 667 l 1
 256 667 l 1
 115 0 l 1
EndSplineSet
EndChar
StartChar: J
Encoding: 42 74 42
Width: 457
VWidth: 1333
Flags: HW
HStem: -7 40<139 315> 640 27G<487 524>
VStem: 92 433<173 667>
Fore
487 667 m 1
 524 667 l 1
 420 173 l 2
 399 75 309 -7 217 -7 c 0
 125 -7 71 75 92 173 c 1
 132 173 l 1
 115 95 159 33 227 33 c 0
 295 33 365 95 382 173 c 2
 487 667 l 1
EndSplineSet
EndChar
StartChar: K
Encoding: 43 75 43
Width: 514
VWidth: 1333
Flags: HW
HStem: 0 28G<75 115 457 509> 640 27G<216 256 567 627>
VStem: 75 552<0 667>
Fore
216 667 m 1
 256 667 l 1
 196 384 l 1
 567 667 l 1
 627 667 l 1
 304 421 l 1
 509 0 l 1
 457 0 l 1
 271 395 l 1
 185 329 l 1
 115 0 l 1
 75 0 l 1
 216 667 l 1
EndSplineSet
EndChar
StartChar: L
Encoding: 44 76 44
Width: 489
VWidth: 1333
Flags: HW
HStem: 0 40<123 463> 640 27G<216 256>
VStem: 75 396<0 40>
Fore
463 0 m 1
 75 0 l 1
 216 667 l 1
 256 667 l 1
 123 40 l 1
 471 40 l 1
 463 0 l 1
EndSplineSet
EndChar
StartChar: M
Encoding: 45 77 45
Width: 774
VWidth: 1333
Flags: HW
HStem: 0 28G<16 55 717 759>
VStem: 717 41<0 139>
Fore
55 0 m 1
 16 0 l 1
 287 675 l 1
 407 96 l 1
 778 675 l 1
 759 0 l 1
 717 0 l 1
 733 536 l 1
 384 -8 l 1
 271 536 l 1
 55 0 l 1
EndSplineSet
EndChar
StartChar: N
Encoding: 46 78 46
Width: 750
VWidth: 1333
Flags: HW
HStem: 0 28G<75 115> 640 27G<778 818>
Fore
75 0 m 1
 218 676 l 1
 655 89 l 1
 778 667 l 1
 818 667 l 1
 674 -9 l 1
 237 577 l 1
 115 0 l 1
 75 0 l 1
EndSplineSet
EndChar
StartChar: O
Encoding: 47 79 47
Width: 786
VWidth: 1333
Flags: HW
HStem: -7 40<185 615> 633 40<313 743>
Fore
536 673 m 0
 723 673 843 521 803 333 c 0
 763 145 579 -7 392 -7 c 0
 205 -7 86 145 126 333 c 0
 165 521 350 673 536 673 c 0
166 333 m 0
 130 168 235 33 400 33 c 0
 566 33 728 168 763 333 c 0
 798 499 693 633 528 633 c 0
 363 633 201 499 166 333 c 0
EndSplineSet
EndChar
StartChar: P
Encoding: 48 80 48
Width: 538
VWidth: 1333
Flags: HW
HStem: 0 28G<75 115> 313 41<190 481> 628 40<248 539>
VStem: 75 514<0 491>
Fore
75 0 m 1
 217 668 l 1
 454 668 l 2
 550 668 609 588 588 491 c 0
 568 393 475 313 380 313 c 2
 181 313 l 1
 115 0 l 1
 75 0 l 1
190 355 m 1
 389 355 l 2
 459 355 531 415 547 491 c 0
 563 567 517 628 445 628 c 2
 248 628 l 1
 190 355 l 1
EndSplineSet
EndChar
StartChar: Q
Encoding: 49 81 49
Width: 786
VWidth: 1333
Flags: HW
HStem: -7 40<185 503> 633 40<313 743>
Fore
550 227 m 1
 601 227 l 1
 654 143 l 1
 708 195 748 261 763 333 c 0
 798 499 693 633 528 633 c 0
 363 633 201 499 166 333 c 0
 130 168 235 33 400 33 c 0
 479 33 556 64 620 113 c 1
 550 227 l 1
743 0 m 1
 689 0 l 1
 639 81 l 1
 567 27 480 -7 392 -7 c 0
 205 -7 86 145 126 333 c 0
 165 521 350 673 536 673 c 0
 723 673 843 521 803 333 c 0
 785 248 738 171 673 111 c 1
 743 0 l 1
EndSplineSet
EndChar
StartChar: R
Encoding: 50 82 50
Width: 538
VWidth: 1333
Flags: HW
HStem: 0 28G<75 115 475 520> 313 40<190 369> 627 40<248 539>
VStem: 75 513<0 489>
Fore
75 0 m 1
 216 667 l 1
 454 667 l 2
 550 667 609 587 588 489 c 0
 570 404 496 332 414 316 c 1
 520 0 l 1
 475 0 l 1
 369 313 l 1
 181 313 l 1
 115 0 l 1
 75 0 l 1
190 353 m 1
 388 353 l 2
 459 353 531 413 547 489 c 0
 563 565 517 627 445 627 c 2
 248 627 l 1
 190 353 l 1
EndSplineSet
EndChar
StartChar: S
Encoding: 51 83 51
Width: 526
VWidth: 1333
Flags: HW
HStem: -9 41<169 381> 633 41<307 467>
VStem: 95 41<47 196> 507 40<536 623>
Fore
547 549 m 1
 507 536 l 1
 499 603 451 633 397 633 c 0
 328 633 270 581 257 519 c 0
 224 364 559 409 513 191 c 0
 487 71 369 -9 259 -9 c 0
 166 -9 84 51 95 188 c 1
 136 193 l 1
 127 79 192 32 268 32 c 0
 355 32 452 93 473 192 c 0
 512 379 176 328 217 520 c 0
 235 603 313 675 406 675 c 0
 474 675 537 632 547 549 c 1
EndSplineSet
EndChar
StartChar: T
Encoding: 52 84 52
Width: 439
VWidth: 1333
Flags: HW
HStem: 0 28G<200 240> 627 40<168 333 373 547>
VStem: 160 395<627 667>
Fore
555 667 m 1
 547 627 l 1
 373 627 l 1
 240 0 l 1
 200 0 l 1
 333 627 l 1
 160 627 l 1
 168 667 l 1
 555 667 l 1
EndSplineSet
EndChar
StartChar: U
Encoding: 53 85 53
Width: 623
VWidth: 1333
Flags: HW
HStem: -7 40<182 459> 640 27G<216 256 651 691>
VStem: 129 563<253 667>
Fore
216 667 m 1
 256 667 l 1
 169 253 l 2
 142 129 214 33 320 33 c 0
 427 33 537 129 563 253 c 2
 651 667 l 1
 691 667 l 1
 603 253 l 2
 573 111 443 -7 311 -7 c 0
 179 -7 98 111 129 253 c 2
 216 667 l 1
EndSplineSet
EndChar
StartChar: V
Encoding: 54 86 54
Width: 575
VWidth: 1333
Flags: HW
HStem: 640 27G<158 200 658 702>
VStem: 158 544<667 667>
Fore
658 667 m 1
 702 667 l 1
 290 -8 l 1
 158 667 l 1
 200 667 l 1
 312 100 l 1
 658 667 l 1
EndSplineSet
EndChar
StartChar: W
Encoding: 55 87 55
Width: 878
VWidth: 1333
Flags: HW
HStem: 640 27G<152 192 967 1010>
Fore
152 667 m 1
 192 667 l 1
 271 115 l 1
 582 675 l 1
 655 115 l 1
 967 667 l 1
 1010 667 l 1
 629 -8 l 1
 557 549 l 1
 248 -8 l 1
 152 667 l 1
EndSplineSet
EndChar
StartChar: X
Encoding: 56 88 56
Width: 431
VWidth: 1333
Flags: HW
HStem: 0 28G<11 56 376 421> 640 27G<179 224 491 536>
VStem: 11 526<0 667>
Fore
179 667 m 1
 224 667 l 1
 302 404 l 1
 491 667 l 1
 536 667 l 1
 315 360 l 1
 421 0 l 1
 376 0 l 1
 283 315 l 1
 56 0 l 1
 11 0 l 1
 270 360 l 1
 179 667 l 1
EndSplineSet
EndChar
StartChar: Y
Encoding: 57 89 57
Width: 549
VWidth: 1333
Flags: HW
HStem: 0 28G<255 295> 640 27G<158 204 628 675>
VStem: 158 517<667 667>
Fore
158 667 m 1
 204 667 l 1
 345 331 l 1
 628 667 l 1
 675 667 l 1
 356 288 l 1
 295 0 l 1
 255 0 l 1
 316 288 l 1
 158 667 l 1
EndSplineSet
EndChar
StartChar: Z
Encoding: 58 90 58
Width: 530
VWidth: 1333
Flags: HW
HStem: 0 40<99 501> 627 40<202 564>
VStem: 16 631<0 667>
Fore
202 667 m 1
 647 667 l 1
 99 40 l 1
 523 40 l 1
 501 0 l 1
 16 0 l 1
 564 627 l 1
 180 627 l 1
 202 667 l 1
EndSplineSet
EndChar
StartChar: bracketleft
Encoding: 59 91 59
Width: 194
VWidth: 1333
Flags: HW
HStem: -140 40<93 165> 667 40<256 336>
VStem: 45 300<-140 707>
Fore
256 667 m 1
 93 -100 l 1
 173 -100 l 1
 165 -140 l 1
 45 -140 l 1
 225 707 l 1
 345 707 l 1
 336 667 l 1
 256 667 l 1
EndSplineSet
EndChar
StartChar: backslash
Encoding: 60 92 60
Width: 522
VWidth: 1333
Flags: HW
HStem: 0 28G<473 523> 640 27G<142 191>
VStem: 142 381<0 667>
Fore
142 667 m 1
 191 667 l 1
 523 0 l 1
 473 0 l 1
 142 667 l 1
EndSplineSet
EndChar
StartChar: bracketright
Encoding: 61 93 61
Width: 194
VWidth: 1333
Flags: HW
HStem: -140 40<-21 59> 667 40<150 222>
VStem: -30 300<-140 707>
Fore
222 667 m 1
 142 667 l 1
 150 707 l 1
 270 707 l 1
 90 -140 l 1
 -30 -140 l 1
 -21 -100 l 1
 59 -100 l 1
 222 667 l 1
EndSplineSet
EndChar
StartChar: asciicircum
Encoding: 62 94 62
Width: 535
VWidth: 1333
Flags: HW
HStem: 333 333<388 552>
VStem: 126 427<333 333>
Fore
388 667 m 1
 434 667 l 1
 552 333 l 1
 506 333 l 1
 402 625 l 1
 172 333 l 1
 126 333 l 1
 388 667 l 1
EndSplineSet
EndChar
StartChar: underscore
Encoding: 63 95 63
Width: 434
VWidth: 1333
Flags: HW
HStem: -40 40<0 426>
VStem: -9 443<-40 0>
Fore
435 0 m 1
 426 -40 l 1
 -9 -40 l 1
 0 0 l 1
 435 0 l 1
EndSplineSet
EndChar
StartChar: quoteleft
Encoding: 299 8216 64
Width: 234
VWidth: 1333
Flags: HW
HStem: 649 27G<268 302>
VStem: 172 130<547 676>
Fore
215 484 m 1
 215 484 l 1
 189 484 163 504 172 547 c 0
 183 598 222 645 268 676 c 1
 302 676 l 1
 264 650 230 605 223 574 c 1
 227 574 230 575 234 575 c 0
 259 575 275 554 270 529 c 0
 264 505 239 484 215 484 c 1
EndSplineSet
EndChar
StartChar: a
Encoding: 65 97 65
Width: 474
VWidth: 1333
Flags: HW
HStem: -8 40<101 278> 231 29<282 409> 421 40<257 399>
VStem: 70 385<117 260>
Fore
411 0 m 1
 368 0 l 1
 366 17 368 37 373 60 c 2
 380 95 l 1
 330 40 257 -8 186 -8 c 0
 85 -8 58 61 70 117 c 0
 100 258 290 260 403 260 c 0
 415 260 l 1
 434 363 379 421 311 421 c 0
 270 421 222 400 182 356 c 1
 155 377 l 1
 206 435 266 461 319 461 c 0
 409 461 480 389 455 260 c 2
 413 60 l 2
 407 33 407 13 411 0 c 1
195 32 m 0
 268 32 350 92 391 145 c 1
 409 231 l 1
 311 229 133 224 110 117 c 0
 102 80 123 32 195 32 c 0
EndSplineSet
EndChar
StartChar: b
Encoding: 66 98 66
Width: 543
VWidth: 1333
Flags: HW
HStem: -7 40<191 408> 420 40<290 490> 640 27G<216 256>
VStem: 64 474<0 227>
Fore
107 0 m 1
 64 0 l 1
 73 13 82 33 87 60 c 2
 216 667 l 1
 256 667 l 1
 186 337 l 1
 223 401 311 460 380 460 c 0
 496 460 564 353 538 227 c 0
 511 100 397 -7 281 -7 c 0
 212 -7 149 56 139 116 c 1
 127 60 l 2
 123 37 116 17 107 0 c 1
163 227 m 0
 140 119 199 33 290 33 c 0
 380 33 476 119 499 227 c 0
 522 335 463 420 372 420 c 0
 281 420 186 335 163 227 c 0
EndSplineSet
EndChar
StartChar: c
Encoding: 67 99 67
Width: 491
VWidth: 1333
Flags: HW
HStem: -5 41<151 345> 420 41<233 427>
VStem: 103 409<228 351>
Fore
429 125 m 1
 460 105 l 1
 410 40 335 -5 260 -5 c 0
 144 -5 76 101 103 228 c 0
 130 355 243 461 359 461 c 0
 434 461 490 416 512 351 c 1
 473 331 l 1
 454 385 409 420 351 420 c 0
 260 420 165 337 142 229 c 0
 119 121 178 36 269 36 c 0
 328 36 387 71 429 125 c 1
EndSplineSet
EndChar
StartChar: d
Encoding: 68 100 68
Width: 543
VWidth: 1333
Flags: HW
HStem: -7 40<151 350> 420 40<233 449> 640 27G<571 611>
VStem: 103 508<227 667>
Fore
480 0 m 1
 437 0 l 1
 436 17 437 37 442 60 c 2
 454 116 l 1
 419 56 329 -7 260 -7 c 0
 144 -7 76 100 103 227 c 0
 130 353 243 460 359 460 c 0
 428 460 492 401 501 337 c 1
 571 667 l 1
 611 667 l 1
 482 60 l 2
 476 33 476 13 480 0 c 1
478 227 m 0
 500 335 441 420 351 420 c 0
 260 420 164 335 142 227 c 0
 119 119 178 33 268 33 c 0
 359 33 455 119 478 227 c 0
EndSplineSet
EndChar
StartChar: e
Encoding: 69 101 69
Width: 526
VWidth: 1333
Flags: HW
HStem: -7 41<151 345> 227 39<155 484> 420 40<250 456>
VStem: 103 420<227 251 227 247>
Fore
155 265 m 1
 484 265 l 1
 487 355 432 420 352 420 c 0
 273 420 190 355 155 265 c 1
520 227 m 1
 142 227 l 1
 119 119 178 35 269 35 c 0
 327 35 400 69 442 124 c 1
 473 104 l 1
 423 39 335 -7 260 -7 c 0
 144 -7 76 100 103 227 c 0
 130 353 244 460 360 460 c 0
 471 460 539 364 523 247 c 2
 520 227 l 1
EndSplineSet
EndChar
StartChar: f
Encoding: 70 102 70
Width: 238
VWidth: 1333
Flags: HW
HStem: 0 28G<73 113> 413 40<131 161 210 313> 647 27<288 382>
VStem: 73 308<0 673>
Fore
73 0 m 1
 161 413 l 1
 123 413 l 1
 131 453 l 1
 170 453 l 1
 178 493 l 2
 199 592 290 673 382 673 c 1
 376 647 l 1
 308 647 235 572 218 493 c 2
 210 453 l 1
 335 453 l 1
 313 413 l 1
 201 413 l 1
 113 0 l 1
 73 0 l 1
EndSplineSet
EndChar
StartChar: g
Encoding: 71 103 71
Width: 543
VWidth: 1333
Flags: HW
HStem: -233 40<167 338> -7 40<148 350> 420 40<230 449>
VStem: 86 491<-175 453>
Fore
534 453 m 1
 576 453 l 1
 567 440 559 420 553 393 c 2
 469 0 l 2
 442 -127 326 -233 210 -233 c 0
 157 -233 114 -211 86 -175 c 1
 121 -147 l 1
 144 -176 179 -193 220 -193 c 0
 311 -193 406 -108 429 0 c 2
 454 116 l 1
 418 52 329 -7 260 -7 c 0
 144 -7 76 100 103 227 c 0
 130 353 243 460 359 460 c 0
 428 460 491 397 501 337 c 1
 513 393 l 2
 518 416 525 436 534 453 c 1
475 227 m 0
 498 335 439 420 348 420 c 0
 257 420 162 335 139 227 c 0
 116 119 175 33 266 33 c 0
 356 33 452 119 475 227 c 0
EndSplineSet
EndChar
StartChar: h
Encoding: 72 104 72
Width: 479
VWidth: 1333
Flags: HW
HStem: 0 28G<75 115 365 405> 420 40<293 458> 640 27G<216 256>
VStem: 75 390<0 280>
Fore
75 0 m 1
 216 667 l 1
 256 667 l 1
 184 324 l 1
 229 395 310 460 366 460 c 0
 460 460 485 376 465 280 c 2
 405 0 l 1
 365 0 l 1
 425 280 l 2
 437 339 435 420 356 420 c 0
 283 420 177 295 163 227 c 2
 115 0 l 1
 75 0 l 1
EndSplineSet
EndChar
StartChar: i
Encoding: 73 105 73
Width: 189
VWidth: 1333
Flags: HW
HStem: 0 28G<75 115> 427 27G<171 211> 524 72<195 232>
VStem: 75 175<0 560>
Fore
178 560 m 0
 182 580 201 596 221 596 c 0
 241 596 254 580 250 560 c 0
 245 540 226 524 206 524 c 0
 186 524 173 540 178 560 c 0
115 0 m 1
 75 0 l 1
 171 453 l 1
 211 453 l 1
 115 0 l 1
EndSplineSet
EndChar
StartChar: j
Encoding: 74 106 74
Width: 186
VWidth: 1333
Flags: HW
HStem: -139 33<-43 27> 427 27G<171 211> 524 72<194 231>
VStem: -43 291<-139 560>
Fore
171 453 m 1
 211 453 l 1
 115 1 l 2
 99 -75 29 -139 -43 -139 c 1
 -36 -105 l 1
 12 -105 63 -56 75 1 c 2
 171 453 l 1
176 560 m 0
 181 580 200 596 220 596 c 0
 240 596 253 580 248 560 c 0
 244 540 225 524 205 524 c 0
 185 524 172 540 176 560 c 0
EndSplineSet
EndChar
StartChar: k
Encoding: 75 107 75
Width: 425
VWidth: 1333
Flags: HW
HStem: 0 28G<75 115 373 425> 427 27G<412 472> 640 27G<216 256>
VStem: 75 398<0 453>
Fore
115 0 m 1
 75 0 l 1
 216 667 l 1
 256 667 l 1
 172 271 l 1
 412 453 l 1
 472 453 l 1
 245 280 l 1
 425 0 l 1
 373 0 l 1
 210 253 l 1
 161 217 l 1
 115 0 l 1
EndSplineSet
EndChar
StartChar: l
Encoding: 76 108 76
Width: 189
VWidth: 1333
Flags: HW
HStem: 0 28G<75 115> 640 27G<216 256>
VStem: 75 182<0 667>
Fore
115 0 m 1
 75 0 l 1
 216 667 l 1
 256 667 l 1
 115 0 l 1
EndSplineSet
EndChar
StartChar: m
Encoding: 77 109 77
Width: 713
VWidth: 1333
Flags: HW
HStem: 0 28G<75 115 336 376 599 639> 420 40<287 429 545 691>
VStem: 75 623<0 279>
Fore
160 453 m 1
 203 453 l 1
 205 436 203 416 198 393 c 2
 184 328 l 1
 227 396 302 460 351 460 c 0
 424 460 453 401 448 328 c 1
 491 397 560 459 611 459 c 0
 699 459 718 372 698 279 c 2
 639 0 l 1
 599 0 l 1
 658 279 l 2
 670 337 670 419 601 419 c 0
 538 419 439 296 424 225 c 2
 376 0 l 1
 336 0 l 1
 396 280 l 2
 408 339 408 420 339 420 c 0
 280 420 179 303 163 227 c 2
 115 0 l 1
 75 0 l 1
 158 393 l 2
 164 420 164 440 160 453 c 1
EndSplineSet
EndChar
StartChar: n
Encoding: 78 110 78
Width: 479
VWidth: 1333
Flags: HW
HStem: 0 28G<75 115 365 405> 420 40<293 458>
VStem: 75 390<0 280>
Fore
160 453 m 1
 203 453 l 1
 205 436 203 416 198 393 c 2
 184 325 l 1
 231 397 310 460 366 460 c 0
 460 460 485 376 465 280 c 2
 405 0 l 1
 365 0 l 1
 425 280 l 2
 437 339 435 420 356 420 c 0
 283 420 177 295 163 227 c 2
 115 0 l 1
 75 0 l 1
 158 393 l 2
 164 420 164 440 160 453 c 1
EndSplineSet
EndChar
StartChar: o
Encoding: 79 111 79
Width: 573
VWidth: 1333
Flags: HW
HStem: -7 40<156 434> 420 40<239 516>
VStem: 103 464<202 251 227 227>
Fore
384 460 m 0
 512 460 594 356 567 227 c 0
 539 97 413 -7 285 -7 c 0
 157 -7 75 97 103 227 c 0
 130 356 256 460 384 460 c 0
143 227 m 0
 120 120 188 33 295 33 c 0
 402 33 507 120 530 227 c 0
 552 333 484 420 377 420 c 0
 271 420 166 333 143 227 c 0
EndSplineSet
EndChar
StartChar: p
Encoding: 80 112 80
Width: 543
VWidth: 1333
Flags: HW
HStem: -200 28G<32 72> -7 40<191 408> 420 40<290 490>
VStem: 32 505<-200 227>
Fore
160 453 m 1
 203 453 l 1
 205 436 203 416 198 393 c 2
 186 337 l 1
 222 397 311 460 380 460 c 0
 496 460 564 353 538 227 c 0
 511 100 397 -7 281 -7 c 0
 212 -7 148 52 139 116 c 1
 72 -200 l 1
 32 -200 l 1
 158 393 l 2
 164 420 164 440 160 453 c 1
163 227 m 0
 140 119 199 33 290 33 c 0
 380 33 476 119 499 227 c 0
 522 335 463 420 372 420 c 0
 281 420 186 335 163 227 c 0
EndSplineSet
EndChar
StartChar: q
Encoding: 81 113 81
Width: 543
VWidth: 1333
Flags: HW
HStem: -200 28G<387 427> -7 40<151 350> 420 40<233 449>
VStem: 103 474<227 453>
Fore
534 453 m 1
 576 453 l 1
 567 440 559 420 553 393 c 2
 427 -200 l 1
 387 -200 l 1
 454 116 l 1
 418 52 329 -7 260 -7 c 0
 144 -7 76 100 103 227 c 0
 130 353 243 460 359 460 c 0
 428 460 491 397 501 337 c 1
 513 393 l 2
 518 416 525 436 534 453 c 1
478 227 m 0
 500 335 441 420 351 420 c 0
 260 420 164 335 142 227 c 0
 119 119 178 33 268 33 c 0
 359 33 455 119 478 227 c 0
EndSplineSet
EndChar
StartChar: r
Encoding: 82 114 82
Width: 290
VWidth: 1333
Flags: HW
HStem: 0 28G<75 115> 427 27G<160 203>
VStem: 75 299<0 428>
Fore
160 453 m 1
 203 453 l 1
 205 436 203 416 198 393 c 2
 186 337 l 1
 211 384 283 441 336 460 c 1
 374 428 l 1
 294 428 186 333 164 233 c 2
 115 0 l 1
 75 0 l 1
 158 393 l 2
 164 420 164 440 160 453 c 1
EndSplineSet
EndChar
StartChar: s
Encoding: 83 115 83
Width: 399
VWidth: 1333
Flags: HW
HStem: -8 40<144 275> 422 39<242 331>
VStem: 82 41<44 138> 357 40<360 416>
Fore
397 373 m 1
 357 360 l 1
 351 402 321 422 289 422 c 0
 253 422 214 397 204 352 c 0
 184 256 405 283 373 132 c 0
 355 45 270 -8 196 -8 c 0
 131 -8 74 34 82 129 c 1
 123 135 l 1
 117 63 158 32 205 32 c 0
 259 32 320 71 333 132 c 0
 359 251 134 219 163 352 c 0
 178 422 241 461 298 461 c 0
 345 461 389 433 397 373 c 1
EndSplineSet
EndChar
StartChar: t
Encoding: 84 116 84
Width: 247
VWidth: 1333
Flags: HW
HStem: 0 28G<75 115> 413 40<131 163 211 315>
VStem: 75 262<0 453>
Fore
115 0 m 1
 75 0 l 1
 163 413 l 1
 123 413 l 1
 131 453 l 1
 171 453 l 1
 194 560 l 1
 234 560 l 1
 211 453 l 1
 336 453 l 1
 315 413 l 1
 203 413 l 1
 115 0 l 1
EndSplineSet
EndChar
StartChar: u
Encoding: 85 117 85
Width: 477
VWidth: 1333
Flags: HW
HStem: -7 40<156 333> 427 27G<171 211 459 499>
VStem: 112 388<173 453>
Fore
171 453 m 1
 211 453 l 1
 152 173 l 2
 135 95 176 33 244 33 c 0
 312 33 383 95 400 173 c 2
 459 453 l 1
 499 453 l 1
 440 173 l 2
 419 75 329 -7 237 -7 c 0
 145 -7 91 75 112 173 c 2
 171 453 l 1
EndSplineSet
EndChar
StartChar: v
Encoding: 86 118 86
Width: 423
VWidth: 1333
Flags: HW
HStem: -13 467<112 210>
VStem: 112 392<453 453>
Fore
112 453 m 1
 155 453 l 1
 231 91 l 1
 460 453 l 1
 504 453 l 1
 210 -13 l 1
 112 453 l 1
EndSplineSet
EndChar
StartChar: w
Encoding: 87 119 87
Width: 715
VWidth: 1333
Flags: HW
HStem: -13 480<459 509>
Fore
112 453 m 1
 156 453 l 1
 228 93 l 1
 459 467 l 1
 532 93 l 1
 754 453 l 1
 796 453 l 1
 509 -13 l 1
 435 360 l 1
 204 -13 l 1
 112 453 l 1
EndSplineSet
EndChar
StartChar: x
Encoding: 88 120 88
Width: 405
VWidth: 1333
Flags: HW
HStem: 0 28G<16 63 343 389> 427 27G<131 175 420 467>
VStem: 16 451<0 453>
Fore
131 453 m 1
 175 453 l 1
 260 275 l 1
 420 453 l 1
 467 453 l 1
 276 240 l 1
 389 0 l 1
 343 0 l 1
 246 205 l 1
 63 0 l 1
 16 0 l 1
 231 240 l 1
 131 453 l 1
EndSplineSet
EndChar
StartChar: y
Encoding: 89 121 89
Width: 423
VWidth: 1333
Flags: HW
HStem: 427 27G<112 154 462 504>
VStem: 56 449<-233 453>
Fore
112 453 m 1
 154 453 l 1
 225 53 l 1
 462 453 l 1
 504 453 l 1
 98 -233 l 1
 56 -233 l 1
 193 -1 l 1
 112 453 l 1
EndSplineSet
EndChar
StartChar: z
Encoding: 90 122 90
Width: 397
VWidth: 1333
Flags: HW
HStem: 0 40<101 367> 413 40<167 395>
VStem: 16 462<0 453>
Fore
167 453 m 1
 478 453 l 1
 100 40 l 1
 388 40 l 1
 367 0 l 1
 16 0 l 1
 395 413 l 1
 145 413 l 1
 167 453 l 1
EndSplineSet
EndChar
StartChar: braceleft
Encoding: 91 123 91
Width: 255
VWidth: 1333
Flags: HW
HStem: -139 27<145 206> 673 27<319 378>
VStem: 112 266<264 700>
Fore
271 547 m 2
 243 415 l 2
 228 344 203 311 162 281 c 1
 187 257 203 225 186 148 c 2
 158 15 l 2
 141 -65 159 -112 206 -112 c 1
 200 -139 l 1
 155 -139 90 -116 118 15 c 2
 146 148 l 2
 161 216 146 237 112 264 c 1
 119 297 l 1
 165 324 188 345 203 413 c 2
 231 547 l 2
 259 677 333 700 378 700 c 1
 372 673 l 1
 326 673 288 627 271 547 c 2
EndSplineSet
EndChar
StartChar: bar
Encoding: 92 124 92
Width: 189
VWidth: 1333
Flags: HW
VStem: 60 210<-67 733>
Fore
100 -67 m 1
 60 -67 l 1
 231 733 l 1
 271 733 l 1
 100 -67 l 1
EndSplineSet
EndChar
StartChar: braceright
Encoding: 93 125 93
Width: 257
VWidth: 1333
Flags: HW
HStem: -140 27<-3 56> 673 25<170 230>
VStem: -3 267<-140 296>
Fore
170 673 m 1
 175 699 l 1
 221 699 286 676 259 545 c 2
 230 412 l 2
 216 344 230 323 264 296 c 1
 257 263 l 1
 211 236 188 215 174 147 c 2
 145 13 l 2
 118 -117 42 -140 -3 -140 c 1
 3 -113 l 1
 49 -113 88 -67 105 13 c 2
 134 147 l 2
 150 224 180 256 214 280 c 1
 186 309 174 343 189 413 c 2
 218 547 l 2
 235 627 216 673 170 673 c 1
EndSplineSet
EndChar
StartChar: asciitilde
Encoding: 94 126 94
Width: 473
VWidth: 1333
Flags: HW
HStem: 169 41<305 415> 229 41<154 267>
VStem: 92 384<173 267>
Fore
449 267 m 1
 475 267 l 1
 460 196 419 169 375 169 c 0
 307 169 249 229 187 229 c 0
 165 229 128 221 118 173 c 1
 92 173 l 1
 107 247 154 271 196 271 c 0
 272 271 323 211 383 211 c 0
 403 211 438 217 449 267 c 1
EndSplineSet
EndChar
StartChar: exclamdown
Encoding: 96 161 95
Width: 255
VWidth: 1333
Flags: HW
HStem: 433 27G<216 236>
VStem: 56 199<-213 423>
Fore
186 333 m 1
 212 333 l 1
 109 -213 l 1
 56 -213 l 1
 186 333 l 1
181 423 m 0
 185 443 206 460 226 460 c 0
 246 460 259 443 255 423 c 0
 251 403 230 385 210 385 c 0
 190 385 176 403 181 423 c 0
EndSplineSet
EndChar
StartChar: cent
Encoding: 97 162 96
Width: 494
VWidth: 1333
Flags: HW
VStem: 103 412<227 351>
Fore
362 560 m 1
 402 560 l 1
 380 460 l 1
 446 453 494 411 515 351 c 1
 476 331 l 1
 459 379 422 412 373 419 c 1
 291 35 l 1
 343 41 395 75 431 123 c 1
 462 103 l 1
 416 44 350 1 282 -5 c 1
 260 -107 l 1
 220 -107 l 1
 242 -5 l 1
 137 5 77 107 103 227 c 0
 128 347 231 448 340 459 c 1
 362 560 l 1
250 36 m 1
 332 420 l 1
 248 409 165 329 143 228 c 0
 122 127 171 47 250 36 c 1
EndSplineSet
EndChar
StartChar: sterling
Encoding: 98 163 97
Width: 462
VWidth: 1333
Flags: HW
HStem: 0 40<112 417> 313 40<125 223 267 389> 636 39<345 486>
VStem: 223 39<358 591> 512 28<532 624>
Fore
389 313 m 1
 263 313 l 1
 261 300 258 287 255 273 c 0
 237 187 200 105 112 40 c 1
 439 40 l 1
 417 0 l 1
 43 0 l 1
 40 37 l 1
 155 96 197 179 216 271 c 0
 219 284 222 297 223 311 c 1
 103 311 l 1
 125 351 l 1
 228 351 l 1
 235 416 236 479 249 536 c 0
 267 623 351 675 425 675 c 0
 490 675 546 632 540 537 c 1
 512 532 l 1
 517 603 470 636 417 636 c 0
 362 636 301 600 288 537 c 0
 276 485 275 420 267 353 c 1
 411 353 l 1
 389 313 l 1
EndSplineSet
EndChar
StartChar: fraction
Encoding: 312 8260 98
Width: 526
VWidth: 1333
Flags: HW
HStem: 0 28G<1 51> 640 27G<616 666>
VStem: 1 664<0 667>
Fore
616 667 m 1
 666 667 l 1
 51 0 l 1
 1 0 l 1
 616 667 l 1
EndSplineSet
EndChar
StartChar: yen
Encoding: 100 165 99
Width: 549
VWidth: 1333
Flags: HW
HStem: 0 28G<255 295> 179 43<140 293 342 490> 288 43<165 298 392 517> 640 27G<158 204 628 675>
VStem: 131 544<179 667>
Fore
499 221 m 1
 490 179 l 1
 333 179 l 1
 295 0 l 1
 255 0 l 1
 293 179 l 1
 131 179 l 1
 140 221 l 1
 302 221 l 1
 316 288 l 1
 156 288 l 1
 165 331 l 1
 298 331 l 1
 158 667 l 1
 204 667 l 1
 345 331 l 1
 628 667 l 1
 675 667 l 1
 392 331 l 1
 526 331 l 1
 517 288 l 1
 356 288 l 1
 342 221 l 1
 499 221 l 1
EndSplineSet
EndChar
StartChar: florin
Encoding: 200 402 100
Width: 362
VWidth: 1333
Flags: HW
HStem: -73 27<-49 50> 351 40<182 244 302 456> 647 27<437 536>
VStem: -49 585<-73 673>
Fore
479 391 m 1
 456 351 l 1
 285 351 l 1
 167 63 l 2
 129 -35 40 -73 -49 -73 c 1
 -43 -47 l 1
 29 -47 99 -5 128 71 c 2
 244 351 l 1
 160 351 l 1
 182 391 l 1
 260 391 l 1
 321 537 l 2
 360 635 447 673 536 673 c 1
 531 647 l 1
 459 647 389 605 359 529 c 2
 302 391 l 1
 479 391 l 1
EndSplineSet
EndChar
StartChar: section
Encoding: 102 167 101
Width: 401
VWidth: 1333
Flags: HW
HStem: -60 40<132 265> 633 40<266 400>
VStem: 71 40<-14 80> 420 41<537 626>
Fore
71 77 m 1
 111 77 l 1
 105 5 146 -20 194 -20 c 0
 249 -20 309 17 322 79 c 0
 349 205 90 165 124 328 c 0
 136 381 169 415 199 435 c 1
 173 456 158 487 168 535 c 0
 186 619 268 673 344 673 c 0
 410 673 468 633 461 537 c 1
 420 537 l 1
 425 605 385 633 337 633 c 0
 283 633 223 596 210 535 c 0
 183 408 442 449 408 287 c 0
 398 241 369 204 333 180 c 1
 359 159 374 128 364 80 c 0
 346 -4 263 -60 187 -60 c 0
 122 -60 64 -19 71 77 c 1
368 287 m 0
 383 360 296 379 232 412 c 1
 208 400 174 375 165 329 c 0
 149 253 234 237 299 203 c 1
 323 215 358 240 368 287 c 0
EndSplineSet
EndChar
StartChar: currency
Encoding: 99 164 102
Width: 582
VWidth: 1333
Flags: HW
HStem: 148 41<264 384> 493 40<345 465>
VStem: 94 535<141 532>
Fore
629 532 m 1
 543 460 l 1
 561 427 567 385 558 341 c 0
 548 296 523 253 489 220 c 1
 549 143 l 1
 515 115 l 1
 455 191 l 1
 416 164 370 148 325 148 c 0
 278 148 239 164 211 191 c 1
 116 113 l 1
 94 141 l 1
 189 219 l 1
 170 252 163 295 172 340 c 0
 182 387 207 429 241 463 c 1
 186 532 l 1
 220 560 l 1
 275 491 l 1
 314 517 359 533 404 533 c 0
 451 533 490 516 517 488 c 1
 607 560 l 1
 629 532 l 1
213 341 m 0
 195 257 248 189 332 189 c 0
 416 189 499 257 517 341 c 0
 534 425 481 493 397 493 c 0
 313 493 230 425 213 341 c 0
EndSplineSet
EndChar
StartChar: quotesingle
Encoding: 7 39 103
Width: 202
VWidth: 1333
Flags: HW
Fore
225 520 m 1
 199 520 l 1
 222 693 l 1
 275 693 l 1
 225 520 l 1
EndSplineSet
EndChar
StartChar: quotedblleft
Encoding: 302 8220 104
Width: 330
VWidth: 1333
Flags: HW
HStem: 484 91<220 247 340 367> 649 27G<268 302 388 422>
VStem: 172 250<547 676>
Fore
215 484 m 1
 215 484 l 1
 189 484 163 504 172 547 c 0
 183 598 222 645 268 676 c 1
 302 676 l 1
 264 650 230 605 223 574 c 1
 227 574 230 575 234 575 c 0
 259 575 275 554 270 529 c 0
 264 505 239 484 215 484 c 1
335 484 m 1
 309 484 283 504 292 547 c 0
 303 598 342 645 388 676 c 1
 422 676 l 1
 384 650 350 605 343 574 c 1
 347 574 350 575 354 575 c 0
 379 575 395 554 390 529 c 0
 384 505 359 484 335 484 c 1
EndSplineSet
EndChar
StartChar: guillemotleft
Encoding: 106 171 105
Width: 391
VWidth: 1333
Flags: HW
HStem: 67 320<379 398>
VStem: 103 345<227 387>
Fore
398 387 m 1
 448 387 l 1
 299 227 l 1
 379 67 l 1
 330 67 l 1
 250 227 l 1
 398 387 l 1
252 387 m 1
 301 387 l 1
 152 227 l 1
 233 67 l 1
 183 67 l 1
 103 227 l 1
 252 387 l 1
EndSplineSet
EndChar
StartChar: guilsinglleft
Encoding: 310 8249 106
Width: 211
VWidth: 1333
Flags: HW
HStem: 67 320<194 213>
VStem: 64 198<227 387>
Fore
213 387 m 1
 262 387 l 1
 114 227 l 1
 194 67 l 1
 145 67 l 1
 64 227 l 1
 213 387 l 1
EndSplineSet
EndChar
StartChar: guilsinglright
Encoding: 311 8250 107
Width: 211
VWidth: 1333
Flags: HW
HStem: 67 320<96 114>
VStem: 46 198<67 227>
Fore
114 387 m 1
 164 387 l 1
 244 227 l 1
 96 67 l 1
 46 67 l 1
 195 227 l 1
 114 387 l 1
EndSplineSet
EndChar
StartChar: endash
Encoding: 297 8211 108
Width: 237
VWidth: 1333
Flags: HW
HStem: 199 56<54 280>
VStem: 42 249<199 255>
Fore
291 255 m 1
 280 199 l 1
 42 199 l 1
 54 255 l 1
 291 255 l 1
EndSplineSet
EndChar
StartChar: dagger
Encoding: 305 8224 109
Width: 522
VWidth: 1333
Flags: HW
HStem: 420 40<162 265 445 548> 427 27<235 339 371 475> 640 27G<383 423>
VStem: 153 403<420 460>
Fore
254 -128 m 1x70
 214 -128 l 1
 339 427 l 1x70
 153 420 l 1
 162 460 l 1xb0
 344 453 l 1
 383 667 l 1
 423 667 l 1
 371 453 l 1x70
 556 460 l 1
 548 420 l 1xb0
 365 427 l 1
 254 -128 l 1x70
EndSplineSet
EndChar
StartChar: daggerdbl
Encoding: 306 8225 110
Width: 522
VWidth: 1333
Flags: HW
HStem: 117 40<97 200 381 484> 124 27<170 274 307 411> 383 40<154 257 437 540> 389 27<227 331 363 467> 640 27G<383 423>
VStem: 89 460<117 423>
Fore
254 -128 m 1x4c
 214 -128 l 1
 274 124 l 1x4c
 89 117 l 1
 97 157 l 1x8c
 280 151 l 1
 331 389 l 1x5c
 145 383 l 1
 154 423 l 1x2c
 336 416 l 1
 383 667 l 1
 423 667 l 1
 363 416 l 1x1c
 548 423 l 1
 540 383 l 1x2c
 357 389 l 1
 307 151 l 1x5c
 492 157 l 1
 484 117 l 1x8c
 301 124 l 1
 254 -128 l 1x4c
EndSplineSet
EndChar
StartChar: periodcentered
Encoding: 118 183 111
Width: 223
VWidth: 1333
Flags: HW
VStem: 146 75<309 358 333 333>
Fore
146 333 m 0
 150 353 171 371 191 371 c 0
 211 371 224 353 220 333 c 0
 216 313 195 296 175 296 c 0
 155 296 141 313 146 333 c 0
EndSplineSet
EndChar
StartChar: paragraph
Encoding: 117 182 112
Width: 563
VWidth: 1333
Flags: HW
HStem: 627 40<516 583>
VStem: 147 484<433 667>
Fore
359 -111 m 1
 319 -111 l 1
 385 200 l 1
 376 200 l 2
 192 200 122 316 147 433 c 0
 172 551 291 667 475 667 c 2
 631 667 l 1
 466 -111 l 1
 426 -111 l 1
 583 627 l 1
 516 627 l 1
 359 -111 l 1
EndSplineSet
EndChar
StartChar: bullet
Encoding: 307 8226 113
Width: 442
VWidth: 1333
Flags: HW
VStem: 121 315<242 291 267 267>
Fore
121 267 m 0
 139 355 225 427 312 427 c 0
 399 427 454 355 435 267 c 0
 417 179 331 107 244 107 c 0
 157 107 102 179 121 267 c 0
EndSplineSet
EndChar
StartChar: quotesinglbase
Encoding: 301 8218 114
Width: 234
VWidth: 1333
Flags: HW
VStem: 58 130<-116 13>
Fore
145 76 m 1
 145 76 l 1
 171 76 197 56 188 13 c 0
 177 -38 138 -85 92 -116 c 1
 58 -116 l 1
 96 -90 130 -45 137 -14 c 1
 133 -14 130 -15 126 -15 c 0
 102 -15 85 6 91 31 c 0
 96 55 121 76 145 76 c 1
EndSplineSet
EndChar
StartChar: quotedblbase
Encoding: 304 8222 115
Width: 330
VWidth: 1333
Flags: HW
HStem: -7 91<88 114 208 234>
VStem: 33 250<-108 21>
Fore
241 84 m 1
 241 84 l 1
 266 84 292 64 283 21 c 0
 272 -30 233 -77 187 -108 c 1
 153 -108 l 1
 191 -82 225 -37 232 -6 c 1
 229 -6 225 -7 221 -7 c 0
 197 -7 180 14 186 39 c 0
 191 63 216 84 241 84 c 1
121 84 m 1
 121 84 l 1
 146 84 172 64 163 21 c 0
 152 -30 113 -77 67 -108 c 1
 33 -108 l 1
 71 -82 105 -37 112 -6 c 1
 109 -6 105 -7 101 -7 c 0
 77 -7 60 14 66 39 c 0
 71 63 96 84 121 84 c 1
EndSplineSet
EndChar
StartChar: quotedblright
Encoding: 303 8221 116
Width: 330
VWidth: 1333
Flags: HW
HStem: 583 91<214 240 334 360>
VStem: 158 250<481 611>
Fore
366 673 m 1
 391 673 418 654 408 611 c 0
 398 560 358 512 312 481 c 1
 278 481 l 1
 316 507 351 553 357 584 c 1
 354 583 350 583 347 583 c 0
 322 583 306 603 311 628 c 0
 316 653 341 673 366 673 c 1
246 673 m 1
 246 673 l 1
 271 673 298 654 288 611 c 0
 278 560 238 512 192 481 c 1
 158 481 l 1
 196 507 231 553 237 584 c 1
 234 583 230 583 227 583 c 0
 202 583 186 603 191 628 c 0
 196 653 221 673 246 673 c 1
EndSplineSet
EndChar
StartChar: guillemotright
Encoding: 122 187 117
Width: 391
VWidth: 1333
Flags: HW
HStem: 67 320<118 137>
VStem: 69 345<67 227>
Fore
137 387 m 1
 186 387 l 1
 267 227 l 1
 118 67 l 1
 69 67 l 1
 218 227 l 1
 137 387 l 1
284 387 m 1
 333 387 l 1
 414 227 l 1
 265 67 l 1
 215 67 l 1
 364 227 l 1
 284 387 l 1
EndSplineSet
EndChar
StartChar: ellipsis
Encoding: 308 8230 118
Width: 789
VWidth: 1333
Flags: HW
HStem: -7 75<116 153 384 421 650 686>
VStem: 97 608<6 55 31 31>
Fore
97 31 m 0
 101 51 122 68 142 68 c 0
 162 68 176 51 172 31 c 0
 168 11 147 -7 127 -7 c 0
 107 -7 93 11 97 31 c 0
631 31 m 0
 635 51 656 68 676 68 c 0
 696 68 709 51 705 31 c 0
 701 11 680 -7 660 -7 c 0
 640 -7 626 11 631 31 c 0
365 31 m 0
 369 51 390 68 410 68 c 0
 430 68 444 51 440 31 c 0
 436 11 415 -7 395 -7 c 0
 375 -7 361 11 365 31 c 0
EndSplineSet
EndChar
StartChar: perthousand
Encoding: 309 8240 119
Width: 989
VWidth: 1333
Flags: HW
HStem: -8 41<435 566 768 899> 212 41<473 604 806 937> 409 41<193 324> 629 41<231 362>
Fore
547 253 m 0
 619 253 665 195 650 123 c 0
 635 51 564 -8 492 -8 c 0
 420 -8 373 51 389 123 c 0
 404 195 475 253 547 253 c 0
429 123 m 0
 418 73 450 33 500 33 c 0
 551 33 600 73 610 123 c 0
 621 172 589 212 538 212 c 0
 488 212 439 172 429 123 c 0
880 252 m 0
 952 252 998 193 983 121 c 0
 968 49 897 -9 825 -9 c 0
 753 -9 706 49 722 121 c 0
 737 193 808 252 880 252 c 0
762 121 m 0
 751 72 783 32 833 32 c 0
 884 32 933 72 943 121 c 0
 954 171 922 211 871 211 c 0
 821 211 772 171 762 121 c 0
305 671 m 0
 377 671 423 612 408 540 c 0
 393 468 322 409 250 409 c 0
 178 409 131 468 147 540 c 0
 162 612 233 671 305 671 c 0
187 540 m 0
 176 491 208 451 258 451 c 0
 309 451 358 491 368 540 c 0
 379 589 347 629 296 629 c 0
 246 629 197 589 187 540 c 0
681 663 m 1
 730 663 l 1
 115 -4 l 1
 66 -4 l 1
 681 663 l 1
EndSplineSet
EndChar
StartChar: questiondown
Encoding: 126 191 120
Width: 463
VWidth: 1333
Flags: HW
HStem: -220 40<91 295> 433 27G<333 353>
VStem: 44 355<-76 -52 -52 -52>
Fore
372 423 m 0
 368 403 347 385 327 385 c 0
 307 385 294 403 298 423 c 0
 302 443 323 460 343 460 c 0
 363 460 377 443 372 423 c 0
291 316 m 1
 331 316 l 1
 317 249 l 2
 284 93 103 39 84 -52 c 0
 67 -128 112 -180 184 -180 c 0
 270 -180 345 -113 358 -52 c 1
 398 -52 l 1
 380 -140 280 -220 176 -220 c 0
 80 -220 23 -149 44 -52 c 0
 68 64 248 112 277 249 c 2
 291 316 l 1
EndSplineSet
EndChar
StartChar: grave
Encoding: 64 96 121
Width: 190
VWidth: 1333
Flags: HW
Fore
243 549 m 1
 213 549 l 1
 177 680 l 1
 227 680 l 1
 243 549 l 1
EndSplineSet
EndChar
StartChar: acute
Encoding: 115 180 122
Width: 282
VWidth: 1333
Flags: HW
HStem: 533 160<252 339>
VStem: 204 210<533 693>
Fore
339 693 m 1
 414 693 l 1
 252 533 l 1
 204 533 l 1
 339 693 l 1
EndSplineSet
EndChar
StartChar: circumflex
Encoding: 201 710 123
Width: 309
VWidth: 1333
Flags: HW
HStem: 653 119<304 416>
VStem: 171 245<653 653>
Fore
304 772 m 1
 333 772 l 1
 416 653 l 1
 362 653 l 1
 309 727 l 1
 226 653 l 1
 171 653 l 1
 304 772 l 1
EndSplineSet
EndChar
StartChar: tilde
Encoding: 206 732 124
Width: 290
VWidth: 1333
Flags: HW
HStem: 583 41<318 351> 632 39<209 245>
VStem: 158 243<591 665>
Fore
375 665 m 1
 400 665 l 1
 397 651 392 635 387 624 c 0
 368 583 340 583 329 583 c 0
 304 583 280 600 267 611 c 0
 249 625 234 632 224 632 c 0
 213 632 193 625 184 591 c 1
 158 591 l 1
 160 603 162 613 169 628 c 0
 186 660 211 671 232 671 c 0
 260 671 285 652 296 644 c 0
 314 631 329 624 338 624 c 0
 347 624 368 633 375 665 c 1
EndSplineSet
EndChar
StartChar: macron
Encoding: 110 175 125
Width: 383
VWidth: 1333
Flags: HW
HStem: 540 40<178 444>
VStem: 169 283<540 580>
Fore
453 580 m 1
 444 540 l 1
 169 540 l 1
 178 580 l 1
 453 580 l 1
EndSplineSet
EndChar
StartChar: dotaccent
Encoding: 203 729 126
Width: 255
VWidth: 1333
Flags: HW
VStem: 216 75<566 615 591 591>
Fore
216 591 m 0
 220 611 241 628 261 628 c 0
 281 628 295 611 291 591 c 0
 287 571 266 553 246 553 c 0
 226 553 212 571 216 591 c 0
EndSplineSet
EndChar
StartChar: dieresis
Encoding: 103 168 127
Width: 343
VWidth: 1333
Flags: HW
HStem: 540 75<197 233 357 393>
VStem: 177 235<553 602 577 577>
Fore
177 577 m 0
 182 597 203 615 223 615 c 0
 243 615 256 597 252 577 c 0
 248 557 227 540 207 540 c 0
 187 540 173 557 177 577 c 0
337 577 m 0
 342 597 363 615 383 615 c 0
 403 615 416 597 412 577 c 0
 408 557 387 540 367 540 c 0
 347 540 333 557 337 577 c 0
EndSplineSet
EndChar
StartChar: ring
Encoding: 204 730 128
Width: 255
VWidth: 1333
Flags: HW
HStem: 501 40<203 283> 653 40<227 307>
VStem: 159 192<573 622 597 597>
Fore
275 693 m 0
 329 693 362 651 351 597 c 0
 340 544 288 501 235 501 c 0
 181 501 148 544 159 597 c 0
 170 651 222 693 275 693 c 0
199 597 m 0
 192 567 212 541 243 541 c 0
 274 541 304 567 311 597 c 0
 317 628 298 653 267 653 c 0
 236 653 205 628 199 597 c 0
EndSplineSet
EndChar
StartChar: cedilla
Encoding: 119 184 129
Width: 279
VWidth: 1333
Flags: HW
HStem: -179 40<72 139> -27 27G<141 179>
VStem: 31 162<-157 -109>
Fore
141 0 m 1
 179 0 l 1
 146 -43 l 1
 205 -53 196 -95 193 -109 c 0
 184 -151 142 -179 95 -179 c 0
 73 -179 50 -172 31 -157 c 1
 59 -124 l 1
 73 -135 89 -139 104 -139 c 0
 131 -139 149 -125 153 -109 c 0
 157 -91 135 -81 112 -77 c 2
 83 -73 l 1
 141 0 l 1
EndSplineSet
EndChar
StartChar: hungarumlaut
Encoding: 207 733 130
Width: 455
VWidth: 1333
Flags: HW
HStem: 533 160<252 339>
VStem: 204 383<533 693>
Fore
339 693 m 1
 414 693 l 1
 252 533 l 1
 204 533 l 1
 339 693 l 1
513 693 m 1
 587 693 l 1
 425 533 l 1
 377 533 l 1
 513 693 l 1
EndSplineSet
EndChar
StartChar: ogonek
Encoding: 205 731 131
Width: 270
VWidth: 1333
Flags: HW
HStem: -175 33<90 142> -27 27G<117 160>
VStem: 42 132<-153 -101>
Fore
159 -129 m 1
 174 -153 l 1
 150 -168 126 -175 104 -175 c 0
 62 -175 33 -145 42 -101 c 0
 50 -64 85 -28 117 0 c 1
 160 0 l 1
 108 -44 90 -73 84 -100 c 0
 79 -125 98 -141 123 -141 c 0
 134 -141 147 -137 159 -129 c 1
EndSplineSet
EndChar
StartChar: caron
Encoding: 202 711 132
Width: 309
VWidth: 1333
Flags: HW
HStem: 653 119<196 308>
VStem: 196 245<772 772>
Fore
308 653 m 1
 279 653 l 1
 196 772 l 1
 251 772 l 1
 303 699 l 1
 387 772 l 1
 441 772 l 1
 308 653 l 1
EndSplineSet
EndChar
StartChar: emdash
Encoding: 298 8212 133
Width: 503
VWidth: 1333
Flags: HW
HStem: 199 56<54 546>
VStem: 42 516<199 255>
Fore
558 255 m 1
 546 199 l 1
 42 199 l 1
 54 255 l 1
 558 255 l 1
EndSplineSet
EndChar
StartChar: AE
Encoding: 133 198 134
Width: 689
VWidth: 1333
Flags: HW
HStem: 0 40<476 673> 207 40<214 440> 367 40<486 714> 627 40<452 453 493 796>
VStem: 435 42<40 157> 442 44<247 367> 453 40<497 627>
Fore
722 407 m 1xf2
 714 367 l 1
 486 367 l 1xf4
 476 40 l 1
 682 40 l 1
 673 0 l 1
 435 0 l 1xf8
 440 207 l 1
 188 207 l 1
 59 0 l 1
 16 0 l 1
 434 667 l 1
 804 667 l 1
 796 627 l 1
 493 627 l 1
 486 407 l 1
 722 407 l 1xf2
214 247 m 1
 442 247 l 1xf4
 453 627 l 1xf2
 452 627 l 1
 214 247 l 1
EndSplineSet
EndChar
StartChar: ordfeminine
Encoding: 105 170 135
Width: 390
VWidth: 1333
Flags: HW
HStem: 277 35<179 302> 461 28<222 352> 576 33<259 378>
VStem: 359 38<277 361>
Fore
377 419 m 2
 383 447 l 1
 359 455 326 461 293 461 c 0
 238 461 184 444 171 385 c 0
 161 337 193 312 238 312 c 0
 305 312 365 381 377 419 c 2
205 520 m 1
 181 536 l 1
 215 579 264 609 314 609 c 0
 391 609 443 553 423 461 c 2
 403 367 l 2
 402 359 395 317 397 285 c 1
 359 277 l 1
 358 297 360 325 365 356 c 1
 334 316 286 277 231 277 c 0
 164 277 123 320 137 385 c 0
 153 463 225 489 295 489 c 0
 329 489 363 483 388 472 c 1
 398 537 361 576 304 576 c 0
 269 576 233 555 205 520 c 1
EndSplineSet
EndChar
StartChar: Lslash
Encoding: 191 321 136
Width: 483
VWidth: 1333
Flags: HW
HStem: 0 40<112 452> 640 27G<206 246>
VStem: 28 432<40 164>
Fore
452 0 m 1
 64 0 l 1
 112 227 l 1
 28 164 l 1
 40 217 l 1
 124 280 l 1
 206 667 l 1
 246 667 l 1
 171 316 l 1
 355 453 l 1
 344 400 l 1
 160 263 l 1
 112 40 l 1
 460 40 l 1
 452 0 l 1
EndSplineSet
EndChar
StartChar: Oslash
Encoding: 151 216 137
Width: 785
VWidth: 1333
Flags: HW
HStem: -7 40<333 615> 633 40<313 599>
Fore
159 -51 m 1
 130 -29 l 1
 206 59 l 1
 135 120 101 220 126 333 c 0
 165 521 350 673 536 673 c 0
 600 673 655 656 700 625 c 1
 779 717 l 1
 808 696 l 1
 727 603 l 1
 793 540 825 443 801 333 c 0
 762 145 577 -7 391 -7 c 0
 331 -7 278 9 235 37 c 1
 159 -51 l 1
698 569 m 1
 264 71 l 1
 302 47 348 33 400 33 c 0
 566 33 728 168 763 333 c 0
 783 429 756 515 698 569 c 1
236 92 m 1
 670 592 l 1
 631 619 583 633 528 633 c 0
 363 633 201 499 166 333 c 0
 145 235 174 147 236 92 c 1
EndSplineSet
EndChar
StartChar: OE
Encoding: 193 338 138
Width: 858
VWidth: 1333
Flags: HW
HStem: -7 40<185 459> 0 40<492 832> 367 40<569 883> 627 40<616 964> 633 40<313 589>
Fore
569 407 m 1x30
 892 407 l 1
 883 367 l 1
 562 367 l 1
 492 40 l 1
 840 40 l 1
 832 0 l 1
 460 0 l 1x70
 438 -4 415 -7 392 -7 c 0
 205 -7 86 145 126 333 c 0
 165 521 350 673 536 673 c 0xa8
 559 673 581 671 602 667 c 1
 972 667 l 1
 964 627 l 1
 616 627 l 1
 569 407 l 1x30
452 37 m 1
 578 629 l 1
 562 632 545 633 528 633 c 0
 363 633 201 499 166 333 c 0
 130 168 235 33 400 33 c 0xa8
 418 33 435 35 452 37 c 1
EndSplineSet
EndChar
StartChar: ordmasculine
Encoding: 121 186 139
Width: 413
VWidth: 1333
Flags: HW
HStem: 276 39<194 353> 541 39<242 401>
VStem: 146 304<404 452 428 428>
Fore
330 580 m 0
 414 580 467 512 450 428 c 0
 432 344 349 276 265 276 c 0
 181 276 128 344 146 428 c 0
 163 512 246 580 330 580 c 0
186 428 m 0
 172 365 212 315 274 315 c 0
 335 315 396 365 410 428 c 0
 423 491 383 541 322 541 c 0
 260 541 199 491 186 428 c 0
EndSplineSet
EndChar
StartChar: ae
Encoding: 165 230 140
Width: 831
VWidth: 1333
Flags: HW
HStem: -7 41<101 285 461 650> 227 39<276 408 460 790> 421 40<257 399 563 761>
Fore
825 227 m 1
 447 227 l 1
 424 119 483 35 574 35 c 0
 633 35 692 69 734 124 c 1
 765 104 l 1
 715 39 640 -7 565 -7 c 0
 485 -7 429 43 408 115 c 1
 352 49 269 -8 186 -8 c 0
 85 -8 58 61 70 117 c 0
 101 263 306 265 416 265 c 1
 436 368 379 421 311 421 c 0
 270 421 222 400 182 356 c 1
 155 377 l 1
 206 435 266 461 319 461 c 0
 387 461 446 419 457 339 c 1
 509 411 587 460 666 460 c 0
 776 460 844 364 828 247 c 2
 825 227 l 1
195 32 m 0
 264 32 350 87 402 153 c 1
 401 176 403 200 408 227 c 1
 311 225 133 224 110 117 c 0
 102 80 123 32 195 32 c 0
460 265 m 1
 790 265 l 1
 793 355 737 420 657 420 c 0
 579 420 495 355 460 265 c 1
EndSplineSet
EndChar
StartChar: lslash
Encoding: 192 322 141
Width: 167
VWidth: 1333
Flags: HW
HStem: 0 28G<64 104> 640 27G<206 246>
VStem: 52 194<181 667>
Fore
104 0 m 1
 64 0 l 1
 112 227 l 1
 52 181 l 1
 63 235 l 1
 124 280 l 1
 206 667 l 1
 246 667 l 1
 171 316 l 1
 231 361 l 1
 220 308 l 1
 160 263 l 1
 104 0 l 1
EndSplineSet
EndChar
StartChar: oslash
Encoding: 183 248 142
Width: 574
VWidth: 1333
Flags: HW
HStem: -7 39<245 433> 419 41<237 425>
VStem: 103 465<202 251 227 227>
Fore
521 503 m 1
 555 483 l 1
 508 419 l 1
 560 377 585 307 568 227 c 0
 541 97 415 -7 287 -7 c 0
 256 -7 228 -1 203 9 c 1
 160 -49 l 1
 128 -31 l 1
 171 28 l 1
 113 69 85 143 103 227 c 0
 130 356 256 460 384 460 c 0
 418 460 448 453 475 440 c 1
 521 503 l 1
481 383 m 1
 229 44 l 1
 249 36 271 32 295 32 c 0
 401 32 507 119 529 225 c 0
 543 291 523 348 481 383 c 1
197 61 m 1
 448 403 l 1
 427 413 402 419 376 419 c 0
 269 419 164 332 141 225 c 0
 126 156 150 96 197 61 c 1
EndSplineSet
EndChar
StartChar: oe
Encoding: 194 339 143
Width: 950
VWidth: 1333
Flags: HW
HStem: -7 40<156 407 577 772> 225 40<580 910> 420 40<239 506 675 882>
Fore
143 227 m 0
 120 120 188 33 295 33 c 0
 402 33 507 120 530 227 c 0
 552 333 484 420 377 420 c 0
 271 420 166 333 143 227 c 0
944 225 m 1
 568 225 l 1
 545 117 605 35 695 35 c 0
 754 35 813 69 856 124 c 1
 886 104 l 1
 836 39 761 -7 687 -7 c 0
 601 -7 541 49 526 129 c 1
 472 49 379 -7 285 -7 c 0
 157 -7 75 97 103 227 c 0
 130 356 256 460 384 460 c 0
 478 460 547 404 568 324 c 1
 617 404 700 460 784 460 c 0
 895 460 963 364 947 247 c 2
 944 225 l 1
580 265 m 1
 910 265 l 1
 913 355 858 421 778 421 c 0
 699 421 615 355 580 265 c 1
EndSplineSet
EndChar
StartChar: germandbls
Encoding: 158 223 144
Width: 506
VWidth: 1333
Flags: HW
HStem: -8 32<235 370> 705 39<311 475>
VStem: 75 456<0 572>
Fore
225 521 m 2
 115 0 l 1
 75 0 l 1
 185 520 l 2
 218 673 318 744 405 744 c 0
 487 744 554 680 531 572 c 0
 509 471 393 436 382 385 c 0
 367 317 512 280 487 163 c 0
 463 53 369 -8 281 -8 c 0
 236 -8 192 8 161 41 c 1
 191 59 l 1
 214 35 245 24 278 24 c 0
 349 24 427 76 446 165 c 0
 466 263 320 289 341 387 c 0
 357 461 472 491 490 573 c 0
 508 657 457 705 394 705 c 0
 330 705 254 653 225 521 c 2
EndSplineSet
EndChar
StartChar: logicalnot
Encoding: 107 172 145
Width: 623
VWidth: 1333
Flags: HW
HStem: 367 40<141 607>
VStem: 133 523<367 407>
Fore
656 407 m 1
 603 160 l 1
 563 160 l 1
 607 367 l 1
 133 367 l 1
 141 407 l 1
 656 407 l 1
EndSplineSet
EndChar
StartChar: trademark
Encoding: 314 8482 146
Width: 766
VWidth: 1333
Flags: HW
HStem: 632 35<206 293 328 422>
VStem: 739 35<333 517> 744 37<477 564>
Fore
430 667 m 1x80
 422 632 l 1
 328 632 l 1
 264 333 l 1
 230 333 l 1
 293 632 l 1
 198 632 l 1
 206 667 l 1
 430 667 l 1x80
744 564 m 1xa0
 574 325 l 1
 512 565 l 1
 418 335 l 1
 382 335 l 1
 522 675 l 1
 593 405 l 1
 780 673 l 1xa0
 773 333 l 1
 739 333 l 1xc0
 744 564 l 1xa0
EndSplineSet
EndChar
StartChar: Eth
Encoding: 143 208 147
Width: 602
VWidth: 1333
Flags: HW
HStem: 0 40<123 218> 313 40<79 141 190 379> 627 40<248 557>
VStem: 71 548<313 332 313 333>
CounterMasks: 1 00
Fore
123 40 m 1
 218 40 l 2
 383 40 544 168 579 333 c 0
 614 499 508 627 343 627 c 2
 248 627 l 1
 190 353 l 1
 387 353 l 1
 379 313 l 1
 181 313 l 1
 123 40 l 1
150 353 m 1
 216 667 l 1
 351 667 l 2
 538 667 659 521 619 333 c 0
 579 145 396 0 209 0 c 2
 75 0 l 1
 141 313 l 1
 71 313 l 1
 79 353 l 1
 150 353 l 1
EndSplineSet
EndChar
StartChar: onehalf
Encoding: 124 189 148
Width: 826
VWidth: 1333
Flags: HW
HStem: 0 40<532 755> 411 40<654 782> 640 27G<736 786>
Fore
763 40 m 1
 755 0 l 1
 479 0 l 1
 483 19 l 2
 515 171 764 195 788 305 c 0
 800 365 767 411 718 411 c 0
 669 411 616 365 604 305 c 1
 564 305 l 1
 580 384 653 451 728 451 c 0
 802 451 847 385 830 307 c 0
 802 173 579 147 532 40 c 1
 763 40 l 1
736 667 m 1
 786 667 l 1
 171 0 l 1
 121 0 l 1
 736 667 l 1
184 225 m 1
 263 597 l 1
 203 561 l 1
 188 595 l 1
 319 673 l 1
 224 225 l 1
 184 225 l 1
EndSplineSet
Ligature2: "'frac' Diagonal Fractions in Latin lookup 42" one fraction two
Ligature2: "'frac' Diagonal Fractions in Latin lookup 42" one slash two
EndChar
StartChar: plusminus
Encoding: 112 177 149
Width: 463
VWidth: 1333
Flags: HW
HStem: 0 40<63 409> 313 40<130 279 327 476>
VStem: 55 430<0 353>
Fore
418 40 m 1
 409 0 l 1
 55 0 l 1
 63 40 l 1
 418 40 l 1
285 156 m 1
 245 156 l 1
 279 313 l 1
 121 313 l 1
 130 353 l 1
 287 353 l 1
 321 511 l 1
 361 511 l 1
 327 353 l 1
 484 353 l 1
 476 313 l 1
 319 313 l 1
 285 156 l 1
EndSplineSet
EndChar
StartChar: Thorn
Encoding: 157 222 150
Width: 507
VWidth: 1333
Flags: HW
HStem: 0 28G<75 115> 141 41<164 403> 484 39<233 467> 640 27G<216 256>
VStem: 75 449<0 332>
Fore
216 476 m 1
 155 191 l 1
 185 185 213 183 240 183 c 0
 365 183 462 237 483 333 c 0
 503 429 430 484 304 484 c 0
 278 484 248 481 216 476 c 1
75 0 m 1
 216 667 l 1
 256 667 l 1
 224 515 l 1
 255 520 284 523 312 523 c 0
 467 523 548 447 524 332 c 0
 500 217 386 141 231 141 c 0
 203 141 175 144 146 149 c 1
 115 0 l 1
 75 0 l 1
EndSplineSet
EndChar
StartChar: onequarter
Encoding: 123 188 151
Width: 826
VWidth: 1333
Flags: HW
HStem: 0 28G<163 212 657 697> 72 41<509 673 720 762> 640 27G<778 827>
VStem: 163 664<0 667>
Fore
778 667 m 1
 827 667 l 1
 212 0 l 1
 163 0 l 1
 778 667 l 1
681 113 m 1
 730 340 l 1
 509 113 l 1
 681 113 l 1
184 225 m 1
 263 597 l 1
 203 561 l 1
 188 595 l 1
 319 673 l 1
 224 225 l 1
 184 225 l 1
673 72 m 1
 419 72 l 1
 793 457 l 1
 720 113 l 1
 784 113 l 1
 762 72 l 1
 713 72 l 1
 697 0 l 1
 657 0 l 1
 673 72 l 1
EndSplineSet
Ligature2: "'frac' Diagonal Fractions in Latin lookup 42" one fraction four
Ligature2: "'frac' Diagonal Fractions in Latin lookup 42" one slash four
EndChar
StartChar: divide
Encoding: 182 247 152
Width: 482
VWidth: 1333
Flags: HW
HStem: 313 40<139 485>
VStem: 131 363<313 353>
Fore
248 209 m 0
 253 229 274 247 294 247 c 0
 314 247 327 229 323 209 c 0
 319 189 298 172 278 172 c 0
 258 172 244 189 248 209 c 0
301 457 m 0
 305 477 326 495 346 495 c 0
 366 495 380 477 376 457 c 0
 372 437 351 420 331 420 c 0
 311 420 297 437 301 457 c 0
494 353 m 1
 485 313 l 1
 131 313 l 1
 139 353 l 1
 494 353 l 1
EndSplineSet
EndChar
StartChar: brokenbar
Encoding: 101 166 153
Width: 189
VWidth: 1333
Flags: HW
VStem: 26 233<-227 680>
Fore
183 320 m 1
 143 320 l 1
 219 680 l 1
 259 680 l 1
 183 320 l 1
66 -227 m 1
 26 -227 l 1
 103 133 l 1
 143 133 l 1
 66 -227 l 1
EndSplineSet
EndChar
StartChar: degree
Encoding: 111 176 154
Width: 335
VWidth: 1333
Flags: HW
HStem: 541 41<240 344> 727 41<270 374>
VStem: 194 227<630 679 655 655>
Fore
331 768 m 0
 394 768 434 717 420 655 c 0
 407 592 346 541 283 541 c 0
 220 541 180 592 194 655 c 0
 207 717 269 768 331 768 c 0
235 655 m 0
 227 615 252 583 292 583 c 0
 332 583 371 615 379 655 c 0
 388 695 362 727 322 727 c 0
 282 727 244 695 235 655 c 0
EndSplineSet
EndChar
StartChar: thorn
Encoding: 189 254 155
Width: 551
VWidth: 1333
Flags: HW
HStem: -7 41<192 413> 421 39<291 495> 640 27G<216 256>
VStem: 26 519<-227 227>
Fore
66 -227 m 1
 26 -227 l 1
 216 667 l 1
 256 667 l 1
 192 364 l 1
 243 421 312 460 383 460 c 0
 502 460 572 353 546 227 c 0
 519 100 403 -7 284 -7 c 0
 213 -7 160 32 134 89 c 1
 66 -227 l 1
166 243 m 2
 160 213 l 2
 145 112 203 35 291 35 c 0
 385 35 481 120 504 228 c 0
 527 336 467 421 374 421 c 0
 286 421 194 344 166 243 c 2
EndSplineSet
EndChar
StartChar: threequarters
Encoding: 125 190 156
Width: 826
VWidth: 1333
Flags: HW
HStem: 0 28G<216 265 684 724> 73 40<536 700 747 789> 217 39<170 315> 459 40<285 346> 633 40<271 375>
Fore
123 357 m 1
 163 357 l 1
 151 301 186 256 242 256 c 0
 298 256 353 301 365 357 c 0
 377 413 341 459 285 459 c 1
 294 499 l 1
 334 499 371 524 380 563 c 0
 388 601 363 633 323 633 c 0
 283 633 244 601 236 563 c 1
 196 563 l 1
 209 624 268 673 330 673 c 0
 391 673 430 624 417 563 c 0
 409 527 386 497 356 479 c 1
 394 455 414 409 403 357 c 0
 386 280 310 217 233 217 c 0
 156 217 106 280 123 357 c 1
831 667 m 1
 880 667 l 1
 265 0 l 1
 216 0 l 1
 831 667 l 1
708 113 m 1
 756 340 l 1
 536 113 l 1
 708 113 l 1
700 73 m 1
 446 73 l 1
 820 459 l 1
 747 113 l 1
 811 113 l 1
 789 73 l 1
 740 73 l 1
 724 0 l 1
 684 0 l 1
 700 73 l 1
EndSplineSet
Ligature2: "'frac' Diagonal Fractions in Latin lookup 42" three fraction four
Ligature2: "'frac' Diagonal Fractions in Latin lookup 42" three slash four
EndChar
StartChar: registered
Encoding: 109 174 157
Width: 786
VWidth: 1333
Flags: HW
HStem: -7 40<185 615> 309 40<398 474> 487 40<427 569> 633 40<313 743>
Fore
576 140 m 1
 530 140 l 1
 474 309 l 1
 390 309 l 1
 354 140 l 1
 314 140 l 1
 396 527 l 1
 531 527 l 2
 589 527 625 477 613 417 c 0
 602 369 563 328 518 315 c 1
 576 140 l 1
166 333 m 0
 130 168 235 33 400 33 c 0
 566 33 728 168 763 333 c 0
 798 499 693 633 528 633 c 0
 363 633 201 499 166 333 c 0
536 673 m 0
 723 673 843 521 803 333 c 0
 763 145 579 -7 392 -7 c 0
 205 -7 86 145 126 333 c 0
 165 521 350 673 536 673 c 0
398 349 m 1
 494 349 l 2
 529 349 564 379 573 417 c 0
 581 456 558 487 522 487 c 2
 427 487 l 1
 398 349 l 1
EndSplineSet
EndChar
StartChar: eth
Encoding: 175 240 158
Width: 573
VWidth: 1333
Flags: HW
HStem: -7 39<153 431> 419 41<268 454>
VStem: 103 489<227 681>
Fore
447 605 m 1
 448 604 l 2
 597 451 579 284 567 227 c 0
 539 97 413 -7 285 -7 c 0
 157 -7 75 97 103 227 c 0
 130 356 256 460 384 460 c 0
 438 460 483 443 516 412 c 1
 495 477 457 536 408 583 c 1
 249 499 l 1
 236 533 l 1
 379 609 l 1
 341 640 298 664 255 679 c 1
 275 717 l 1
 326 700 376 671 420 632 c 1
 579 716 l 1
 591 681 l 1
 447 605 l 1
376 419 m 2
 374 419 l 2
 268 419 163 332 140 225 c 0
 117 119 185 32 292 32 c 0
 399 32 504 119 527 225 c 0
 551 341 474 419 376 419 c 2
EndSplineSet
EndChar
StartChar: multiply
Encoding: 150 215 159
Width: 477
VWidth: 1333
Flags: HW
HStem: 156 355<141 478>
VStem: 72 481<156 511>
Fore
478 156 m 1
 421 156 l 1
 305 304 l 1
 128 156 l 1
 72 156 l 1
 283 332 l 1
 141 511 l 1
 198 511 l 1
 317 360 l 1
 497 511 l 1
 553 511 l 1
 339 332 l 1
 478 156 l 1
EndSplineSet
EndChar
StartChar: copyright
Encoding: 104 169 160
Width: 786
VWidth: 1333
Flags: HW
HStem: -7 40<185 615> 139 40<338 491> 485 40<403 556> 633 40<313 743>
Fore
536 673 m 0
 723 673 843 521 803 333 c 0
 763 145 579 -7 392 -7 c 0
 205 -7 86 145 126 333 c 0
 165 521 350 673 536 673 c 0
166 333 m 0
 130 168 235 33 400 33 c 0
 566 33 728 168 763 333 c 0
 798 499 693 633 528 633 c 0
 363 633 201 499 166 333 c 0
557 251 m 1
 588 231 l 1
 547 176 484 139 421 139 c 0
 324 139 268 227 291 332 c 0
 313 437 406 525 504 525 c 0
 566 525 613 488 631 433 c 1
 592 413 l 1
 577 457 542 485 495 485 c 0
 424 485 349 419 331 332 c 0
 312 245 359 179 430 179 c 0
 477 179 524 207 557 251 c 1
EndSplineSet
EndChar
StartChar: Aacute
Encoding: 128 193 161
Width: 591
VWidth: 1333
Flags: HW
HStem: 0 28G<16 59 533 576> 207 40<215 484>
VStem: 16 596<0 839>
Fore
536 839 m 1
 612 839 l 1
 452 720 l 1
 410 720 l 1
 536 839 l 1
215 247 m 1
 484 247 l 1
 419 571 l 1
 215 247 l 1
492 207 m 1
 188 207 l 1
 59 0 l 1
 16 0 l 1
 439 675 l 1
 576 0 l 1
 533 0 l 1
 492 207 l 1
EndSplineSet
EndChar
StartChar: Acircumflex
Encoding: 129 194 162
Width: 591
VWidth: 1333
Flags: HW
HStem: 0 28G<16 59 533 576> 207 40<215 484>
VStem: 16 560<0 0>
Fore
461 839 m 1
 490 839 l 1
 573 720 l 1
 518 720 l 1
 466 793 l 1
 382 720 l 1
 328 720 l 1
 461 839 l 1
215 247 m 1
 484 247 l 1
 419 571 l 1
 215 247 l 1
492 207 m 1
 188 207 l 1
 59 0 l 1
 16 0 l 1
 439 675 l 1
 576 0 l 1
 533 0 l 1
 492 207 l 1
EndSplineSet
EndChar
StartChar: Adieresis
Encoding: 131 196 163
Width: 591
VWidth: 1333
Flags: HW
HStem: 0 28G<16 59 533 576> 207 40<215 484> 720 75<360 396 520 556>
VStem: 16 560<0 0>
Fore
341 757 m 0
 345 777 366 795 386 795 c 0
 406 795 420 777 416 757 c 0
 411 737 390 720 370 720 c 0
 350 720 337 737 341 757 c 0
501 757 m 0
 505 777 526 795 546 795 c 0
 566 795 580 777 576 757 c 0
 571 737 550 720 530 720 c 0
 510 720 497 737 501 757 c 0
215 247 m 1
 484 247 l 1
 419 571 l 1
 215 247 l 1
492 207 m 1
 188 207 l 1
 59 0 l 1
 16 0 l 1
 439 675 l 1
 576 0 l 1
 533 0 l 1
 492 207 l 1
EndSplineSet
EndChar
StartChar: Agrave
Encoding: 127 192 164
Width: 591
VWidth: 1333
Flags: HW
HStem: 0 28G<16 59 533 576> 207 40<215 484>
VStem: 16 560<0 0>
Fore
341 839 m 1
 417 839 l 1
 492 720 l 1
 450 720 l 1
 341 839 l 1
215 247 m 1
 484 247 l 1
 419 571 l 1
 215 247 l 1
492 207 m 1
 188 207 l 1
 59 0 l 1
 16 0 l 1
 439 675 l 1
 576 0 l 1
 533 0 l 1
 492 207 l 1
EndSplineSet
EndChar
StartChar: Aring
Encoding: 132 197 165
Width: 591
VWidth: 1333
Flags: HW
HStem: 0 28G<16 59 533 576> 207 40<215 484> 713 40<415 495> 865 40<439 518>
VStem: 16 560<0 0>
Fore
487 905 m 0
 540 905 574 863 563 809 c 0
 551 756 500 713 446 713 c 0
 393 713 359 756 371 809 c 0
 382 863 434 905 487 905 c 0
411 809 m 0
 404 779 424 753 455 753 c 0
 485 753 516 779 523 809 c 0
 529 840 509 865 479 865 c 0
 448 865 417 840 411 809 c 0
215 247 m 1
 484 247 l 1
 419 571 l 1
 215 247 l 1
492 207 m 1
 188 207 l 1
 59 0 l 1
 16 0 l 1
 439 675 l 1
 576 0 l 1
 533 0 l 1
 492 207 l 1
EndSplineSet
EndChar
StartChar: Atilde
Encoding: 130 195 166
Width: 591
VWidth: 1333
Flags: HW
HStem: 0 28G<16 59 533 576> 207 40<215 484> 713 40<474 525> 761 40<383 439>
VStem: 16 560<0 0>
Fore
358 720 m 1
 333 720 l 1
 341 753 357 801 408 801 c 0
 456 801 483 753 512 753 c 0
 517 753 541 759 549 795 c 1
 576 795 l 1
 563 735 536 713 502 713 c 0
 460 713 430 761 398 761 c 0
 387 761 367 755 358 720 c 1
215 247 m 1
 484 247 l 1
 419 571 l 1
 215 247 l 1
492 207 m 1
 188 207 l 1
 59 0 l 1
 16 0 l 1
 439 675 l 1
 576 0 l 1
 533 0 l 1
 492 207 l 1
EndSplineSet
EndChar
StartChar: Ccedilla
Encoding: 134 199 167
Width: 721
VWidth: 1333
Flags: HW
HStem: -177 40<309 375> 633 41<313 656>
VStem: 126 653<335 536>
Fore
666 155 m 1
 695 132 l 1
 619 53 516 0 411 -5 c 1
 382 -41 l 1
 441 -52 432 -93 429 -108 c 0
 420 -149 378 -177 332 -177 c 0
 309 -177 286 -171 267 -156 c 1
 295 -123 l 1
 309 -133 325 -137 340 -137 c 0
 367 -137 386 -124 389 -108 c 0
 393 -89 371 -80 348 -76 c 2
 319 -72 l 1
 374 -4 l 1
 197 5 87 153 126 335 c 0
 166 523 350 675 537 675 c 0
 649 675 736 620 779 536 c 1
 742 512 l 1
 703 585 627 633 528 633 c 0
 363 633 201 499 166 333 c 0
 130 168 235 33 400 33 c 0
 499 33 596 81 666 155 c 1
EndSplineSet
EndChar
StartChar: Eacute
Encoding: 136 201 168
Width: 489
VWidth: 1333
Flags: HW
HStem: 0 40<123 461> 367 40<201 513> 627 40<248 596>
VStem: 75 530<0 667>
Fore
545 839 m 1
 385 720 l 1
 344 720 l 1
 469 839 l 1
 545 839 l 1
521 407 m 1
 513 367 l 1
 193 367 l 1
 123 40 l 1
 470 40 l 1
 461 0 l 1
 75 0 l 1
 216 667 l 1
 604 667 l 1
 596 627 l 1
 248 627 l 1
 201 407 l 1
 521 407 l 1
EndSplineSet
EndChar
StartChar: Ecircumflex
Encoding: 137 202 169
Width: 489
VWidth: 1333
Flags: HW
HStem: 0 40<123 461> 367 40<201 513> 627 40<248 596>
VStem: 75 530<0 667>
Fore
473 720 m 1
 419 793 l 1
 336 720 l 1
 281 720 l 1
 414 839 l 1
 445 839 l 1
 528 720 l 1
 473 720 l 1
521 407 m 1
 513 367 l 1
 193 367 l 1
 123 40 l 1
 470 40 l 1
 461 0 l 1
 75 0 l 1
 216 667 l 1
 604 667 l 1
 596 627 l 1
 248 627 l 1
 201 407 l 1
 521 407 l 1
EndSplineSet
EndChar
StartChar: Edieresis
Encoding: 138 203 170
Width: 489
VWidth: 1333
Flags: HW
HStem: 0 40<123 461> 367 40<201 513> 627 40<248 596> 720 75<314 350 474 510>
VStem: 75 530<0 667>
Fore
294 757 m 0
 299 777 320 795 340 795 c 0
 360 795 373 777 369 757 c 0
 365 737 344 720 324 720 c 0
 304 720 290 737 294 757 c 0
454 757 m 0
 459 777 480 795 500 795 c 0
 520 795 533 777 529 757 c 0
 525 737 504 720 484 720 c 0
 464 720 450 737 454 757 c 0
521 407 m 1
 513 367 l 1
 193 367 l 1
 123 40 l 1
 470 40 l 1
 461 0 l 1
 75 0 l 1
 216 667 l 1
 604 667 l 1
 596 627 l 1
 248 627 l 1
 201 407 l 1
 521 407 l 1
EndSplineSet
EndChar
StartChar: Egrave
Encoding: 135 200 171
Width: 489
VWidth: 1333
Flags: HW
HStem: 0 40<123 461> 367 40<201 513> 627 40<248 596>
VStem: 75 530<0 667>
Fore
313 839 m 1
 389 839 l 1
 464 720 l 1
 422 720 l 1
 313 839 l 1
521 407 m 1
 513 367 l 1
 193 367 l 1
 123 40 l 1
 470 40 l 1
 461 0 l 1
 75 0 l 1
 216 667 l 1
 604 667 l 1
 596 627 l 1
 248 627 l 1
 201 407 l 1
 521 407 l 1
EndSplineSet
EndChar
StartChar: Iacute
Encoding: 140 205 172
Width: 189
VWidth: 1333
Flags: HW
HStem: 0 28G<75 115> 640 27G<216 256>
VStem: 75 333<0 839>
Fore
408 839 m 1
 248 720 l 1
 206 720 l 1
 332 839 l 1
 408 839 l 1
115 0 m 1
 75 0 l 1
 216 667 l 1
 256 667 l 1
 115 0 l 1
EndSplineSet
EndChar
StartChar: Icircumflex
Encoding: 141 206 173
Width: 189
VWidth: 1333
Flags: HW
HStem: 0 28G<75 115> 640 27G<216 256>
VStem: 75 296<0 720>
Fore
316 720 m 1
 262 793 l 1
 178 720 l 1
 124 720 l 1
 257 839 l 1
 288 839 l 1
 370 720 l 1
 316 720 l 1
115 0 m 1
 75 0 l 1
 216 667 l 1
 256 667 l 1
 115 0 l 1
EndSplineSet
EndChar
StartChar: Idieresis
Encoding: 142 207 174
Width: 189
VWidth: 1333
Flags: HW
HStem: 0 28G<75 115> 640 27G<216 256> 720 75<156 192 316 352>
VStem: 75 297<0 757>
Fore
137 757 m 0
 141 777 162 795 182 795 c 0
 202 795 216 777 212 757 c 0
 207 737 186 720 166 720 c 0
 146 720 133 737 137 757 c 0
297 757 m 0
 301 777 322 795 342 795 c 0
 362 795 376 777 372 757 c 0
 367 737 346 720 326 720 c 0
 306 720 293 737 297 757 c 0
115 0 m 1
 75 0 l 1
 216 667 l 1
 256 667 l 1
 115 0 l 1
EndSplineSet
EndChar
StartChar: Igrave
Encoding: 139 204 175
Width: 189
VWidth: 1333
Flags: HW
HStem: 0 28G<75 115> 640 27G<216 256>
VStem: 75 214<0 720>
Fore
138 839 m 1
 214 839 l 1
 289 720 l 1
 248 720 l 1
 138 839 l 1
115 0 m 5
 75 0 l 5
 216 667 l 5
 256 667 l 5
 115 0 l 5
EndSplineSet
EndChar
StartChar: Ntilde
Encoding: 144 209 176
Width: 750
VWidth: 1333
Flags: HW
HStem: 0 28G<75 115> 640 27G<778 818> 713 40<554 605> 761 40<463 519>
Fore
412 720 m 1
 413 720 l 1
 421 753 437 801 488 801 c 0
 536 801 563 753 592 753 c 0
 597 753 621 759 629 795 c 1
 656 795 l 1
 643 735 616 713 582 713 c 0
 540 713 510 761 478 761 c 0
 467 761 447 755 438 720 c 1
 412 720 l 1
75 0 m 1
 218 676 l 1
 655 89 l 1
 778 667 l 1
 818 667 l 1
 674 -9 l 1
 237 577 l 1
 115 0 l 1
 75 0 l 1
EndSplineSet
EndChar
StartChar: Oacute
Encoding: 146 211 177
Width: 786
VWidth: 1333
Flags: HW
HStem: -7 40<185 615> 633 40<313 743>
Fore
733 839 m 1
 573 720 l 1
 532 720 l 1
 657 839 l 1
 733 839 l 1
536 673 m 0
 723 673 843 521 803 333 c 0
 763 145 579 -7 392 -7 c 0
 205 -7 86 145 126 333 c 0
 165 521 350 673 536 673 c 0
166 333 m 0
 130 168 235 33 400 33 c 0
 566 33 728 168 763 333 c 0
 798 499 693 633 528 633 c 0
 363 633 201 499 166 333 c 0
EndSplineSet
EndChar
StartChar: Ocircumflex
Encoding: 147 212 178
Width: 786
VWidth: 1333
Flags: HW
HStem: -7 40<185 615> 633 40<313 743>
Fore
616 720 m 1
 562 793 l 1
 478 720 l 1
 424 720 l 1
 557 839 l 1
 588 839 l 1
 670 720 l 1
 616 720 l 1
536 673 m 0
 723 673 843 521 803 333 c 0
 763 145 579 -7 392 -7 c 0
 205 -7 86 145 126 333 c 0
 165 521 350 673 536 673 c 0
166 333 m 0
 130 168 235 33 400 33 c 0
 566 33 728 168 763 333 c 0
 798 499 693 633 528 633 c 0
 363 633 201 499 166 333 c 0
EndSplineSet
EndChar
StartChar: Odieresis
Encoding: 149 214 179
Width: 786
VWidth: 1333
Flags: HW
HStem: -7 40<185 615> 633 40<313 743> 720 75<456 492 616 652>
Fore
437 757 m 0
 441 777 462 795 482 795 c 0
 502 795 516 777 512 757 c 0
 507 737 486 720 466 720 c 0
 446 720 433 737 437 757 c 0
597 757 m 0
 601 777 622 795 642 795 c 0
 662 795 676 777 672 757 c 0
 667 737 646 720 626 720 c 0
 606 720 593 737 597 757 c 0
536 673 m 0
 723 673 843 521 803 333 c 0
 763 145 579 -7 392 -7 c 0
 205 -7 86 145 126 333 c 0
 165 521 350 673 536 673 c 0
166 333 m 0
 130 168 235 33 400 33 c 0
 566 33 728 168 763 333 c 0
 798 499 693 633 528 633 c 0
 363 633 201 499 166 333 c 0
EndSplineSet
EndChar
StartChar: Ograve
Encoding: 145 210 180
Width: 786
VWidth: 1333
Flags: HW
HStem: -7 40<185 615> 633 40<313 743>
Fore
536 673 m 0
 723 673 843 521 803 333 c 0
 763 145 579 -7 392 -7 c 0
 205 -7 86 145 126 333 c 0
 165 521 350 673 536 673 c 0
166 333 m 0
 130 168 235 33 400 33 c 0
 566 33 728 168 763 333 c 0
 798 499 693 633 528 633 c 0
 363 633 201 499 166 333 c 0
400 839 m 1
 476 839 l 1
 550 720 l 1
 509 720 l 1
 400 839 l 1
EndSplineSet
EndChar
StartChar: Otilde
Encoding: 148 213 181
Width: 786
VWidth: 1333
Flags: HW
HStem: -7 40<185 615> 633 40<313 743> 713 40<574 625> 761 40<483 539>
Fore
432 720 m 1
 433 720 l 1
 441 753 457 801 508 801 c 0
 556 801 583 753 612 753 c 0
 617 753 641 759 649 795 c 1
 676 795 l 1
 663 735 636 713 602 713 c 0
 560 713 530 761 498 761 c 0
 487 761 467 755 458 720 c 1
 432 720 l 1
536 673 m 0
 723 673 843 521 803 333 c 0
 763 145 579 -7 392 -7 c 0
 205 -7 86 145 126 333 c 0
 165 521 350 673 536 673 c 0
166 333 m 0
 130 168 235 33 400 33 c 0
 566 33 728 168 763 333 c 0
 798 499 693 633 528 633 c 0
 363 633 201 499 166 333 c 0
EndSplineSet
EndChar
StartChar: Scaron
Encoding: 195 352 182
Width: 481
VWidth: 1333
Flags: HW
HStem: -9 41<147 358> 633 41<284 444>
VStem: 72 41<47 196> 485 40<536 623>
Fore
404 707 m 1
 374 707 l 1
 291 825 l 1
 346 825 l 1
 398 752 l 1
 482 825 l 1
 537 825 l 1
 404 707 l 1
525 549 m 1
 485 536 l 1
 476 603 428 633 375 633 c 0
 305 633 248 581 234 519 c 0
 201 364 536 409 490 191 c 0
 464 71 346 -9 237 -9 c 0
 143 -9 61 51 72 188 c 1
 113 193 l 1
 105 79 169 32 245 32 c 0
 332 32 429 93 450 192 c 0
 490 379 154 328 195 520 c 0
 212 603 290 675 383 675 c 0
 451 675 514 632 525 549 c 1
EndSplineSet
EndChar
StartChar: Uacute
Encoding: 153 218 183
Width: 623
VWidth: 1333
Flags: HW
HStem: -7 40<182 459> 640 27G<216 256 651 691>
VStem: 129 563<253 667>
Fore
569 839 m 1
 645 839 l 1
 485 720 l 1
 444 720 l 1
 569 839 l 1
216 667 m 1
 256 667 l 1
 169 253 l 2
 142 129 214 33 320 33 c 0
 427 33 537 129 563 253 c 2
 651 667 l 1
 691 667 l 1
 603 253 l 2
 573 111 443 -7 311 -7 c 0
 179 -7 98 111 129 253 c 2
 216 667 l 1
EndSplineSet
EndChar
StartChar: Ucircumflex
Encoding: 154 219 184
Width: 623
VWidth: 1333
Flags: HW
HStem: -7 40<182 459> 640 27G<216 256 651 691>
VStem: 129 563<253 667>
Fore
588 720 m 1
 532 720 l 1
 479 793 l 1
 396 720 l 1
 341 720 l 1
 474 839 l 1
 505 839 l 1
 588 720 l 1
216 667 m 1
 256 667 l 1
 169 253 l 2
 142 129 214 33 320 33 c 0
 427 33 537 129 563 253 c 2
 651 667 l 1
 691 667 l 1
 603 253 l 2
 573 111 443 -7 311 -7 c 0
 179 -7 98 111 129 253 c 2
 216 667 l 1
EndSplineSet
EndChar
StartChar: Udieresis
Encoding: 155 220 185
Width: 623
VWidth: 1333
Flags: HW
HStem: -7 40<182 459> 640 27G<216 256 651 691> 720 75<375 411 535 571>
VStem: 129 563<253 667>
Fore
356 757 m 0
 360 777 381 795 401 795 c 0
 421 795 435 777 430 757 c 0
 426 737 405 720 385 720 c 0
 365 720 351 737 356 757 c 0
516 757 m 0
 520 777 541 795 561 795 c 0
 581 795 595 777 590 757 c 0
 586 737 565 720 545 720 c 0
 525 720 511 737 516 757 c 0
216 667 m 1
 256 667 l 1
 169 253 l 2
 142 129 214 33 320 33 c 0
 427 33 537 129 563 253 c 2
 651 667 l 1
 691 667 l 1
 603 253 l 2
 573 111 443 -7 311 -7 c 0
 179 -7 98 111 129 253 c 2
 216 667 l 1
EndSplineSet
EndChar
StartChar: Ugrave
Encoding: 152 217 186
Width: 623
VWidth: 1333
Flags: HW
HStem: -7 40<182 459> 640 27G<216 256 651 691>
VStem: 129 563<253 667>
Fore
336 839 m 1
 412 839 l 1
 486 720 l 1
 445 720 l 1
 336 839 l 1
216 667 m 1
 256 667 l 1
 169 253 l 2
 142 129 214 33 320 33 c 0
 427 33 537 129 563 253 c 2
 651 667 l 1
 691 667 l 1
 603 253 l 2
 573 111 443 -7 311 -7 c 0
 179 -7 98 111 129 253 c 2
 216 667 l 1
EndSplineSet
EndChar
StartChar: Yacute
Encoding: 156 221 187
Width: 549
VWidth: 1333
Flags: HW
HStem: 0 28G<255 295> 640 27G<158 204 628 675>
VStem: 158 517<667 667>
Fore
533 839 m 1
 609 839 l 1
 449 720 l 1
 408 720 l 1
 533 839 l 1
158 667 m 1
 204 667 l 1
 345 331 l 1
 628 667 l 1
 675 667 l 1
 356 288 l 1
 295 0 l 1
 255 0 l 1
 316 288 l 1
 158 667 l 1
EndSplineSet
EndChar
StartChar: Ydieresis
Encoding: 197 376 188
Width: 549
VWidth: 1333
Flags: HW
HStem: 0 28G<255 295> 640 27G<158 204 628 675> 720 75<339 375 499 535>
VStem: 158 517<667 667>
Fore
320 757 m 0
 324 777 345 795 365 795 c 0
 385 795 399 777 394 757 c 0
 390 737 369 720 349 720 c 0
 329 720 315 737 320 757 c 0
480 757 m 0
 484 777 505 795 525 795 c 0
 545 795 559 777 554 757 c 0
 550 737 529 720 509 720 c 0
 489 720 475 737 480 757 c 0
158 667 m 1
 204 667 l 1
 345 331 l 1
 628 667 l 1
 675 667 l 1
 356 288 l 1
 295 0 l 1
 255 0 l 1
 316 288 l 1
 158 667 l 1
EndSplineSet
EndChar
StartChar: Zcaron
Encoding: 198 381 189
Width: 530
VWidth: 1333
Flags: HW
HStem: 0 40<99 501> 627 40<202 564>
VStem: 16 631<0 667>
Fore
430 707 m 1
 401 707 l 1
 318 825 l 1
 373 825 l 1
 425 752 l 1
 509 825 l 1
 563 825 l 1
 430 707 l 1
202 667 m 1
 647 667 l 1
 99 40 l 1
 523 40 l 1
 501 0 l 1
 16 0 l 1
 564 627 l 1
 180 627 l 1
 202 667 l 1
EndSplineSet
EndChar
StartChar: aacute
Encoding: 160 225 190
Width: 474
VWidth: 1333
Flags: HW
HStem: -8 40<101 278> 231 29<282 409> 421 40<257 399>
VStem: 70 425<117 651>
Fore
420 651 m 1
 496 651 l 1
 336 532 l 1
 294 532 l 1
 420 651 l 1
411 0 m 1
 368 0 l 1
 366 17 368 37 373 60 c 2
 380 95 l 1
 330 40 257 -8 186 -8 c 0
 85 -8 58 61 70 117 c 0
 100 258 290 260 403 260 c 0
 415 260 l 1
 434 363 379 421 311 421 c 0
 270 421 222 400 182 356 c 1
 155 377 l 1
 206 435 266 461 319 461 c 0
 409 461 480 389 455 260 c 2
 413 60 l 2
 407 33 407 13 411 0 c 1
195 32 m 0
 268 32 350 92 391 145 c 1
 409 231 l 1
 311 229 133 224 110 117 c 0
 102 80 123 32 195 32 c 0
EndSplineSet
EndChar
StartChar: acircumflex
Encoding: 161 226 191
Width: 474
VWidth: 1333
Flags: HW
HStem: -8 40<101 278> 231 29<282 409> 421 40<257 399>
VStem: 70 400<117 532>
Fore
358 651 m 1
 388 651 l 1
 470 532 l 1
 416 532 l 1
 363 605 l 1
 280 532 l 1
 225 532 l 1
 358 651 l 1
411 0 m 1
 368 0 l 1
 366 17 368 37 373 60 c 2
 380 95 l 1
 330 40 257 -8 186 -8 c 0
 85 -8 58 61 70 117 c 0
 100 258 290 260 403 260 c 0
 415 260 l 1
 434 363 379 421 311 421 c 0
 270 421 222 400 182 356 c 1
 155 377 l 1
 206 435 266 461 319 461 c 0
 409 461 480 389 455 260 c 2
 413 60 l 2
 407 33 407 13 411 0 c 1
195 32 m 0
 268 32 350 92 391 145 c 1
 409 231 l 1
 311 229 133 224 110 117 c 0
 102 80 123 32 195 32 c 0
EndSplineSet
EndChar
StartChar: adieresis
Encoding: 163 228 192
Width: 474
VWidth: 1333
Flags: HW
HStem: -8 40<101 278> 231 29<282 409> 421 40<257 399> 533 75<259 295 419 455>
VStem: 70 404<117 571>
Fore
240 571 m 0
 244 591 265 608 285 608 c 0
 305 608 319 591 315 571 c 0
 310 551 289 533 269 533 c 0
 249 533 236 551 240 571 c 0
400 571 m 0
 404 591 425 608 445 608 c 0
 465 608 479 591 475 571 c 0
 470 551 449 533 429 533 c 0
 409 533 396 551 400 571 c 0
411 0 m 1
 368 0 l 1
 366 17 368 37 373 60 c 2
 380 95 l 1
 330 40 257 -8 186 -8 c 0
 85 -8 58 61 70 117 c 0
 100 258 290 260 403 260 c 0
 415 260 l 1
 434 363 379 421 311 421 c 0
 270 421 222 400 182 356 c 1
 155 377 l 1
 206 435 266 461 319 461 c 0
 409 461 480 389 455 260 c 2
 413 60 l 2
 407 33 407 13 411 0 c 1
195 32 m 0
 268 32 350 92 391 145 c 1
 409 231 l 1
 311 229 133 224 110 117 c 0
 102 80 123 32 195 32 c 0
EndSplineSet
EndChar
StartChar: agrave
Encoding: 159 224 193
Width: 474
VWidth: 1333
Flags: HW
HStem: -8 40<101 278> 231 29<282 409> 421 40<257 399>
VStem: 70 385<117 260>
Fore
411 0 m 1
 368 0 l 1
 366 17 368 37 373 60 c 2
 380 95 l 1
 330 40 257 -8 186 -8 c 0
 85 -8 58 61 70 117 c 0
 100 258 290 260 403 260 c 0
 415 260 l 1
 434 363 379 421 311 421 c 0
 270 421 222 400 182 356 c 1
 155 377 l 1
 206 435 266 461 319 461 c 0
 409 461 480 389 455 260 c 2
 413 60 l 2
 407 33 407 13 411 0 c 1
195 32 m 0
 268 32 350 92 391 145 c 1
 409 231 l 1
 311 229 133 224 110 117 c 0
 102 80 123 32 195 32 c 0
228 651 m 1
 304 651 l 1
 378 532 l 1
 337 532 l 1
 228 651 l 1
EndSplineSet
EndChar
StartChar: aring
Encoding: 164 229 194
Width: 474
VWidth: 1333
Flags: HW
HStem: -8 40<101 278> 231 29<282 409> 421 40<257 399> 527 40<315 395> 679 40<339 419>
VStem: 70 393<117 623>
Fore
387 719 m 0
 441 719 474 676 463 623 c 0
 452 569 400 527 347 527 c 0
 293 527 260 569 271 623 c 0
 282 676 334 719 387 719 c 0
311 623 m 0
 304 592 324 567 355 567 c 0
 386 567 416 592 423 623 c 0
 430 653 410 679 379 679 c 0
 348 679 318 653 311 623 c 0
411 0 m 1
 368 0 l 1
 366 17 368 37 373 60 c 2
 380 95 l 1
 330 40 257 -8 186 -8 c 0
 85 -8 58 61 70 117 c 0
 100 258 290 260 403 260 c 0
 415 260 l 1
 434 363 379 421 311 421 c 0
 270 421 222 400 182 356 c 1
 155 377 l 1
 206 435 266 461 319 461 c 0
 409 461 480 389 455 260 c 2
 413 60 l 2
 407 33 407 13 411 0 c 1
195 32 m 0
 268 32 350 92 391 145 c 1
 409 231 l 1
 311 229 133 224 110 117 c 0
 102 80 123 32 195 32 c 0
EndSplineSet
EndChar
StartChar: atilde
Encoding: 162 227 195
Width: 474
VWidth: 1333
Flags: HW
HStem: -8 40<101 278> 231 29<282 409> 421 40<257 399> 525 41<393 431> 575 39<283 319>
VStem: 70 403<117 604>
Fore
448 604 m 1
 474 604 l 1
 471 589 467 577 462 567 c 0
 442 525 414 525 404 525 c 0
 378 525 354 543 342 553 c 0
 323 568 309 575 298 575 c 0
 287 575 267 568 259 533 c 1
 232 533 l 1
 235 545 237 556 244 571 c 0
 260 603 285 613 306 613 c 0
 334 613 360 595 370 587 c 0
 389 573 403 567 412 567 c 0
 422 567 442 572 448 604 c 1
411 0 m 1
 368 0 l 1
 366 17 368 37 373 60 c 2
 380 95 l 1
 330 40 257 -8 186 -8 c 0
 85 -8 58 61 70 117 c 0
 100 258 290 260 403 260 c 0
 415 260 l 1
 434 363 379 421 311 421 c 0
 270 421 222 400 182 356 c 1
 155 377 l 1
 206 435 266 461 319 461 c 0
 409 461 480 389 455 260 c 2
 413 60 l 2
 407 33 407 13 411 0 c 1
195 32 m 0
 268 32 350 92 391 145 c 1
 409 231 l 1
 311 229 133 224 110 117 c 0
 102 80 123 32 195 32 c 0
EndSplineSet
EndChar
StartChar: ccedilla
Encoding: 166 231 196
Width: 449
VWidth: 1333
Flags: HW
HStem: -177 40<155 221> 420 41<210 404>
VStem: 80 409<228 351>
Fore
406 123 m 1
 440 105 l 1
 394 45 327 3 258 -4 c 1
 229 -41 l 1
 288 -52 279 -93 276 -108 c 0
 267 -149 225 -177 178 -177 c 0
 156 -177 133 -171 114 -156 c 1
 142 -123 l 1
 156 -133 172 -137 187 -137 c 0
 213 -137 232 -124 236 -108 c 0
 240 -89 218 -80 195 -76 c 2
 166 -72 l 1
 220 -4 l 1
 115 7 55 108 80 228 c 0
 107 355 221 461 337 461 c 0
 411 461 467 416 489 351 c 1
 450 331 l 1
 431 385 387 420 328 420 c 0
 237 420 142 335 119 227 c 0
 96 119 155 33 246 33 c 0
 304 33 364 68 406 123 c 1
EndSplineSet
EndChar
StartChar: eacute
Encoding: 168 233 197
Width: 526
VWidth: 1333
Flags: HW
HStem: -7 41<151 345> 225 40<155 484> 420 40<250 456>
VStem: 103 448<227 652>
Fore
475 652 m 1
 551 652 l 1
 391 533 l 1
 349 533 l 1
 475 652 l 1
155 265 m 1
 484 265 l 1
 487 355 432 420 352 420 c 0
 273 420 190 355 155 265 c 1
520 225 m 1
 141 225 l 1
 118 117 178 35 269 35 c 0
 327 35 387 69 429 124 c 1
 459 104 l 1
 410 39 335 -7 260 -7 c 0
 144 -7 76 100 103 227 c 0
 130 353 244 460 360 460 c 0
 471 460 539 364 523 247 c 2
 520 225 l 1
EndSplineSet
EndChar
StartChar: ecircumflex
Encoding: 169 234 198
Width: 526
VWidth: 1333
Flags: HW
HStem: -7 41<151 345> 225 40<155 484> 420 40<250 456>
VStem: 103 420<225 251 227 247>
Fore
385 652 m 1
 415 652 l 1
 497 533 l 1
 443 533 l 1
 390 607 l 1
 307 533 l 1
 252 533 l 1
 385 652 l 1
155 265 m 1
 484 265 l 1
 487 355 432 420 352 420 c 0
 273 420 190 355 155 265 c 1
520 225 m 1
 141 225 l 1
 118 117 178 35 269 35 c 0
 327 35 387 69 429 124 c 1
 459 104 l 1
 410 39 335 -7 260 -7 c 0
 144 -7 76 100 103 227 c 0
 130 353 244 460 360 460 c 0
 471 460 539 364 523 247 c 2
 520 225 l 1
EndSplineSet
EndChar
StartChar: edieresis
Encoding: 170 235 199
Width: 526
VWidth: 1333
Flags: HW
HStem: -7 41<151 345> 225 40<155 484> 420 40<250 456> 533 75<279 315 439 475>
VStem: 103 420<225 251 227 247>
Fore
260 571 m 0
 264 591 285 608 305 608 c 0
 325 608 339 591 335 571 c 0
 330 551 309 533 289 533 c 0
 269 533 256 551 260 571 c 0
420 571 m 0
 424 591 445 608 465 608 c 0
 485 608 499 591 495 571 c 0
 490 551 469 533 449 533 c 0
 429 533 416 551 420 571 c 0
155 265 m 1
 484 265 l 1
 487 355 432 420 352 420 c 0
 273 420 190 355 155 265 c 1
520 225 m 1
 141 225 l 1
 118 117 178 35 269 35 c 0
 327 35 387 69 429 124 c 1
 459 104 l 1
 410 39 335 -7 260 -7 c 0
 144 -7 76 100 103 227 c 0
 130 353 244 460 360 460 c 0
 471 460 539 364 523 247 c 2
 520 225 l 1
EndSplineSet
EndChar
StartChar: egrave
Encoding: 167 232 200
Width: 526
VWidth: 1333
Flags: HW
HStem: -7 41<151 345> 225 40<155 484> 420 40<250 456>
VStem: 103 420<225 251 227 247>
Fore
239 652 m 1
 315 652 l 1
 389 533 l 1
 348 533 l 1
 239 652 l 1
155 265 m 1
 484 265 l 1
 487 355 432 420 352 420 c 0
 273 420 190 355 155 265 c 1
520 225 m 1
 141 225 l 1
 118 117 178 35 269 35 c 0
 327 35 387 69 429 124 c 1
 459 104 l 1
 410 39 335 -7 260 -7 c 0
 144 -7 76 100 103 227 c 0
 130 353 244 460 360 460 c 0
 471 460 539 364 523 247 c 2
 520 225 l 1
EndSplineSet
EndChar
StartChar: iacute
Encoding: 172 237 201
Width: 189
VWidth: 1333
Flags: HW
HStem: 0 652<115 285>
VStem: 75 285<0 652>
Fore
285 652 m 1
 360 652 l 1
 200 533 l 1
 159 533 l 1
 285 652 l 1
115 0 m 1
 75 0 l 1
 171 453 l 1
 211 453 l 1
 115 0 l 1
EndSplineSet
EndChar
StartChar: icircumflex
Encoding: 173 238 202
Width: 189
VWidth: 1333
Flags: HW
HStem: 0 652<115 219>
VStem: 75 256<0 533>
Fore
115 0 m 1
 75 0 l 1
 171 453 l 1
 211 453 l 1
 115 0 l 1
219 652 m 1
 248 652 l 1
 331 533 l 1
 276 533 l 1
 224 607 l 1
 140 533 l 1
 85 533 l 1
 219 652 l 1
EndSplineSet
EndChar
StartChar: idieresis
Encoding: 174 239 203
Width: 189
VWidth: 1333
Flags: HW
HStem: 0 28G<75 115> 427 27G<171 211> 533 75<117 153 277 313>
VStem: 75 257<0 571>
Fore
97 571 m 0
 102 591 123 608 143 608 c 0
 163 608 176 591 172 571 c 0
 168 551 147 533 127 533 c 0
 107 533 93 551 97 571 c 0
257 571 m 0
 262 591 283 608 303 608 c 0
 323 608 336 591 332 571 c 0
 328 551 307 533 287 533 c 0
 267 533 253 551 257 571 c 0
115 0 m 1
 75 0 l 1
 171 453 l 1
 211 453 l 1
 115 0 l 1
EndSplineSet
EndChar
StartChar: igrave
Encoding: 171 236 204
Width: 189
VWidth: 1333
Flags: HW
HStem: 0 652<95 115>
VStem: 75 171<0 533>
Fore
95 652 m 1
 171 652 l 1
 245 533 l 1
 204 533 l 1
 95 652 l 1
115 0 m 1
 75 0 l 1
 171 453 l 1
 211 453 l 1
 115 0 l 1
EndSplineSet
EndChar
StartChar: ntilde
Encoding: 176 241 205
Width: 479
VWidth: 1333
Flags: HW
HStem: 0 28G<75 115 365 405> 420 40<293 458> 525 41<399 432> 575 39<290 326>
VStem: 75 406<0 604>
Fore
456 608 m 1
 480 604 l 1
 477 589 473 577 468 567 c 0
 449 525 421 525 410 525 c 0
 385 525 361 543 348 553 c 0
 330 568 315 575 305 575 c 0
 294 575 274 568 265 533 c 1
 239 533 l 1
 241 545 244 556 251 571 c 0
 267 603 292 613 313 613 c 0
 341 613 366 595 377 587 c 0
 395 573 410 567 419 567 c 0
 428 567 449 576 456 608 c 1
160 453 m 1
 203 453 l 1
 205 436 203 416 198 393 c 2
 184 325 l 1
 231 397 310 460 366 460 c 0
 460 460 485 376 465 280 c 2
 405 0 l 1
 365 0 l 1
 425 280 l 2
 437 339 435 420 356 420 c 0
 283 420 177 295 163 227 c 2
 115 0 l 1
 75 0 l 1
 158 393 l 2
 164 420 164 440 160 453 c 1
EndSplineSet
EndChar
StartChar: oacute
Encoding: 178 243 206
Width: 573
VWidth: 1333
Flags: HW
HStem: -7 40<156 434> 420 40<239 516>
VStem: 103 464<202 251 227 227>
Fore
475 652 m 1
 551 652 l 1
 391 533 l 1
 349 533 l 1
 475 652 l 1
384 460 m 0
 512 460 594 356 567 227 c 0
 539 97 413 -7 285 -7 c 0
 157 -7 75 97 103 227 c 0
 130 356 256 460 384 460 c 0
143 227 m 0
 120 120 188 33 295 33 c 0
 402 33 507 120 530 227 c 0
 552 333 484 420 377 420 c 0
 271 420 166 333 143 227 c 0
EndSplineSet
EndChar
StartChar: ocircumflex
Encoding: 179 244 207
Width: 573
VWidth: 1333
Flags: HW
HStem: -7 40<156 434> 420 40<239 516>
VStem: 103 464<202 251 227 227>
Fore
409 652 m 1
 439 652 l 1
 521 533 l 1
 467 533 l 1
 414 607 l 1
 331 533 l 1
 276 533 l 1
 409 652 l 1
384 460 m 0
 512 460 594 356 567 227 c 0
 539 97 413 -7 285 -7 c 0
 157 -7 75 97 103 227 c 0
 130 356 256 460 384 460 c 0
143 227 m 0
 120 120 188 33 295 33 c 0
 402 33 507 120 530 227 c 0
 552 333 484 420 377 420 c 0
 271 420 166 333 143 227 c 0
EndSplineSet
EndChar
StartChar: odieresis
Encoding: 181 246 208
Width: 573
VWidth: 1333
Flags: HW
HStem: -7 40<156 434> 420 40<239 516> 533 75<309 345 469 505>
VStem: 103 464<202 251 227 227>
Fore
289 571 m 0
 294 591 315 608 335 608 c 0
 355 608 368 591 364 571 c 0
 360 551 339 533 319 533 c 0
 299 533 285 551 289 571 c 0
449 571 m 0
 454 591 475 608 495 608 c 0
 515 608 528 591 524 571 c 0
 520 551 499 533 479 533 c 0
 459 533 445 551 449 571 c 0
384 460 m 0
 512 460 594 356 567 227 c 0
 539 97 413 -7 285 -7 c 0
 157 -7 75 97 103 227 c 0
 130 356 256 460 384 460 c 0
143 227 m 0
 120 120 188 33 295 33 c 0
 402 33 507 120 530 227 c 0
 552 333 484 420 377 420 c 0
 271 420 166 333 143 227 c 0
EndSplineSet
EndChar
StartChar: ograve
Encoding: 177 242 209
Width: 573
VWidth: 1333
Flags: HW
HStem: -7 40<156 434> 420 40<239 516>
VStem: 103 464<202 251 227 227>
Fore
297 652 m 1
 373 652 l 1
 448 533 l 1
 407 533 l 1
 297 652 l 1
384 460 m 0
 512 460 594 356 567 227 c 0
 539 97 413 -7 285 -7 c 0
 157 -7 75 97 103 227 c 0
 130 356 256 460 384 460 c 0
143 227 m 0
 120 120 188 33 295 33 c 0
 402 33 507 120 530 227 c 0
 552 333 484 420 377 420 c 0
 271 420 166 333 143 227 c 0
EndSplineSet
EndChar
StartChar: otilde
Encoding: 180 245 210
Width: 573
VWidth: 1333
Flags: HW
HStem: -7 40<156 434> 420 40<239 516> 525 41<443 476> 575 39<334 370>
VStem: 103 464<202 251 227 227>
Fore
500 608 m 1
 524 604 l 1
 521 589 517 577 512 567 c 0
 493 525 465 525 454 525 c 0
 429 525 405 543 392 553 c 0
 374 568 359 575 349 575 c 0
 338 575 318 568 309 533 c 1
 283 533 l 1
 285 545 288 556 295 571 c 0
 311 603 336 613 357 613 c 0
 385 613 410 595 421 587 c 0
 439 573 454 567 463 567 c 0
 472 567 493 576 500 608 c 1
384 460 m 0
 512 460 594 356 567 227 c 0
 539 97 413 -7 285 -7 c 0
 157 -7 75 97 103 227 c 0
 130 356 256 460 384 460 c 0
143 227 m 0
 120 120 188 33 295 33 c 0
 402 33 507 120 530 227 c 0
 552 333 484 420 377 420 c 0
 271 420 166 333 143 227 c 0
EndSplineSet
EndChar
StartChar: scaron
Encoding: 196 353 211
Width: 354
VWidth: 1333
Flags: HW
HStem: -8 40<122 253> 421 40<220 310>
VStem: 59 41<44 138> 335 40<361 416>
Fore
298 493 m 1
 269 493 l 1
 186 612 l 1
 241 612 l 1
 293 539 l 1
 377 612 l 1
 431 612 l 1
 298 493 l 1
375 373 m 1
 335 361 l 1
 330 403 300 421 268 421 c 0
 231 421 191 396 181 351 c 0
 161 255 382 281 350 131 c 0
 332 44 248 -8 174 -8 c 0
 109 -8 52 33 59 129 c 1
 101 135 l 1
 95 63 136 32 184 32 c 0
 237 32 299 71 312 132 c 0
 337 251 113 219 141 352 c 0
 157 423 219 461 277 461 c 0
 325 461 368 433 375 373 c 1
EndSplineSet
EndChar
StartChar: uacute
Encoding: 185 250 212
Width: 477
VWidth: 1333
Flags: HW
HStem: -7 40<156 333> 427 27G<171 211 459 499>
VStem: 112 403<173 652>
Fore
439 652 m 1
 515 652 l 1
 355 533 l 1
 313 533 l 1
 439 652 l 1
171 453 m 1
 211 453 l 1
 152 173 l 2
 135 95 176 33 244 33 c 0
 312 33 383 95 400 173 c 2
 459 453 l 1
 499 453 l 1
 440 173 l 2
 419 75 329 -7 237 -7 c 0
 145 -7 91 75 112 173 c 2
 171 453 l 1
EndSplineSet
EndChar
StartChar: ucircumflex
Encoding: 186 251 213
Width: 477
VWidth: 1333
Flags: HW
HStem: -7 40<156 333> 427 27G<171 211 459 499>
VStem: 112 388<173 453>
Fore
363 652 m 1
 392 652 l 1
 475 533 l 1
 420 533 l 1
 368 607 l 1
 284 533 l 1
 229 533 l 1
 363 652 l 1
171 453 m 1
 211 453 l 1
 152 173 l 2
 135 95 176 33 244 33 c 0
 312 33 383 95 400 173 c 2
 459 453 l 1
 499 453 l 1
 440 173 l 2
 419 75 329 -7 237 -7 c 0
 145 -7 91 75 112 173 c 2
 171 453 l 1
EndSplineSet
EndChar
StartChar: udieresis
Encoding: 187 252 214
Width: 477
VWidth: 1333
Flags: HW
HStem: -7 40<156 333> 427 27G<171 211 459 499> 533 75<265 301 425 461>
VStem: 112 388<173 453>
Fore
245 571 m 0
 250 591 271 608 291 608 c 0
 311 608 324 591 320 571 c 0
 316 551 295 533 275 533 c 0
 255 533 241 551 245 571 c 0
405 571 m 0
 410 591 431 608 451 608 c 0
 471 608 484 591 480 571 c 0
 476 551 455 533 435 533 c 0
 415 533 401 551 405 571 c 0
171 453 m 1
 211 453 l 1
 152 173 l 2
 135 95 176 33 244 33 c 0
 312 33 383 95 400 173 c 2
 459 453 l 1
 499 453 l 1
 440 173 l 2
 419 75 329 -7 237 -7 c 0
 145 -7 91 75 112 173 c 2
 171 453 l 1
EndSplineSet
EndChar
StartChar: ugrave
Encoding: 184 249 215
Width: 477
VWidth: 1333
Flags: HW
HStem: -7 40<156 333> 427 27G<171 211 459 499>
VStem: 112 388<173 453>
Fore
244 652 m 1
 320 652 l 1
 395 533 l 1
 353 533 l 1
 244 652 l 1
171 453 m 1
 211 453 l 1
 152 173 l 2
 135 95 176 33 244 33 c 0
 312 33 383 95 400 173 c 2
 459 453 l 1
 499 453 l 1
 440 173 l 2
 419 75 329 -7 237 -7 c 0
 145 -7 91 75 112 173 c 2
 171 453 l 1
EndSplineSet
EndChar
StartChar: yacute
Encoding: 188 253 216
Width: 425
VWidth: 1333
Flags: HW
HStem: 427 27G<112 155 463 506>
VStem: 56 450<-233 453>
Fore
412 652 m 1
 488 652 l 1
 328 533 l 1
 287 533 l 1
 412 652 l 1
100 -233 m 1
 56 -233 l 1
 193 -1 l 1
 112 453 l 1
 155 453 l 1
 226 53 l 1
 463 453 l 1
 506 453 l 1
 100 -233 l 1
EndSplineSet
EndChar
StartChar: ydieresis
Encoding: 190 255 217
Width: 423
VWidth: 1333
Flags: HW
HStem: 427 27G<112 154 462 504> 540 75<239 275 399 435>
VStem: 56 449<-233 453>
Fore
220 577 m 0
 224 597 245 615 265 615 c 0
 285 615 299 597 295 577 c 0
 290 557 269 540 249 540 c 0
 229 540 216 557 220 577 c 0
380 577 m 0
 384 597 405 615 425 615 c 0
 445 615 459 597 455 577 c 0
 450 557 429 540 409 540 c 0
 389 540 376 557 380 577 c 0
112 453 m 1
 154 453 l 1
 225 53 l 1
 462 453 l 1
 504 453 l 1
 98 -233 l 1
 56 -233 l 1
 193 -1 l 1
 112 453 l 1
EndSplineSet
EndChar
StartChar: zcaron
Encoding: 199 382 218
Width: 397
VWidth: 1333
Flags: HW
HStem: 0 40<101 367> 413 40<167 395>
VStem: 16 462<0 453>
Fore
332 493 m 1
 302 493 l 1
 219 612 l 1
 274 612 l 1
 326 539 l 1
 410 612 l 1
 465 612 l 1
 332 493 l 1
167 453 m 1
 478 453 l 1
 100 40 l 1
 388 40 l 1
 367 0 l 1
 16 0 l 1
 395 413 l 1
 145 413 l 1
 167 453 l 1
EndSplineSet
EndChar
StartChar: uni00AD
Encoding: 108 173 220
Width: 463
VWidth: 1333
Flags: HW
HStem: 207 40<107 453>
VStem: 99 363<207 247>
Fore
462 247 m 1
 453 207 l 1
 99 207 l 1
 107 247 l 1
 462 247 l 1
EndSplineSet
EndChar
StartChar: uni00B2
Encoding: 113 178 221
Width: 395
VWidth: 1333
Flags: HW
HStem: 413 40<196 419> 824 40<318 446>
VStem: 142 352<412 720>
Fore
419 413 m 1
 142 412 l 1
 146 432 l 2
 179 584 428 608 451 719 c 0
 464 779 431 824 382 824 c 0
 332 824 280 779 267 719 c 1
 227 719 l 1
 244 797 317 864 392 864 c 0
 466 864 511 799 494 720 c 0
 466 587 243 560 196 453 c 1
 427 453 l 1
 419 413 l 1
EndSplineSet
EndChar
StartChar: uni00B3
Encoding: 114 179 222
Width: 389
VWidth: 1333
Flags: HW
HStem: 407 39<218 363> 648 40<334 394> 823 40<319 423>
VStem: 171 294<547 752>
Fore
284 752 m 1
 244 752 l 1
 257 813 317 863 378 863 c 0
 439 863 478 813 465 752 c 0
 458 716 434 687 405 668 c 1
 442 644 462 599 451 547 c 0
 434 469 358 407 281 407 c 0
 204 407 154 469 171 547 c 1
 211 547 l 1
 199 491 235 445 291 445 c 0
 347 445 402 491 414 547 c 0
 425 603 390 648 334 648 c 1
 342 688 l 1
 382 688 420 713 428 752 c 0
 436 791 411 823 371 823 c 0
 331 823 292 791 284 752 c 1
EndSplineSet
EndChar
StartChar: uni00B5
Encoding: 116 181 223
Width: 477
VWidth: 1333
Flags: HW
HStem: -4 40<172 333> 427 27G<171 211 459 499>
VStem: 45 454<-137 453>
Fore
171 453 m 1
 211 453 l 1
 152 176 l 2
 135 97 177 36 245 36 c 0
 313 36 383 97 400 176 c 2
 459 453 l 1
 499 453 l 1
 440 176 l 2
 419 77 330 -4 238 -4 c 0
 187 -4 148 20 127 57 c 1
 86 -136 l 2
 80 -163 81 -188 88 -209 c 1
 49 -228 l 1
 40 -201 38 -171 45 -137 c 2
 171 453 l 1
EndSplineSet
EndChar
StartChar: uni00B9
Encoding: 120 185 224
Width: 350
VWidth: 1333
Flags: HW
HStem: 413 448<275 408>
VStem: 275 134<413 861>
Fore
275 413 m 1
 354 785 l 1
 293 749 l 1
 277 783 l 1
 408 861 l 1
 313 413 l 1
 275 413 l 1
EndSplineSet
EndChar
StartChar: uni0E01
Encoding: 209 3585 225
Width: 527
VWidth: 1333
Flags: HW
HStem: 0 28G<75 115 413 453> 500 40<283 465>
VStem: 75 451<0 341>
Fore
179 384 m 1
 245 341 l 1
 203 323 178 300 167 247 c 2
 115 0 l 1
 75 0 l 1
 127 247 l 2
 135 285 169 320 199 339 c 1
 137 376 l 1
 193 500 303 540 369 540 c 0
 479 540 549 451 526 341 c 2
 453 0 l 1
 413 0 l 1
 486 341 l 2
 507 441 441 500 361 500 c 0
 297 500 220 464 179 384 c 1
EndSplineSet
EndChar
StartChar: uni0E02
Encoding: 210 3586 226
Width: 546
VWidth: 1333
Flags: HW
HStem: -7 40<166 395> 300 40<178 297> 493 40<288 338>
VStem: 115 470<192 533>
Fore
266 493 m 1
 288 533 l 1
 387 533 l 1
 353 373 l 2
 344 333 304 300 264 300 c 2
 178 300 l 1
 155 192 l 2
 137 104 192 33 280 33 c 0
 368 33 454 104 473 192 c 2
 545 533 l 1
 585 533 l 1
 513 192 l 2
 490 83 381 -7 272 -7 c 0
 163 -7 92 83 115 192 c 2
 147 340 l 1
 272 340 l 2
 291 340 309 355 313 373 c 2
 338 493 l 1
 266 493 l 1
EndSplineSet
EndChar
StartChar: uni0E03
Encoding: 211 3587 227
Width: 546
VWidth: 1333
Flags: HW
HStem: -7 40<167 394> 300 40<178 296>
VStem: 115 470<192 533>
Fore
195 505 m 1
 222 540 l 1
 241 528 266 503 281 470 c 1
 348 533 l 1
 387 533 l 1
 353 373 l 2
 344 333 304 300 264 300 c 2
 178 300 l 1
 155 192 l 2
 137 104 193 33 280 33 c 0
 368 33 454 104 473 192 c 2
 545 533 l 1
 585 533 l 1
 513 192 l 2
 489 82 382 -7 272 -7 c 0
 162 -7 92 82 115 192 c 2
 147 340 l 1
 272 340 l 2
 291 340 309 355 313 373 c 2
 333 470 l 1
 257 397 l 1
 252 416 242 475 195 505 c 1
EndSplineSet
EndChar
StartChar: uni0E04
Encoding: 212 3588 228
Width: 546
VWidth: 1333
Flags: HW
HStem: 0 28G<75 115 432 472> 247 40<176 312> 500 40<265 494>
VStem: 75 470<0 341>
Fore
334 287 m 1
 312 247 l 1
 167 247 l 1
 115 0 l 1
 75 0 l 1
 147 341 l 2
 170 451 279 540 388 540 c 0
 497 540 568 451 545 341 c 2
 472 0 l 1
 432 0 l 1
 505 341 l 2
 523 429 468 500 380 500 c 0
 292 500 206 429 187 341 c 2
 176 287 l 1
 334 287 l 1
EndSplineSet
EndChar
StartChar: uni0E05
Encoding: 213 3589 229
Width: 546
VWidth: 1333
Flags: HW
HStem: 0 28G<75 115 432 472> 247 40<176 312> 416 40<343 391>
VStem: 75 474<0 363>
Fore
334 287 m 1
 312 247 l 1
 167 247 l 1
 115 0 l 1
 75 0 l 1
 152 363 l 2
 167 433 209 495 274 532 c 2
 293 543 l 1
 300 527 l 2
 326 472 349 456 369 456 c 0
 384 457 418 465 470 525 c 2
 484 541 l 1
 498 532 l 2
 550 497 562 431 549 363 c 2
 472 0 l 1
 432 0 l 1
 509 363 l 2
 520 415 511 459 482 487 c 1
 445 448 403 416 362 416 c 0
 320 416 293 448 271 487 c 1
 231 459 203 415 192 363 c 2
 176 287 l 1
 334 287 l 1
EndSplineSet
EndChar
StartChar: uni0E06
Encoding: 214 3590 230
Width: 546
VWidth: 1333
Flags: HW
HStem: -7 40<217 443> 300 40<178 291>
VStem: 75 511<0 533>
Fore
178 300 m 1
 167 248 l 2
 148 157 236 33 320 33 c 0
 415 33 457 119 473 192 c 2
 545 533 l 1
 585 533 l 1
 513 192 l 2
 490 84 424 -7 312 -7 c 0
 239 -7 176 68 146 149 c 1
 115 0 l 1
 75 0 l 1
 147 340 l 1
 272 340 l 2
 291 340 309 355 313 373 c 2
 333 470 l 1
 257 397 l 1
 252 416 242 475 195 505 c 1
 222 540 l 1
 241 528 266 503 281 470 c 1
 348 533 l 1
 387 533 l 1
 353 373 l 2
 344 333 304 300 264 300 c 2
 178 300 l 1
EndSplineSet
EndChar
StartChar: uni0E07
Encoding: 215 3591 231
Width: 546
VWidth: 1333
Flags: HW
HStem: -7 40<166 395> 493 40<378 493>
VStem: 115 428<192 335>
Fore
197 387 m 1
 155 192 l 2
 137 104 192 33 280 33 c 0
 368 33 454 104 473 192 c 2
 503 335 l 2
 522 423 466 493 378 493 c 1
 387 533 l 1
 496 533 566 444 543 335 c 2
 513 192 l 2
 490 83 381 -7 272 -7 c 0
 163 -7 92 83 115 192 c 2
 154 373 l 1
 197 387 l 1
EndSplineSet
EndChar
StartChar: uni0E08
Encoding: 216 3592 232
Width: 506
VWidth: 1333
Flags: HW
HStem: 0 28G<392 432> 247 40<308 444> 500 40<225 454>
VStem: 107 397<341 366 341 341>
Fore
286 247 m 1
 308 287 l 1
 453 287 l 1
 465 341 l 2
 483 429 428 500 340 500 c 0
 252 500 166 429 147 341 c 1
 107 341 l 1
 130 451 239 540 348 540 c 0
 457 540 528 451 505 341 c 2
 432 0 l 1
 392 0 l 1
 444 247 l 1
 286 247 l 1
EndSplineSet
EndChar
StartChar: uni0E09
Encoding: 217 3593 233
Width: 506
VWidth: 1333
Flags: HW
HStem: -4 40<133 299> 237 40<87 113> 500 40<225 454>
VStem: 65 439<237 341>
Fore
392 0 m 1
 422 143 l 1
 363 64 278 -4 207 -4 c 0
 91 -4 84 93 104 195 c 2
 113 237 l 1
 65 237 l 1
 87 277 l 1
 162 277 l 1
 144 195 l 2
 119 72 152 36 214 36 c 0
 301 36 426 160 445 248 c 2
 465 341 l 2
 483 429 428 500 340 500 c 0
 252 500 166 429 147 341 c 1
 107 341 l 1
 130 451 239 540 348 540 c 0
 457 540 528 451 505 341 c 2
 432 0 l 1
 392 0 l 1
EndSplineSet
EndChar
StartChar: uni0E0A
Encoding: 218 3594 234
Width: 546
VWidth: 1333
Flags: HW
HStem: -7 40<166 395> 300 40<178 297> 389 40<365 450> 493 40<288 338>
VStem: 115 470<192 533>
Fore
115 192 m 2
 147 340 l 1
 272 340 l 2
 291 340 309 355 313 373 c 2
 338 493 l 1
 266 493 l 1
 288 533 l 1
 387 533 l 1
 365 429 l 1
 450 429 l 2
 498 429 531 468 542 516 c 2
 545 533 l 1
 585 533 l 1
 582 516 l 2
 572 471 541 431 501 408 c 1
 531 385 545 345 536 300 c 2
 513 192 l 2
 490 83 381 -7 272 -7 c 0
 163 -7 92 83 115 192 c 2
441 389 m 2
 356 389 l 1
 353 373 l 2
 344 333 304 300 264 300 c 2
 178 300 l 1
 155 192 l 2
 137 104 192 33 280 33 c 0
 368 33 454 104 473 192 c 2
 496 300 l 2
 506 348 489 389 441 389 c 2
EndSplineSet
EndChar
StartChar: uni0E0B
Encoding: 219 3595 235
Width: 546
VWidth: 1333
Flags: HW
HStem: -7 40<166 395> 300 40<178 296> 389 40<365 450>
VStem: 115 470<192 533>
Fore
365 429 m 1
 450 429 l 2
 498 429 531 468 542 516 c 2
 545 533 l 1
 585 533 l 1
 582 516 l 2
 572 471 541 431 501 408 c 1
 531 385 545 345 536 300 c 2
 513 192 l 2
 490 83 381 -7 272 -7 c 0
 163 -7 92 83 115 192 c 2
 147 340 l 1
 272 340 l 2
 291 340 309 355 313 373 c 2
 333 470 l 1
 257 397 l 1
 252 416 242 475 195 505 c 1
 222 540 l 1
 241 528 266 503 281 470 c 1
 348 533 l 1
 387 533 l 1
 365 429 l 1
178 300 m 1
 155 192 l 2
 137 104 192 33 280 33 c 0
 368 33 454 104 473 192 c 2
 496 300 l 2
 506 348 489 389 441 389 c 2
 356 389 l 1
 353 373 l 2
 344 333 304 300 264 300 c 2
 178 300 l 1
EndSplineSet
EndChar
StartChar: uni0E0C
Encoding: 220 3596 236
Width: 843
VWidth: 1333
Flags: HW
HStem: -8 40<532 712> 0 40<123 155> 500 40<283 465>
Fore
176 40 m 1x60
 155 0 l 1
 75 0 l 1x60
 127 247 l 2
 135 285 169 320 199 339 c 1
 137 376 l 1
 193 500 303 540 369 540 c 0
 479 540 549 451 526 341 c 2
 506 247 l 2
 486 153 548 32 631 32 c 0
 693 32 744 69 770 191 c 2
 843 533 l 1
 883 533 l 1
 810 191 l 2
 779 47 709 -8 622 -8 c 0xa0
 553 -8 504 57 481 132 c 1
 453 0 l 1
 413 0 l 1
 486 341 l 2
 507 441 441 500 361 500 c 0
 297 500 220 464 179 384 c 1
 245 341 l 1
 203 323 178 300 167 247 c 2
 123 40 l 1
 176 40 l 1x60
EndSplineSet
EndChar
StartChar: uni0E0D
Encoding: 221 3597 237
Width: 843
VWidth: 1333
Flags: HW
HStem: -153 39<515 668> -7 40<502 666> 0 40<123 155> 500 40<283 465>
Fore
176 40 m 1xb0
 155 0 l 1
 75 0 l 1xb0
 127 247 l 2
 135 285 169 320 199 339 c 1
 137 376 l 1
 193 500 303 540 369 540 c 0
 479 540 549 451 526 341 c 2
 494 192 l 2
 475 103 524 33 600 33 c 0
 676 33 754 103 773 192 c 2
 845 533 l 1
 883 533 l 1
 779 45 l 2
 756 -63 662 -153 561 -153 c 0
 503 -153 460 -125 437 -81 c 1
 476 -61 l 1
 495 -95 528 -115 569 -115 c 0
 645 -115 722 -45 741 44 c 2
 746 65 l 1
 705 21 649 -7 592 -7 c 0xd0
 491 -7 431 83 454 191 c 2
 486 341 l 2
 507 441 441 500 361 500 c 0
 297 500 220 464 179 384 c 1
 245 341 l 1
 203 323 178 300 167 247 c 2
 123 40 l 1
 176 40 l 1xb0
EndSplineSet
Substitution2: "Single Substitution lookup 8" uni0E0D.descless
EndChar
StartChar: uni0E0E
Encoding: 222 3598 238
Width: 527
VWidth: 1333
Flags: HW
HStem: -188 40<-12 137 374 382> 0 40<50 84> 500 40<282.9 465>
AnchorPoint: "BelowBase" 409.914 -198 basechar 0
Fore
28 0 m 1
 50 40 l 1
 84 40 l 1
 128 247 l 2
 136 285 169 320 199 339 c 1
 137 376 l 1
 193 500 303 540 370 540 c 0
 479 540 549 451 525 341 c 2
 413 -188 l 1
 355 -188 l 1
 260 -115 l 1
 141 -188 l 1
 -35 -188 l 1
 -12 -148 l 1
 137 -148 l 1
 267 -67 l 1
 374 -148 l 1
 382 -148 l 1
 485 341 l 2
 507 441 441 500 361 500 c 0
 297 500 220 464 179 384 c 1
 244 341 l 1
 204 323 179 300 168 247 c 2
 115 0 l 1
 28 0 l 1
EndSplineSet
EndChar
StartChar: uni0E0F
Encoding: 223 3599 239
Width: 527
VWidth: 1333
Flags: HW
HStem: -188 40<-12 45 377 382> 0 40<50 84> 500 40<282.9 465>
AnchorPoint: "BelowBase" 409.914 -198 basechar 0
Fore
45 -148 m 1
 139 -61 l 1
 210 -141 l 1
 310 -61 l 1
 377 -148 l 1
 382 -148 l 1
 485 341 l 2
 507 441 441 500 361 500 c 0
 297 500 220 464 179 384 c 1
 244 341 l 1
 204 323 179 300 168 247 c 2
 115 0 l 1
 28 0 l 1
 50 40 l 1
 84 40 l 1
 128 247 l 2
 136 285 169 320 199 339 c 1
 137 376 l 1
 193 500 303 540 370 540 c 0
 479 540 549 451 525 341 c 2
 413 -188 l 1
 352 -188 l 1
 298 -117 l 1
 202 -195 l 1
 132 -117 l 1
 55 -188 l 1
 -35 -188 l 1
 -12 -148 l 1
 45 -148 l 1
EndSplineSet
EndChar
StartChar: uni0E10
Encoding: 224 3600 240
Width: 522
VWidth: 1333
Flags: HW
HStem: -188 40<-18 39 371 377> 0 28G<408 448> 247 40<324 460> 500 40<241 421>
VStem: -40 587<-188 501>
Fore
377 -148 m 1
 393 -71 l 1
 362 -71 l 1
 384 -31 l 1
 441 -31 l 1
 408 -188 l 1
 347 -188 l 1
 292 -117 l 1
 196 -195 l 1
 127 -117 l 1
 49 -188 l 1
 -40 -188 l 1
 -18 -148 l 1
 39 -148 l 1
 134 -61 l 1
 205 -141 l 1
 304 -61 l 1
 371 -148 l 1
 377 -148 l 1
469 287 m 1
 481 341 l 2
 499 429 444 500 356 500 c 0
 268 500 182 429 163 341 c 1
 123 341 l 1
 146 451 255 540 364 540 c 0
 408 540 445 525 473 501 c 1
 531 535 l 1
 547 501 l 1
 498 473 l 1
 523 439 531 392 521 341 c 2
 448 0 l 1
 408 0 l 1
 460 247 l 1
 302 247 l 1
 324 287 l 1
 469 287 l 1
EndSplineSet
Substitution2: "Single Substitution lookup 8" uni0E10.descless
EndChar
StartChar: uni0E11
Encoding: 225 3601 241
Width: 546
VWidth: 1333
Flags: HW
HStem: 0 28G<75 115 432 472> 501 40<433 571>
VStem: 75 469<0 336>
Fore
75 0 m 1
 127 248 l 2
 127 248 181 310 251 376 c 1
 271 470 l 1
 194 397 l 1
 189 416 180 475 132 505 c 1
 159 540 l 1
 178 528 203 503 218 470 c 1
 285 533 l 1
 324 533 l 1
 300 423 l 1
 371 486 447 541 495 541 c 0
 599 541 564 434 543 336 c 2
 472 0 l 1
 432 0 l 1
 503 336 l 2
 521 418 551 501 487 501 c 0
 431 501 263 347 165 235 c 1
 115 0 l 1
 75 0 l 1
EndSplineSet
EndChar
StartChar: uni0E12
Encoding: 226 3602 242
Width: 870
VWidth: 1333
Flags: HW
HStem: -7 40<120 327 559 739> 284 40<257 294> 415 40<344 415>
Fore
235 284 m 1
 257 324 l 1
 294 324 l 2
 381 324 408 244 390 161 c 0
 377 97 325 -7 211 -7 c 0
 108 -7 80 117 108 251 c 0
 131 359 200 477 299 541 c 1
 324 484 353 455 381 455 c 0
 407 455 445 483 496 540 c 1
 547 499 572 435 558 367 c 2
 533 248 l 2
 513 155 575 33 658 33 c 0
 720 33 771 71 797 192 c 2
 869 533 l 1
 909 533 l 1
 837 192 l 2
 806 48 736 -7 649 -7 c 0
 580 -7 531 59 508 133 c 1
 480 0 l 1
 440 0 l 1
 518 367 l 2
 528 413 519 455 492 484 c 1
 450 441 405 415 372 415 c 0
 336 415 304 440 280 484 c 1
 214 432 167 341 148 251 c 0
 124 139 143 33 219 33 c 0
 302 33 340 113 350 161 c 0
 363 223 346 284 286 284 c 2
 235 284 l 1
EndSplineSet
EndChar
StartChar: uni0E13
Encoding: 227 3603 243
Width: 843
VWidth: 1333
Flags: HW
HStem: -8 40<483 647> 0 40<123 155> 500 40<283 465>
Fore
179 384 m 1xa0
 245 341 l 1
 203 323 178 300 167 247 c 2
 123 40 l 1
 176 40 l 1
 155 0 l 1
 75 0 l 1x60
 127 247 l 2
 135 285 169 320 199 339 c 1
 137 376 l 1
 193 500 303 540 369 540 c 0
 479 540 549 451 526 341 c 2
 494 191 l 2
 468 69 501 32 564 32 c 0xa0
 647 32 762 153 782 247 c 2
 843 533 l 1
 883 533 l 1
 769 0 l 1
 729 0 l 1x60
 757 132 l 1
 703 57 626 -8 557 -8 c 0
 470 -8 423 47 454 191 c 2
 486 341 l 2
 507 441 441 500 361 500 c 0
 297 500 220 464 179 384 c 1xa0
EndSplineSet
EndChar
StartChar: uni0E14
Encoding: 228 3604 244
Width: 554
VWidth: 1333
Flags: HW
HStem: -7 40<122 309> 284 40<257 294> 500 40<219 499>
VStem: 108 445<251 341>
Fore
235 284 m 1
 257 324 l 1
 294 324 l 2
 381 324 408 244 390 161 c 0
 371 71 307 -7 211 -7 c 0
 109 -7 78 112 108 251 c 0
 137 387 239 540 393 540 c 0
 503 540 576 451 553 341 c 2
 480 0 l 1
 440 0 l 1
 513 341 l 2
 531 429 473 500 385 500 c 0
 257 500 173 368 148 251 c 0
 123 133 144 33 219 33 c 0
 288 33 336 92 350 161 c 0
 363 223 346 284 286 284 c 2
 235 284 l 1
EndSplineSet
EndChar
StartChar: uni0E15
Encoding: 229 3605 245
Width: 554
VWidth: 1333
Flags: HW
HStem: -7 40<120 327> 284 40<257 294> 415 40<344 415>
VStem: 108 450<251 367>
Fore
235 284 m 1
 257 324 l 1
 294 324 l 2
 381 324 408 244 390 161 c 0
 377 97 325 -7 211 -7 c 0
 108 -7 80 117 108 251 c 0
 131 359 200 477 299 541 c 1
 324 484 353 455 381 455 c 0
 407 455 445 483 496 540 c 1
 547 499 572 435 558 367 c 2
 480 0 l 1
 440 0 l 1
 518 367 l 2
 528 413 519 455 492 484 c 1
 450 441 405 415 372 415 c 0
 336 415 304 440 280 484 c 1
 214 432 167 341 148 251 c 0
 124 139 143 33 219 33 c 0
 302 33 340 113 350 161 c 0
 363 223 346 284 286 284 c 2
 235 284 l 1
EndSplineSet
EndChar
StartChar: uni0E16
Encoding: 230 3606 246
Width: 527
VWidth: 1333
Flags: HW
HStem: 0 40<123 155> 500 40<283 465>
VStem: 75 451<0 341>
Fore
179 384 m 1
 245 341 l 1
 203 323 178 300 167 247 c 2
 123 40 l 1
 176 40 l 1
 155 0 l 1
 75 0 l 1
 127 247 l 2
 135 285 169 320 199 339 c 1
 137 376 l 1
 193 500 303 540 369 540 c 0
 479 540 549 451 526 341 c 2
 453 0 l 1
 413 0 l 1
 486 341 l 2
 507 441 441 500 361 500 c 0
 297 500 220 464 179 384 c 1
EndSplineSet
EndChar
StartChar: uni0E17
Encoding: 231 3607 247
Width: 546
VWidth: 1333
Flags: HW
HStem: 0 28G<75 115 432 472> 500 40<333 543>
VStem: 75 470<0 341>
Fore
75 0 m 1
 188 533 l 1
 228 533 l 1
 196 384 l 1
 260 465 355 540 428 540 c 0
 540 540 567 449 545 341 c 2
 472 0 l 1
 432 0 l 1
 505 341 l 2
 520 415 514 500 420 500 c 0
 336 500 195 376 175 285 c 2
 115 0 l 1
 75 0 l 1
EndSplineSet
EndChar
StartChar: uni0E18
Encoding: 232 3608 248
Width: 546
VWidth: 1333
Flags: HW
HStem: 0 40<123 282> 247 40<176 484> 500 40<265 494>
VStem: 75 470<0 341>
Fore
75 0 m 1
 118 203 l 1
 158 203 l 1
 123 40 l 1
 282 40 l 2
 370 40 456 111 474 199 c 2
 484 247 l 1
 127 247 l 1
 147 341 l 2
 170 451 279 540 388 540 c 0
 497 540 568 451 545 341 c 1
 505 341 l 1
 523 429 468 500 380 500 c 0
 292 500 206 429 187 341 c 2
 176 287 l 1
 533 287 l 1
 514 199 l 2
 491 89 383 0 273 0 c 2
 75 0 l 1
EndSplineSet
EndChar
StartChar: uni0E19
Encoding: 233 3609 249
Width: 546
VWidth: 1333
Flags: HW
HStem: -4 40<118 326>
VStem: 116 469<195 533>
Fore
188 533 m 1
 228 533 l 1
 156 195 l 2
 140 121 146 36 241 36 c 0
 328 36 466 160 485 248 c 2
 545 533 l 1
 585 533 l 1
 472 0 l 1
 432 0 l 1
 464 149 l 1
 400 68 304 -4 232 -4 c 0
 120 -4 93 87 116 195 c 2
 188 533 l 1
EndSplineSet
EndChar
StartChar: uni0E1A
Encoding: 234 3610 250
Width: 546
VWidth: 1333
Flags: HW
HStem: -7 40<166 395>
VStem: 115 470<192 533>
Fore
188 533 m 1
 228 533 l 1
 155 192 l 2
 137 104 192 33 280 33 c 0
 368 33 454 104 473 192 c 1
 545 533 l 1
 585 533 l 1
 513 192 l 2
 490 83 381 -7 272 -7 c 0
 163 -7 92 83 115 192 c 2
 188 533 l 1
EndSplineSet
EndChar
StartChar: uni0E1B
Encoding: 235 3611 251
Width: 546
VWidth: 1333
Flags: HW
HStem: -7 40<165.6 394.4> 647 20G<574 614>
VStem: 116 498<192 667>
AnchorPoint: "AboveBase" 505.732 568 basechar 0
Fore
188 533 m 1
 228 533 l 1
 156 192 l 2
 137 104 192 33 280 33 c 0
 368 33 454 104 473 192 c 2
 574 667 l 1
 614 667 l 1
 513 192 l 2
 490 83 382 -7 272 -7 c 0
 163 -7 93 83 116 192 c 2
 188 533 l 1
EndSplineSet
EndChar
StartChar: uni0E1C
Encoding: 236 3612 252
Width: 586
VWidth: 1333
Flags: HW
HStem: -7 40<122 242 334 476> 495 40<220 302>
VStem: 111 515<264 533>
Fore
384 533 m 1
 423 533 l 1
 342 152 l 2
 330 96 332 33 398 33 c 0
 463 33 492 96 504 152 c 2
 585 533 l 1
 625 533 l 1
 544 152 l 2
 521 41 456 -7 389 -7 c 0
 347 -7 316 27 304 69 c 1
 274 27 229 -7 187 -7 c 0
 107 -7 76 103 111 264 c 0
 145 424 222 535 302 535 c 1
 293 495 l 1
 237 495 177 388 151 264 c 0
 124 140 139 33 195 33 c 0
 267 33 295 115 303 152 c 2
 384 533 l 1
EndSplineSet
EndChar
StartChar: uni0E1D
Encoding: 237 3613 253
Width: 586
VWidth: 1333
Flags: HW
HStem: -7 40<122.2 242.9 334.1 475.8> 495 40<220.2 302> 647 20G<614 654>
AnchorPoint: "AboveBase" 545.732 568 basechar 0
Fore
384 533 m 1
 422 533 l 1
 341 152 l 2
 329 96 332 33 398 33 c 0
 463 33 492 96 504 152 c 2
 614 667 l 1
 654 667 l 1
 544 152 l 2
 521 41 456 -7 390 -7 c 0
 347 -7 317 27 304 69 c 1
 274 27 230 -7 187 -7 c 0
 107 -7 77 103 111 264 c 0
 145 424 222 535 302 535 c 1
 293 495 l 1
 237 495 177 388 151 264 c 0
 125 140 139 33 195 33 c 0
 267 33 295 115 303 152 c 2
 384 533 l 1
EndSplineSet
EndChar
StartChar: uni0E1E
Encoding: 238 3614 254
Width: 610
VWidth: 1333
Flags: HW
HStem: -7 40<117 256 352 499>
VStem: 107 542<152 533>
Fore
188 533 m 1
 228 533 l 1
 147 152 l 2
 135 96 138 33 206 33 c 0
 279 33 309 109 318 152 c 2
 399 533 l 1
 439 533 l 1
 358 152 l 2
 346 96 350 33 418 33 c 0
 486 33 516 96 528 152 c 2
 609 533 l 1
 649 533 l 1
 568 152 l 2
 545 41 479 -7 409 -7 c 0
 365 -7 334 27 320 71 c 1
 288 27 243 -7 199 -7 c 0
 129 -7 83 41 107 152 c 2
 188 533 l 1
EndSplineSet
EndChar
StartChar: uni0E1F
Encoding: 239 3615 255
Width: 610
VWidth: 1333
Flags: HW
HStem: -7 40<117.6 256.2 352.8 499.7> 647 20G<638 678>
AnchorPoint: "AboveBase" 569.732 568 basechar 0
Fore
188 533 m 1
 228 533 l 1
 147 152 l 2
 135 96 138 33 206 33 c 0
 279 33 308 109 317 152 c 2
 398 533 l 1
 438 533 l 1
 357 152 l 2
 345 96 350 33 418 33 c 0
 486 33 516 96 528 152 c 2
 638 667 l 1
 678 667 l 1
 568 152 l 2
 545 41 479 -7 410 -7 c 0
 366 -7 334 27 320 71 c 1
 289 27 243 -7 199 -7 c 0
 130 -7 84 41 107 152 c 2
 188 533 l 1
EndSplineSet
EndChar
StartChar: uni0E20
Encoding: 240 3616 256
Width: 527
VWidth: 1333
Flags: HW
HStem: 0 40<50 83> 500 40<283 465>
VStem: 28 498<0 341>
Fore
179 384 m 1
 245 341 l 1
 203 323 178 300 167 247 c 2
 115 0 l 1
 28 0 l 1
 50 40 l 1
 83 40 l 1
 127 247 l 2
 135 285 169 320 199 339 c 1
 137 376 l 1
 193 500 303 540 369 540 c 0
 479 540 549 451 526 341 c 2
 453 0 l 1
 413 0 l 1
 486 341 l 2
 507 441 441 500 361 500 c 0
 297 500 220 464 179 384 c 1
EndSplineSet
EndChar
StartChar: uni0E21
Encoding: 241 3617 257
Width: 546
VWidth: 1333
Flags: HW
HStem: -7 40<217 443>
VStem: 75 511<0 533>
Fore
188 533 m 1
 228 533 l 1
 167 248 l 2
 148 157 236 33 320 33 c 0
 415 33 457 119 473 192 c 2
 545 533 l 1
 585 533 l 1
 513 192 l 2
 490 84 424 -7 312 -7 c 0
 239 -7 176 68 146 149 c 1
 115 0 l 1
 75 0 l 1
 188 533 l 1
EndSplineSet
EndChar
StartChar: uni0E22
Encoding: 242 3618 258
Width: 533
VWidth: 1333
Flags: HW
HStem: -7 40<151 383> 316 35<177 202 211 327> 495 40<259 374>
VStem: 93 479<179 533>
Fore
533 533 m 1
 572 533 l 1
 497 179 l 2
 473 68 367 -7 259 -7 c 0
 151 -7 68 64 93 179 c 0
 107 248 166 300 219 316 c 1
 128 316 l 1
 133 336 l 2
 156 445 264 535 374 535 c 1
 365 495 l 1
 284 495 204 435 178 356 c 2
 177 351 l 1
 348 351 l 1
 327 316 l 1
 238 316 152 261 134 179 c 0
 116 92 178 33 268 33 c 0
 356 33 440 92 458 179 c 2
 533 533 l 1
EndSplineSet
EndChar
StartChar: uni0E23
Encoding: 243 3619 259
Width: 546
VWidth: 1333
Flags: HW
HStem: -7 40<272 395> 247 40<176 484> 500 40<265 494>
VStem: 127 417<247 341>
CounterMasks: 1 00
Fore
533 287 m 1
 513 192 l 2
 490 83 381 -7 272 -7 c 1
 280 33 l 1
 368 33 454 104 473 192 c 2
 484 247 l 1
 127 247 l 1
 147 341 l 2
 170 451 279 540 388 540 c 0
 497 540 568 451 545 341 c 1
 505 341 l 1
 523 429 468 500 380 500 c 0
 292 500 206 429 187 341 c 2
 176 287 l 1
 533 287 l 1
EndSplineSet
EndChar
StartChar: uni0E24
Encoding: 244 3620 260
Width: 527
VWidth: 1333
Flags: HW
HStem: 0 40<123 155> 500 40<283 465>
VStem: 75 451<0 341>
Fore
179 384 m 1
 245 341 l 1
 203 323 178 300 167 247 c 2
 123 40 l 1
 176 40 l 1
 155 0 l 1
 75 0 l 1
 127 247 l 2
 135 285 169 320 199 339 c 1
 137 376 l 1
 193 500 303 540 369 540 c 0
 479 540 549 451 526 341 c 2
 410 -203 l 1
 370 -203 l 1
 486 341 l 2
 507 441 441 500 361 500 c 0
 297 500 220 464 179 384 c 1
EndSplineSet
EndChar
StartChar: uni0E25
Encoding: 245 3621 261
Width: 546
VWidth: 1333
Flags: HW
HStem: -7 40<166 280> 247 40<167 484> 500 40<265 494>
VStem: 115 429<192 341>
CounterMasks: 1 00
Fore
432 0 m 1
 484 247 l 1
 167 247 l 1
 155 192 l 2
 137 104 192 33 280 33 c 1
 272 -7 l 1
 163 -7 92 83 115 192 c 2
 136 287 l 1
 493 287 l 1
 505 341 l 2
 523 429 468 500 380 500 c 0
 292 500 206 429 187 341 c 1
 147 341 l 1
 170 451 279 540 388 540 c 0
 497 540 568 451 545 341 c 2
 472 0 l 1
 432 0 l 1
EndSplineSet
EndChar
StartChar: uni0E26
Encoding: 246 3622 262
Width: 527
VWidth: 1333
Flags: HW
HStem: 0 40<50 83> 500 40<283 465>
VStem: 28 498<0 341>
Fore
179 384 m 1
 245 341 l 1
 203 323 178 300 167 247 c 2
 115 0 l 1
 28 0 l 1
 50 40 l 1
 83 40 l 1
 127 247 l 2
 135 285 169 320 199 339 c 1
 137 376 l 1
 193 500 303 540 369 540 c 0
 479 540 549 451 526 341 c 2
 410 -203 l 1
 370 -203 l 1
 486 341 l 2
 507 441 441 500 361 500 c 0
 297 500 220 464 179 384 c 1
EndSplineSet
EndChar
StartChar: uni0E27
Encoding: 247 3623 263
Width: 542
VWidth: 1333
Flags: HW
HStem: -7 40<181 398> 500 40<277 497>
VStem: 86 42<41 160>
Fore
86 149 m 1
 128 165 l 1
 140 75 202 33 270 33 c 0
 368 33 477 136 505 268 c 0
 533 400 468 500 369 500 c 0
 298 500 223 448 176 369 c 1
 142 384 l 1
 196 475 285 540 377 540 c 0
 504 540 576 415 545 267 c 0
 513 119 388 -7 261 -7 c 0
 168 -7 99 52 86 149 c 1
EndSplineSet
EndChar
StartChar: uni0E28
Encoding: 248 3624 264
Width: 546
VWidth: 1333
Flags: HW
HStem: 0 28G<75 115 432 472> 247 40<176 312> 501 40<265 449>
VStem: 75 506<0 512>
Fore
432 0 m 1
 505 341 l 2
 523 429 468 501 380 501 c 0
 292 501 206 429 187 341 c 2
 176 287 l 1
 334 287 l 1
 312 247 l 1
 167 247 l 1
 115 0 l 1
 75 0 l 1
 147 343 l 2
 171 452 279 541 388 541 c 0
 435 541 474 525 502 499 c 1
 559 540 l 1
 581 512 l 1
 525 471 l 1
 547 436 555 391 545 341 c 2
 472 0 l 1
 432 0 l 1
EndSplineSet
EndChar
StartChar: uni0E29
Encoding: 249 3625 265
Width: 545
VWidth: 1333
Flags: HW
HStem: -7 40<165 393> 299 40<361 494 543 567>
VStem: 115 474<192 339>
Fore
188 533 m 1
 228 533 l 1
 155 192 l 2
 137 104 191 33 279 33 c 0
 367 33 453 104 471 192 c 2
 494 299 l 1
 313 299 l 1
 326 361 l 1
 369 375 l 1
 361 339 l 1
 503 339 l 1
 544 533 l 1
 584 533 l 1
 543 339 l 1
 589 339 l 1
 567 299 l 1
 535 299 l 1
 513 192 l 2
 490 83 381 -7 272 -7 c 0
 163 -7 92 83 115 192 c 2
 188 533 l 1
EndSplineSet
EndChar
StartChar: uni0E2A
Encoding: 250 3626 266
Width: 546
VWidth: 1333
Flags: HW
HStem: -7 40<166 280> 247 40<167 484> 500 41<265 449>
VStem: 115 465<192 512>
Fore
187 343 m 1
 147 343 l 1
 171 452 279 541 388 541 c 0
 435 541 474 525 502 499 c 1
 559 540 l 1
 581 512 l 1
 525 471 l 1
 547 436 555 391 545 341 c 2
 472 0 l 1
 432 0 l 1
 484 247 l 1
 167 247 l 1
 155 192 l 2
 137 104 192 33 280 33 c 1
 272 -7 l 1
 163 -7 92 83 115 192 c 2
 136 287 l 1
 493 287 l 1
 505 341 l 2
 523 429 468 500 380 500 c 0
 292 500 206 431 187 343 c 1
EndSplineSet
EndChar
StartChar: uni0E2B
Encoding: 251 3627 267
Width: 546
VWidth: 1333
Flags: HW
HStem: 0 28G<75 115 432 472> 424 31<402 522>
VStem: 75 501<0 515>
Fore
188 533 m 1
 228 533 l 1
 176 287 l 1
 253 404 436 516 523 535 c 1
 576 515 l 1
 522 505 466 480 426 455 c 1
 521 455 548 357 526 256 c 2
 472 0 l 1
 432 0 l 1
 486 256 l 2
 502 329 494 424 402 424 c 0
 333 424 172 263 152 176 c 2
 115 0 l 1
 75 0 l 1
 188 533 l 1
EndSplineSet
EndChar
StartChar: uni0E2C
Encoding: 252 3628 268
Width: 610
VWidth: 1333
Flags: HW
HStem: -7 40<118.6 256.2 352.8 499.7> 493 40<480 590.4>
AnchorPoint: "AboveBase" 569.732 568 basechar 0
Fore
317 152 m 2
 398 533 l 1
 438 533 l 1
 357 152 l 2
 345 96 350 33 418 33 c 0
 486 33 516 96 528 152 c 2
 583 407 l 2
 593 455 576 493 528 493 c 2
 472 493 l 1
 480 533 l 1
 536 533 l 2
 584 533 618 572 628 620 c 2
 629 627 l 1
 669 627 l 1
 668 620 l 2
 658 575 627 535 588 512 c 1
 617 489 631 449 622 404 c 2
 568 152 l 2
 545 41 479 -7 410 -7 c 0
 366 -7 331 13 317 57 c 1
 286 13 243 -7 199 -7 c 0
 130 -7 84 41 107 152 c 2
 188 533 l 1
 228 533 l 1
 147 152 l 2
 135 96 139 33 207 33 c 0
 280 33 308 109 317 152 c 2
EndSplineSet
EndChar
StartChar: uni0E2D
Encoding: 253 3629 269
Width: 594
VWidth: 1333
Flags: HW
HStem: -5 40<168 445> 247 40<147 335> 499 40<285 545>
VStem: 111 485<242 285 267 267>
CounterMasks: 1 00
Fore
358 287 m 1
 335 247 l 1
 147 247 l 1
 131 127 199 35 303 35 c 0
 413 35 527 137 554 267 c 0
 581 396 513 499 403 499 c 0
 313 499 223 443 178 349 c 1
 142 360 l 1
 196 472 304 539 412 539 c 0
 548 539 628 415 597 267 c 0
 565 119 432 -5 296 -5 c 0
 160 -5 80 119 111 267 c 2
 116 287 l 1
 358 287 l 1
EndSplineSet
EndChar
StartChar: uni0E2E
Encoding: 254 3630 270
Width: 594
VWidth: 1333
Flags: HW
HStem: -5 40<168 445> 247 40<147 335> 499 40<285 474>
VStem: 111 498<267 508>
CounterMasks: 1 00
Fore
358 287 m 1
 335 247 l 1
 147 247 l 1
 131 127 199 35 303 35 c 0
 413 35 527 137 554 267 c 0
 581 396 513 499 403 499 c 0
 313 499 223 443 178 349 c 1
 142 360 l 1
 196 472 304 539 412 539 c 0
 460 539 500 523 532 497 c 1
 586 535 l 1
 609 508 l 1
 557 471 l 1
 598 421 614 347 597 267 c 0
 565 119 432 -5 296 -5 c 0
 160 -5 80 119 111 267 c 2
 116 287 l 1
 358 287 l 1
EndSplineSet
EndChar
StartChar: uni0E2F
Encoding: 255 3631 271
Width: 503
VWidth: 1333
Flags: HW
HStem: 0 28G<389 429> 343 40<222 378> 501 40<218 294>
VStem: 147 396<435 533>
Fore
389 0 m 1
 487 459 l 1
 438 409 349 343 253 343 c 0
 194 343 134 375 147 435 c 0
 159 491 227 541 294 541 c 1
 285 501 l 1
 233 501 192 463 186 435 c 0
 177 393 237 383 260 383 c 0
 375 383 488 504 503 533 c 1
 543 533 l 1
 429 0 l 1
 389 0 l 1
EndSplineSet
EndChar
StartChar: uni0E30
Encoding: 256 3632 272
Width: 270
VWidth: 1333
Flags: HW
HStem: 53 40<135 231> 388 40<206 302>
VStem: 86 238<53 428>
Fore
206 428 m 1
 324 428 l 1
 302 388 l 1
 157 388 l 1
 174 467 l 1
 217 480 l 1
 206 428 l 1
135 93 m 1
 253 93 l 1
 231 53 l 1
 86 53 l 1
 103 132 l 1
 146 145 l 1
 135 93 l 1
EndSplineSet
EndChar
StartChar: uni0E31
Encoding: 257 3633 273
Width: 0
VWidth: 1333
Flags: HW
HStem: 603 40<-70 227>
VStem: -119 381<603 643>
AnchorPoint: "AboveBase" 45.7324 568 mark 0
AnchorPoint: "AboveMark" 62.292 740 basemark 0
Fore
-70 643 m 1
 262 643 l 1
 227 603 l 1
 -119 603 l 1
 -102 681 l 1
 -59 695 l 1
 -70 643 l 1
EndSplineSet
EndChar
StartChar: uni0E32
Encoding: 258 3634 274
Width: 394
VWidth: 1333
Flags: HW
HStem: 0 28G<280 320> 500 40<229 391>
VStem: 150 242<341 451>
Fore
280 0 m 1
 353 341 l 2
 368 415 362 500 268 500 c 0
 234 500 191 480 150 451 c 1
 160 496 l 1
 199 523 240 540 276 540 c 0
 388 540 415 449 393 341 c 2
 320 0 l 1
 280 0 l 1
EndSplineSet
EndChar
StartChar: uni0E33
Encoding: 259 3635 275
Width: 394
VWidth: 1333
Flags: HW
HStem: 0 28G<280 320> 500 40<229 391> 588 31<25 70> 680 31<38 83>
VStem: -7 400<341 649>
Fore
280 0 m 1
 353 341 l 2
 368 415 362 500 268 500 c 0
 234 500 191 480 150 451 c 1
 160 496 l 1
 199 523 240 540 276 540 c 0
 388 540 415 449 393 341 c 2
 320 0 l 1
 280 0 l 1
67 711 m 0
 100 711 122 683 115 649 c 0
 108 616 74 588 41 588 c 0
 8 588 -14 616 -7 649 c 0
 -0 683 34 711 67 711 c 0
23 649 m 0
 20 632 30 619 48 619 c 0
 65 619 81 632 85 649 c 0
 88 667 78 680 61 680 c 0
 43 680 27 667 23 649 c 0
EndSplineSet
MultipleSubs2: "Multiple Substitution lookup 7" uni0E4D uni0E32
Substitution2: "Single Substitution lookup 6" uni0E32
LCarets2: 1 0 
EndChar
StartChar: uni0E34
Encoding: 260 3636 276
Width: 0
VWidth: 1333
Flags: HW
HStem: 603 40<-287 53>
VStem: -323 385<603 643>
AnchorPoint: "AboveMark" 62.292 740 basemark 0
AnchorPoint: "AboveBase" 45.7324 568 mark 0
Fore
62 643 m 1
 53 603 l 1
 -323 603 l 1
 -287 643 l 1
 62 643 l 1
EndSplineSet
LCarets2: 1 0 
EndChar
StartChar: uni0E35
Encoding: 261 3637 277
Width: 0
VWidth: 1333
Flags: HW
HStem: 603 40<-287 22>
VStem: -323 396<603 695>
AnchorPoint: "AboveMark" 62.292 740 basemark 0
AnchorPoint: "AboveBase" 45.7324 568 mark 0
Fore
22 643 m 1
 33 695 l 1
 73 695 l 1
 53 603 l 1
 -323 603 l 1
 -287 643 l 1
 22 643 l 1
EndSplineSet
LCarets2: 1 0 
EndChar
StartChar: uni0E36
Encoding: 262 3638 278
Width: 0
VWidth: 1333
Flags: HW
HStem: 603 40<-287 -16> 603 30<16.9 61.1> 695 30<29.9 74.1>
AnchorPoint: "AboveMark" 62.292 740 basemark 0
AnchorPoint: "AboveBase" 45.7324 568 mark 0
Fore
58 725 m 0xa0
 91 725 113 697 106 664 c 0
 99 631 65 603 32 603 c 2
 -323 603 l 1x60
 -287 643 l 1
 -16 643 l 1
 -18 649 -18 656 -16 664 c 0
 -9 697 25 725 58 725 c 0xa0
14 664 m 0
 11 647 22 633 39 633 c 0
 56 633 73 647 76 664 c 0
 80 681 69 695 52 695 c 0
 35 695 18 681 14 664 c 0
EndSplineSet
EndChar
StartChar: uni0E37
Encoding: 263 3639 279
Width: 0
VWidth: 1333
Flags: HW
HStem: 603 92<-53 -24 33 53> 603 40<-287 -64 -24 22>
VStem: -323 396<603 695>
AnchorPoint: "AboveMark" 19.292 740 basemark 0
AnchorPoint: "AboveBase" 45.7324 568 mark 0
Fore
22 643 m 1x60
 33 695 l 1
 73 695 l 1
 53 603 l 1xa0
 -323 603 l 1
 -287 643 l 1
 -64 643 l 1x60
 -53 695 l 1
 -13 695 l 1xa0
 -24 643 l 1
 22 643 l 1x60
EndSplineSet
EndChar
StartChar: uni0E38
Encoding: 264 3640 280
Width: 0
VWidth: 1333
Flags: HW
HStem: -96 40<-161 -135>
VStem: -183 96<-96 -56>
AnchorPoint: "BelowBase" -83.0771 -38 mark 0
Fore
-161 -56 m 1
 -87 -56 l 1
 -120 -212 l 1
 -160 -212 l 1
 -135 -96 l 1
 -183 -96 l 1
 -161 -56 l 1
EndSplineSet
EndChar
StartChar: uni0E39
Encoding: 265 3641 281
Width: 0
VWidth: 1333
Flags: HW
HStem: -219 40<-264.8 -171.2>
VStem: -341 254<-96 -56>
AnchorPoint: "BelowBase" -83.0771 -38 mark 0
Fore
-320 -56 m 1
 -257 -56 l 1
 -269 -113 l 2
 -277 -149 -254 -179 -218 -179 c 0
 -182 -179 -147 -149 -139 -113 c 2
 -127 -56 l 1
 -87 -56 l 1
 -99 -113 l 2
 -112 -172 -168 -219 -227 -219 c 0
 -286 -219 -322 -172 -309 -113 c 2
 -305 -96 l 1
 -341 -96 l 1
 -320 -56 l 1
EndSplineSet
EndChar
StartChar: uni0E3A
Encoding: 266 3642 282
Width: 0
VWidth: 1333
Flags: HW
AnchorPoint: "BelowBase" -83.0771 -38 mark 0
Fore
-145 -81 m 0
 -141 -63 -123 -48 -105 -48 c 0
 -86 -48 -74 -63 -78 -81 c 0
 -82 -100 -100 -115 -119 -115 c 0
 -137 -115 -149 -100 -145 -81 c 0
EndSplineSet
EndChar
StartChar: uni0E3F
Encoding: 267 3647 283
Width: 545
VWidth: 1333
Flags: HW
HStem: 0 40<112 207 256 434> 355 40<188 283 332 375> 627 40<237 341 390 432>
VStem: 64 505<0 507>
Fore
390 667 m 1
 432 667 l 2
 526 667 588 595 569 507 c 0
 557 451 515 403 461 375 c 1
 531 345 570 277 552 196 c 0
 529 87 413 0 296 0 c 2
 247 0 l 1
 232 -67 l 1
 192 -67 l 1
 207 0 l 1
 64 0 l 1
 206 667 l 1
 350 667 l 1
 364 733 l 1
 404 733 l 1
 390 667 l 1
381 627 m 1
 332 395 l 1
 375 395 l 2
 449 395 517 445 531 508 c 0
 544 571 499 627 424 627 c 2
 381 627 l 1
256 40 m 1
 306 40 l 2
 404 40 496 113 514 197 c 0
 532 281 471 355 373 355 c 2
 323 355 l 1
 256 40 l 1
292 395 m 1
 341 627 l 1
 237 627 l 1
 188 395 l 1
 292 395 l 1
216 40 m 1
 283 355 l 1
 179 355 l 1
 112 40 l 1
 216 40 l 1
EndSplineSet
EndChar
StartChar: uni0E40
Encoding: 268 3648 284
Width: 189
VWidth: 1333
Flags: HW
HStem: 0 533<115 188>
VStem: 75 153<0 533>
Fore
115 0 m 1
 75 0 l 1
 188 533 l 1
 228 533 l 1
 115 0 l 1
EndSplineSet
EndChar
StartChar: uni0E41
Encoding: 269 3649 285
Width: 309
VWidth: 1333
Flags: HW
HStem: 0 533<115 188>
VStem: 75 273<0 533>
Fore
115 0 m 1
 75 0 l 1
 188 533 l 1
 228 533 l 1
 115 0 l 1
235 0 m 1
 195 0 l 1
 308 533 l 1
 348 533 l 1
 235 0 l 1
EndSplineSet
EndChar
StartChar: uni0E42
Encoding: 270 3650 286
Width: 189
VWidth: 1333
Flags: HW
HStem: 0 40<123 149> 748 40<207 418>
VStem: 75 365<0 788>
Fore
75 0 m 1
 200 589 l 2
 216 663 210 748 115 748 c 5
 137 788 l 1
 439 788 l 1
 418 748 l 1
 207 748 l 1
 243 717 254 653 240 589 c 2
 123 40 l 1
 171 40 l 1
 149 0 l 1
 75 0 l 1
EndSplineSet
EndChar
StartChar: uni0E43
Encoding: 271 3651 287
Width: 211
VWidth: 1333
Flags: HW
HStem: 0 40<146 167> 753 41<189 299>
VStem: 97 251<0 689>
Fore
97 0 m 1
 212 539 l 2
 233 637 299 647 308 688 c 0
 313 715 285 753 239 753 c 2
 237 753 l 2
 189 753 147 717 142 688 c 1
 102 688 l 1
 112 741 179 793 245 795 c 2
 246 795 l 2
 313 795 359 740 348 689 c 0
 334 624 270 624 252 540 c 2
 146 40 l 1
 188 40 l 1
 167 0 l 1
 97 0 l 1
EndSplineSet
EndChar
StartChar: uni0E44
Encoding: 272 3652 288
Width: 195
VWidth: 1333
Flags: HW
HStem: 0 40<130 153> 749 40<231 307>
VStem: 81 285<0 789>
Fore
81 0 m 1
 210 604 l 2
 224 669 269 715 307 749 c 1
 231 749 l 1
 169 684 l 1
 115 747 l 1
 126 801 l 1
 180 741 l 1
 222 789 l 1
 366 789 l 1
 359 753 l 1
 315 723 266 679 249 603 c 2
 130 40 l 1
 175 40 l 1
 153 0 l 1
 81 0 l 1
EndSplineSet
EndChar
StartChar: uni0E45
Encoding: 273 3653 289
Width: 394
VWidth: 1333
Flags: HW
HStem: 500 40<229 391>
VStem: 150 242<341 451>
Fore
237 -203 m 1
 353 341 l 2
 368 415 362 500 268 500 c 0
 234 500 191 480 150 451 c 1
 160 496 l 1
 199 523 240 540 276 540 c 0
 388 540 415 449 393 341 c 2
 277 -203 l 1
 237 -203 l 1
EndSplineSet
EndChar
StartChar: uni0E46
Encoding: 274 3654 290
Width: 526
VWidth: 1333
Flags: HW
HStem: 259 40<166 284> 413 43<327 378>
VStem: 138 393<366 392 368 391>
Fore
369 -203 m 1
 490 365 l 2
 500 412 487 453 461 483 c 1
 423 443 383 413 341 413 c 0
 299 413 269 444 247 485 c 1
 208 465 183 428 175 391 c 0
 165 343 183 299 241 299 c 0
 251 299 264 300 278 303 c 1
 279 264 l 1
 262 260 247 259 234 259 c 0
 152 259 123 323 138 391 c 0
 150 447 192 507 258 532 c 2
 274 539 l 1
 281 525 l 2
 307 465 334 456 352 456 c 0
 369 456 400 465 452 525 c 2
 466 543 l 1
 481 531 l 2
 524 495 544 435 530 368 c 2
 409 -203 l 1
 369 -203 l 1
EndSplineSet
EndChar
StartChar: uni0E47
Encoding: 275 3655 291
Width: 0
VWidth: 1333
Flags: HW
HStem: 593 41<-25.9045 34.8773> 603 40<-236.2 -192> 725 40<-170 103>
VStem: -278 404<684 765>
AnchorPoint: "AboveMark" -132.268 568 mark 0
AnchorPoint: "AboveBase" 45.7324 568 mark 0
Fore
103 725 m 1x70
 -170 725 l 2
 -209 725 -235 701 -239 683 c 0
 -243 665 -226 644 -192 643 c 1x70
 -110 689 l 1
 -31 641 l 2
 -19 636 -6 634 7 634 c 0xb0
 20 634 33 636 47 640 c 1
 53 603 l 1x70
 35 597 16 593 -2 593 c 0xb0
 -21 593 -39 597 -54 605 c 2
 -116 644 l 1
 -189 603 l 1
 -195 603 l 2
 -244 603 -288 635 -278 684 c 0
 -267 733 -209 765 -160 765 c 2
 126 765 l 1
 103 725 l 1x70
EndSplineSet
EndChar
StartChar: uni0E48
Encoding: 276 3656 292
Width: 0
VWidth: 1333
Flags: HW
VStem: 45 63<752 861>
AnchorPoint: "AboveMark" 62.292 740 mark 0
Fore
85 752 m 1
 45 752 l 1
 68 861 l 1
 108 861 l 1
 85 752 l 1
EndSplineSet
MultipleSubs2: "Multiple Substitution lookup 5" uni0E4D uni0E48
Substitution2: "Single Substitution lookup 4" uni0E48.low
LCarets2: 1 0 
EndChar
StartChar: uni0E49
Encoding: 277 3657 293
Width: 0
VWidth: 1333
Flags: HW
HStem: 752 40<13 161> 820 40<-53 -17.6>
VStem: -75 258<792 820>
AnchorPoint: "AboveMark" 62.292 740 mark 0
Fore
-35 752 m 1
 -25 800 l 2
 -23 807 -23 819 -41 820 c 2
 -75 820 l 1
 -53 860 l 1
 -32 860 l 2
 20 860 18 816 15 800 c 2
 13 792 l 1
 183 792 l 1
 161 752 l 1
 -35 752 l 1
EndSplineSet
MultipleSubs2: "Multiple Substitution lookup 5" uni0E4D uni0E49
Substitution2: "Single Substitution lookup 4" uni0E49.low
EndChar
StartChar: uni0E4A
Encoding: 278 3658 294
Width: 0
VWidth: 1333
Flags: HW
HStem: 753 40<-45.1 -23 204 313> 851 40<-39.1 74.5>
VStem: -86 421<792 820>
AnchorPoint: "AboveMark" 62.292 740 mark 0
Fore
156 752 m 1
 174 837 l 1
 64 767 l 1
 62 800 61 851 9 851 c 0
 -28 851 -42 832 -45 820 c 0
 -47 807 -40 793 -23 793 c 2
 -14 793 l 1
 -23 753 l 1
 -32 753 l 2
 -73 753 -93 787 -86 820 c 0
 -78 856 -42 891 16 891 c 0
 61 891 87 864 93 828 c 1
 174 879 l 1
 223 879 l 1
 204 792 l 1
 335 792 l 1
 313 752 l 1
 156 752 l 1
EndSplineSet
MultipleSubs2: "Multiple Substitution lookup 5" uni0E4D uni0E4A
Substitution2: "Single Substitution lookup 4" uni0E4A.low
EndChar
StartChar: uni0E4B
Encoding: 279 3659 295
Width: 0
VWidth: 1333
Flags: HW
HStem: 793 38<24 54 102 132>
VStem: 16 125<793 832>
AnchorPoint: "AboveMark" 62.292 740 mark 0
Fore
16 793 m 1
 24 831 l 1
 62 831 l 1
 70 872 l 1
 110 872 l 1
 102 832 l 1
 141 832 l 1
 132 792 l 1
 93 792 l 1
 85 752 l 1
 45 752 l 1
 54 793 l 1
 16 793 l 1
EndSplineSet
MultipleSubs2: "Multiple Substitution lookup 5" uni0E4D uni0E4B
Substitution2: "Single Substitution lookup 4" uni0E4B.low
EndChar
StartChar: uni0E4C
Encoding: 280 3660 296
Width: 0
VWidth: 1333
Flags: HW
HStem: 801 40<115 183>
VStem: 45 161<752 841>
AnchorPoint: "AboveMark" 62.292 740 mark 0
Fore
45 752 m 1
 51 781 l 2
 54 797 72 841 124 841 c 2
 206 841 l 1
 183 801 l 1
 115 801 l 2
 98 801 92 788 91 781 c 2
 85 752 l 1
 45 752 l 1
EndSplineSet
MultipleSubs2: "Multiple Substitution lookup 5" uni0E4D uni0E4C
Substitution2: "Single Substitution lookup 4" uni0E4C.low
EndChar
StartChar: uni0E4D
Encoding: 281 3661 297
Width: 0
VWidth: 1333
Flags: HW
HStem: 588 31<14.9 60.4> 680 31<27.9 73.4>
VStem: -18 123<630.614 667.943 649 649>
AnchorPoint: "AboveMark" 62.292 740 basemark 0
AnchorPoint: "AboveBase" 81.7324 568 mark 0
Fore
56 711 m 0
 90 711 112 683 105 649 c 0
 98 616 64 588 30 588 c 0
 -3 588 -25 616 -18 649 c 0
 -11 683 23 711 56 711 c 0
13 649 m 0
 9 632 20 619 37 619 c 0
 55 619 70 632 74 649 c 0
 78 667 68 680 50 680 c 0
 33 680 17 667 13 649 c 0
EndSplineSet
Substitution2: "Single Substitution lookup 3" uni0E4D.high
LCarets2: 1 0 
EndChar
StartChar: uni0E4E
Encoding: 282 3662 298
Width: 0
VWidth: 1333
Flags: HW
HStem: 652 32<-140.3 -67> 952 33<115.088 180.526> 956 33<29.8 178.876>
VStem: -186 371<723 985>
AnchorPoint: "AboveBase" 45.7324 568 mark 0
Fore
-48 703 m 1xb0
 -23 687 l 1
 -43 663 -76 652 -106 652 c 0
 -158 652 -195 680 -186 723 c 0
 -174 783 -120 816 -53 828 c 1
 -64 840 -70 856 -65 879 c 0
 -51 945 39 989 134 989 c 0xb0
 150 989 167 988 185 985 c 1
 173 952 l 1xd0
 156 955 140 956 126 956 c 0
 52 956 -22 925 -32 879 c 0
 -38 851 -6 837 24 833 c 2
 53 833 l 1
 14 800 l 1
 2 800 l 0
 -59 800 -140 784 -154 721 c 0
 -158 699 -131 684 -100 684 c 0
 -71 684 -53 696 -48 703 c 1xb0
EndSplineSet
EndChar
StartChar: uni0E4F
Encoding: 283 3663 299
Width: 655
VWidth: 1333
Flags: HW
HStem: -7 41<168 500> 499 41<266 599>
VStem: 111 547<242 291 267 267>
Fore
443 540 m 0
 593 540 690 417 658 267 c 0
 626 116 477 -7 327 -7 c 0
 176 -7 79 116 111 267 c 0
 143 417 292 540 443 540 c 0
151 267 m 0
 124 139 206 35 334 35 c 0
 462 35 588 139 615 267 c 0
 643 395 561 499 433 499 c 0
 305 499 179 395 151 267 c 0
245 267 m 0
 261 344 337 407 414 407 c 0
 492 407 541 344 525 267 c 0
 508 189 432 127 355 127 c 0
 278 127 228 189 245 267 c 0
EndSplineSet
EndChar
StartChar: uni0E50
Encoding: 284 3664 300
Width: 626
VWidth: 1333
Flags: HW
HStem: -7 40<161 480> 407 40<240 559>
VStem: 101 517<196 244 220 220>
Fore
408 447 m 0
 550 447 646 348 619 220 c 0
 592 92 453 -7 312 -7 c 0
 171 -7 74 92 101 220 c 0
 129 348 267 447 408 447 c 0
141 220 m 0
 120 119 198 33 320 33 c 0
 443 33 557 119 579 220 c 0
 600 321 522 407 400 407 c 0
 277 407 163 321 141 220 c 0
EndSplineSet
EndChar
StartChar: uni0E51
Encoding: 285 3665 301
Width: 626
VWidth: 1333
Flags: HW
HStem: -56 39<296 456> 43 40<160 328> 407 40<240 557>
VStem: 101 516<196 240 216 220>
Fore
296 -56 m 1
 306 -17 l 1
 422 -17 547 72 578 216 c 0
 601 324 521 407 400 407 c 0
 277 407 163 321 141 220 c 0
 124 137 183 83 260 83 c 0
 312 83 366 108 407 151 c 1
 434 127 l 1
 382 73 317 43 252 43 c 0
 154 43 79 113 101 220 c 0
 129 348 267 447 408 447 c 0
 548 447 646 349 618 216 c 0
 583 51 436 -56 296 -56 c 1
EndSplineSet
EndChar
StartChar: uni0E52
Encoding: 286 3666 302
Width: 626
VWidth: 1333
Flags: HW
HStem: 0 40<168 498> 107 40<241 309> 405 40<296 421 504 621>
VStem: 97 535<199 287>
Fore
396 227 m 1
 409 287 l 2
 421 341 419 405 362 405 c 0
 311 405 268 347 253 276 c 0
 239 207 257 147 308 147 c 1
 300 107 l 1
 227 107 193 180 213 276 c 0
 234 372 297 445 371 445 c 0
 409 445 437 427 449 387 c 1
 477 427 516 445 555 445 c 0
 617 445 655 395 632 287 c 2
 613 199 l 2
 590 91 491 0 389 0 c 2
 235 0 l 2
 133 0 74 91 97 199 c 2
 154 467 l 2
 165 520 162 541 148 548 c 1
 172 585 l 1
 216 565 201 501 194 468 c 2
 137 200 l 2
 118 111 168 40 244 40 c 2
 399 40 l 2
 475 40 554 111 573 200 c 2
 592 288 l 2
 603 343 604 407 546 407 c 0
 489 407 461 343 449 288 c 2
 436 227 l 1
 396 227 l 1
EndSplineSet
EndChar
StartChar: uni0E53
Encoding: 287 3667 303
Width: 626
VWidth: 1333
Flags: HW
HStem: -7 40<122 208> 407 40<205 357 460 606>
VStem: 104 513<220 288 220 288>
Fore
292 0 m 1
 353 288 l 2
 365 344 360 407 286 407 c 0
 224 407 165 324 143 220 c 0
 122 121 142 33 208 33 c 1
 200 -7 l 1
 99 -7 82 115 104 220 c 0
 126 323 194 447 296 447 c 0
 343 447 380 427 394 381 c 1
 428 427 474 447 520 447 c 0
 591 447 641 400 617 288 c 2
 556 0 l 1
 516 0 l 1
 577 288 l 2
 589 344 584 407 510 407 c 0
 437 407 405 344 393 288 c 2
 332 0 l 1
 292 0 l 1
EndSplineSet
EndChar
StartChar: uni0E54
Encoding: 288 3668 304
Width: 626
VWidth: 1333
Flags: HW
HStem: -7 40<131 343> 12 39<395 517> 207 40<371 450> 397 39<480 625> 408 39<219 476>
VStem: 84 643<227 572>
Fore
688 572 m 1x34
 726 572 l 1
 696 431 604 397 532 397 c 0x34
 492 397 451 408 378 408 c 0
 255 408 144 328 122 228 c 0
 101 129 168 33 289 33 c 0xac
 306 33 326 36 345 40 c 1
 314 69 302 108 310 145 c 0
 322 200 374 247 450 247 c 1
 442 207 l 1
 387 207 357 177 350 144 c 0
 343 112 358 71 410 48 c 1
 426 49 443 51 461 51 c 0
 505 51 549 44 585 25 c 1
 560 -11 l 1
 531 5 494 12 454 12 c 0x64
 379 12 338 -7 282 -7 c 0
 139 -7 58 105 84 227 c 0
 110 353 249 447 389 447 c 0xac
 464 447 509 436 541 436 c 0
 612 436 667 473 688 572 c 1x34
EndSplineSet
EndChar
StartChar: uni0E55
Encoding: 289 3669 305
Width: 626
VWidth: 1333
Flags: HW
HStem: -7 40<131 343> 12 39<395 517> 207 40<371 450> 397 39<472 625> 408 39<356 409> 524 37<387 453>
VStem: 84 643<227 572>
Fore
688 572 m 1xb6
 726 572 l 1
 696 431 604 397 532 397 c 0xb6
 496 397 449 408 378 408 c 0
 255 408 144 328 122 228 c 0
 101 129 168 33 289 33 c 0xae
 306 33 326 36 345 40 c 1
 314 69 302 108 310 145 c 0
 322 200 374 247 450 247 c 1
 442 207 l 1
 387 207 357 177 350 144 c 0
 343 112 358 71 410 48 c 1
 426 49 443 51 461 51 c 0
 505 51 549 44 585 25 c 1
 560 -11 l 1
 531 5 494 12 454 12 c 0x66
 379 12 338 -7 282 -7 c 0
 139 -7 58 105 84 227 c 0
 107 337 214 421 333 441 c 1
 327 455 326 469 329 483 c 0
 337 524 381 561 429 561 c 0
 475 561 506 528 497 484 c 0
 493 468 485 453 474 441 c 1
 502 439 523 436 541 436 c 0
 612 436 667 473 688 572 c 1xb6
368 485 m 0
 365 471 368 448 409 447 c 1x2e
 432 449 452 467 456 485 c 0
 460 505 445 524 420 524 c 0
 395 524 372 505 368 485 c 0
EndSplineSet
EndChar
StartChar: uni0E56
Encoding: 290 3670 306
Width: 626
VWidth: 1333
Flags: HW
HStem: -7 40<133 457> 209 37<164 248> 409 37<313 537>
VStem: 62 534<220 543>
Fore
248 247 m 1
 240 209 l 1
 182 209 149 176 143 144 c 0
 133 99 171 33 298 33 c 0
 420 33 535 119 556 220 c 0
 578 321 500 409 378 409 c 0
 311 409 223 384 179 352 c 2
 142 325 l 1
 148 365 l 2
 159 443 105 532 62 543 c 1
 80 581 l 1
 139 567 188 479 192 400 c 1
 250 431 330 447 386 447 c 0
 527 447 623 348 596 220 c 0
 569 92 431 -7 289 -7 c 0
 149 -7 87 69 103 144 c 0
 115 200 170 247 248 247 c 1
EndSplineSet
EndChar
StartChar: uni0E57
Encoding: 291 3671 307
Width: 626
VWidth: 1333
Flags: HW
HStem: 1 40<92 162 368 436> 407 41<170 314 405 514>
Fore
282 175 m 1
 311 307 l 2
 321 357 309 407 248 407 c 0
 188 407 130 325 109 224 c 0
 87 123 110 41 170 41 c 1
 162 1 l 1
 78 1 42 97 69 225 c 0
 96 353 173 448 257 448 c 0
 301 448 334 429 348 388 c 1
 377 429 417 448 457 448 c 0
 533 448 563 355 536 225 c 0
 520 149 489 85 451 45 c 1
 531 60 581 112 605 225 c 2
 657 468 l 2
 664 501 677 565 731 585 c 1
 738 548 l 1
 717 540 706 511 697 468 c 2
 645 225 l 2
 610 59 515 1 391 0 c 2
 347 0 l 1
 368 40 l 1
 420 40 473 123 494 224 c 0
 516 325 498 407 446 407 c 0
 393 407 361 357 351 308 c 2
 322 175 l 1
 282 175 l 1
EndSplineSet
EndChar
StartChar: uni0E58
Encoding: 292 3672 308
Width: 626
VWidth: 1333
Flags: HW
HStem: -7 40<379 518> 396 40<480 626> 407 40<219 476>
VStem: 83 644<227 572>
Fore
564 127 m 1xb0
 606 127 l 1
 586 36 519 -7 436 -7 c 0
 381 -7 335 32 314 93 c 1
 256 -8 l 1
 72 0 66 145 83 227 c 0
 110 353 248 447 388 447 c 0xb0
 463 447 509 436 541 436 c 0
 611 436 666 473 687 572 c 1
 727 572 l 1
 697 431 604 396 532 396 c 0xd0
 492 396 452 407 378 407 c 0
 256 407 144 327 123 227 c 0
 103 133 136 45 241 35 c 1
 309 148 l 1
 346 148 l 1
 353 80 394 33 443 33 c 0
 500 33 549 56 564 127 c 1xb0
EndSplineSet
EndChar
StartChar: uni0E59
Encoding: 293 3673 309
Width: 626
VWidth: 1333
Flags: HW
HStem: -7 40<143 296> 411 40<226 401 521 603>
VStem: 460 41<-1 210> 681 41<518 607>
Fore
343 131 m 1
 386 131 l 1
 368 45 309 -7 214 -7 c 0
 129 -7 62 96 90 227 c 0
 118 356 230 451 328 451 c 0
 384 451 428 429 457 380 c 1
 483 417 516 449 561 449 c 0
 595 449 611 433 622 415 c 1
 645 448 661 487 671 532 c 0
 676 553 679 575 681 597 c 1
 722 603 l 1
 720 579 716 555 711 532 c 0
 695 459 663 395 607 341 c 1
 600 368 592 409 554 409 c 0
 529 409 507 392 477 339 c 1
 503 268 512 160 502 4 c 1
 460 -1 l 1
 483 337 411 411 320 411 c 0
 248 411 154 337 130 227 c 0
 106 111 161 33 221 33 c 0
 278 33 328 60 343 131 c 1
EndSplineSet
EndChar
StartChar: uni0E5A
Encoding: 294 3674 310
Width: 601
VWidth: 1333
Flags: HW
HStem: 0 28G<391 429 487 527> 343 40<222 378> 500 40<217 293>
VStem: 147 493<435 533>
Fore
487 0 m 1
 600 533 l 1
 640 533 l 1
 527 0 l 1
 487 0 l 1
391 0 m 1
 488 459 l 1
 439 409 349 343 253 343 c 0
 194 343 134 375 147 435 c 0
 159 491 227 540 293 540 c 1
 285 500 l 1
 233 500 192 463 186 435 c 0
 177 393 237 383 260 383 c 0
 375 383 488 504 503 533 c 1
 543 533 l 1
 429 0 l 1
 391 0 l 1
EndSplineSet
EndChar
StartChar: uni0E5B
Encoding: 295 3675 311
Width: 1189
VWidth: 1333
Flags: HW
HStem: -7 40<165 383> 171 40<269 342> 240 27<1111 1195> 261 40<999 1093> 323 40<296 348> 500 40<224 409>
Fore
330 363 m 0xec
 361 363 381 344 389 319 c 1
 392 328 394 337 396 347 c 0
 414 431 390 500 326 500 c 0
 248 500 162 392 134 261 c 0
 100 101 184 33 250 33 c 0
 352 33 461 100 526 407 c 2
 534 444 l 2
 540 471 573 475 574 451 c 2
 590 191 l 1
 679 403 l 2
 690 428 719 428 719 401 c 2
 730 223 l 1
 796 365 l 2
 810 392 831 392 834 367 c 2
 851 244 l 1
 895 332 l 2
 909 364 920 364 932 337 c 2
 957 281 l 1
 995 296 1024 301 1049 301 c 0xdc
 1100 301 1125 267 1169 267 c 0
 1197 267 1221 276 1232 276 c 0
 1236 276 1238 275 1238 271 c 0
 1235 259 1187 240 1163 240 c 0xec
 1115 240 1081 261 1041 261 c 0
 1018 261 992 256 950 237 c 1
 940 231 929 236 925 245 c 2
 910 279 l 1
 857 172 l 2
 845 148 822 148 819 171 c 2
 803 289 l 1
 732 137 l 2
 721 112 694 109 694 136 c 2
 685 311 l 1
 596 100 l 2
 583 71 559 72 557 100 c 2
 544 309 l 1
 492 133 404 -7 244 -7 c 0
 152 -7 59 84 97 261 c 0xdc
 129 412 228 540 335 540 c 0
 423 540 464 459 439 343 c 0
 418 240 358 171 290 171 c 0
 242 171 218 216 229 267 c 0
 239 317 282 363 330 363 c 0xec
267 267 m 0xec
 261 236 275 211 295 211 c 0
 331 211 349 248 353 267 c 0
 360 300 342 323 322 323 c 0
 302 323 274 300 267 267 c 0xec
EndSplineSet
EndChar
StartChar: Euro
Encoding: 313 8364 313
Width: 519
VWidth: 1333
Flags: HW
HStem: -7 40<216 405> 233 40<89 127 166 496> 393 40<123 153 208 530> 635 39<344 532>
Fore
620 620 m 1
 587 587 l 1
 558 616 519 635 474 635 c 0
 374 635 267 552 208 433 c 1
 552 433 l 1
 530 393 l 1
 192 393 l 1
 184 374 178 354 174 333 c 0
 170 313 167 293 166 273 c 1
 518 273 l 1
 496 233 l 1
 166 233 l 1
 174 115 246 33 346 33 c 0
 391 33 437 48 479 77 c 1
 498 47 l 1
 448 13 393 -7 339 -7 c 0
 213 -7 132 96 127 233 c 1
 67 233 l 1
 89 273 l 1
 127 273 l 1
 129 293 132 313 136 333 c 0
 141 354 146 374 153 393 c 1
 101 393 l 1
 123 433 l 1
 169 433 l 1
 233 571 358 673 483 673 c 0
 538 673 584 653 620 620 c 1
EndSplineSet
EndChar
StartChar: uni25CC
Encoding: 315 9676 314
Width: 621
VWidth: 1333
Flags: HW
HStem: 51 85<151 193 457 500> 197 85<128 171 552 595> 331 85<210 253 517 559>
VStem: 107 509<216 264 240 240>
Fore
488 136 m 0
 511 136 526 117 521 93 c 0
 516 70 493 51 469 51 c 0
 446 51 431 70 436 93 c 0
 441 117 464 136 488 136 c 0
181 136 m 0
 204 136 219 117 214 93 c 0
 210 70 186 51 163 51 c 0
 139 51 124 70 129 93 c 0
 134 117 158 136 181 136 c 0
547 416 m 0
 570 416 586 397 581 373 c 0
 576 350 552 331 529 331 c 0
 506 331 490 350 495 373 c 0
 500 397 524 416 547 416 c 0
327 69 m 0
 350 69 365 50 360 27 c 0
 355 3 332 -16 309 -16 c 0
 285 -16 270 3 275 27 c 0
 280 50 303 69 327 69 c 0
240 416 m 0
 264 416 279 397 274 373 c 0
 269 350 246 331 222 331 c 0
 199 331 184 350 189 373 c 0
 194 397 217 416 240 416 c 0
159 283 m 0
 182 283 197 263 192 240 c 0
 187 217 164 197 141 197 c 0
 117 197 102 217 107 240 c 0
 112 263 135 283 159 283 c 0
417 496 m 0
 441 496 456 477 451 453 c 0
 446 430 423 411 399 411 c 0
 376 411 361 430 366 453 c 0
 371 477 394 496 417 496 c 0
583 283 m 0
 606 283 621 263 616 240 c 0
 611 217 588 197 565 197 c 0
 541 197 526 217 531 240 c 0
 536 263 559 283 583 283 c 0
EndSplineSet
EndChar
StartChar: uni0E10.descless
Encoding: 316 63232 315
Width: 522
VWidth: 1333
Flags: HW
HStem: 0 28G<408 448> 247 40<324 460> 500 40<241 421>
VStem: 123 423<341 501>
Fore
469 287 m 1
 481 341 l 2
 499 429 444 500 356 500 c 0
 268 500 182 429 163 341 c 1
 123 341 l 1
 146 451 255 540 364 540 c 0
 408 540 445 525 473 501 c 1
 531 535 l 1
 547 501 l 1
 498 473 l 1
 523 439 531 392 521 341 c 2
 448 0 l 1
 408 0 l 1
 460 247 l 1
 302 247 l 1
 324 287 l 1
 469 287 l 1
EndSplineSet
EndChar
StartChar: uni0E34.left
Encoding: 317 63233 316
Width: 0
VWidth: 1333
Flags: HW
HStem: 603 40<-382 -33>
VStem: -417 392<603 643>
Fore
-25 643 m 1
 -33 603 l 1
 -417 603 l 1
 -382 643 l 1
 -25 643 l 1
EndSplineSet
EndChar
StartChar: uni0E35.left
Encoding: 318 63234 317
Width: 0
VWidth: 1333
Flags: HW
HStem: 603 40<-382 -65>
VStem: -417 404<603 695>
Fore
-65 643 m 5
 -54 695 l 5
 -14 695 l 5
 -33 603 l 5
 -417 603 l 5
 -382 643 l 5
 -65 643 l 5
EndSplineSet
EndChar
StartChar: uni0E36.left
Encoding: 319 63235 318
Width: 0
VWidth: 1333
Flags: HW
HStem: 603 40<-382 -111> 603 31<-79 -34> 695 31<-66 -20>
VStem: -417 429<603 664>
Fore
-36 725 m 0xb0
 -3 725 19 697 12 664 c 0
 5 631 -29 603 -63 603 c 2
 -417 603 l 1x70
 -382 643 l 1
 -111 643 l 1
 -113 649 -113 656 -111 664 c 0
 -104 697 -70 725 -36 725 c 0xb0
-80 664 m 0
 -84 647 -73 633 -56 633 c 0
 -39 633 -23 647 -19 664 c 0
 -15 681 -26 695 -43 695 c 0
 -60 695 -77 681 -80 664 c 0
EndSplineSet
EndChar
StartChar: uni0E37.left
Encoding: 320 63236 319
Width: 0
VWidth: 1333
Flags: HW
HStem: 603 40<-382 -151 -113 -65> 603 92<-140 -113 -54 -33>
VStem: -417 404<603 695>
Fore
-140 695 m 1x60
 -102 695 l 1x60
 -113 643 l 1
 -65 643 l 1xa0
 -54 695 l 1
 -14 695 l 1
 -33 603 l 1
 -417 603 l 1x60
 -382 643 l 1
 -151 643 l 1xa0
 -140 695 l 1x60
EndSplineSet
EndChar
StartChar: uni0E48.low_left
Encoding: 321 63237 320
Width: 0
VWidth: 1333
Flags: HW
VStem: -113 63<603 712>
Fore
-73 603 m 5
 -113 603 l 5
 -90 712 l 5
 -50 712 l 5
 -73 603 l 5
EndSplineSet
EndChar
StartChar: uni0E49.low_left
Encoding: 322 63238 321
Width: 0
VWidth: 1333
Flags: HW
HStem: 603 40<-197 -49> 671 40<-264 -227>
VStem: -285 258<643 671>
Fore
-245 603 m 1
 -235 651 l 2
 -233 659 -232 671 -251 671 c 2
 -285 671 l 1
 -264 711 l 1
 -242 711 l 2
 -186 711 -192 663 -195 651 c 2
 -197 643 l 1
 -27 643 l 1
 -49 603 l 1
 -245 603 l 1
EndSplineSet
EndChar
StartChar: uni0E4A.low_left
Encoding: 323 63239 322
Width: 0
VWidth: 1333
Flags: HW
HStem: 603 40<-362 -339 -110 -1> 700 40<-356 -245>
VStem: -402 422<643 669>
Fore
-92 728 m 1
 -110 643 l 1
 21 643 l 1
 -1 603 l 1
 -159 603 l 1
 -141 687 l 1
 -261 609 l 1
 -260 641 l 2
 -260 655 -259 700 -307 700 c 0
 -345 700 -358 681 -360 669 c 0
 -363 656 -357 643 -339 643 c 2
 -330 643 l 1
 -339 603 l 1
 -348 603 l 2
 -389 603 -409 636 -402 669 c 0
 -394 705 -357 740 -300 740 c 0
 -255 740 -230 713 -223 677 c 1
 -143 728 l 1
 -92 728 l 1
EndSplineSet
EndChar
StartChar: uni0E4B.low_left
Encoding: 324 63240 323
Width: 0
VWidth: 1333
Flags: HW
HStem: 644 37<-135 -104 -56 -26>
VStem: -143 126<644 683>
Fore
-143 644 m 1
 -135 681 l 1
 -97 681 l 1
 -88 723 l 1
 -48 723 l 1
 -56 683 l 1
 -18 683 l 1
 -26 643 l 1
 -65 643 l 1
 -73 603 l 1
 -113 603 l 1
 -104 644 l 1
 -143 644 l 1
EndSplineSet
EndChar
StartChar: uni0E4C.low_left
Encoding: 325 63241 324
Width: 0
VWidth: 1333
Flags: HW
HStem: 652 40<-111 -17>
VStem: -156 160<603 692>
Fore
-156 603 m 1
 -150 632 l 2
 -146 648 -129 692 -77 692 c 2
 4 692 l 1
 -17 652 l 1
 -85 652 l 2
 -105 652 -108 639 -110 632 c 2
 -116 603 l 1
 -156 603 l 1
EndSplineSet
EndChar
StartChar: uni0E48.low
Encoding: 326 63242 325
Width: 0
VWidth: 1333
Flags: HW
VStem: 13 63<603 712>
AnchorPoint: "AboveBase" 45.7324 568 mark 0
Fore
53 603 m 1
 13 603 l 1
 36 712 l 1
 76 712 l 1
 53 603 l 1
EndSplineSet
EndChar
StartChar: uni0E49.low
Encoding: 327 63243 326
Width: 0
VWidth: 1333
Flags: HW
HStem: 603 40<-34 140> 671 40<-101 -63.3>
VStem: -122 284<643 671>
AnchorPoint: "AboveBase" 110.732 568 mark 0
Fore
-83 603 m 1
 -73 651 l 2
 -71 657 -69 671 -88 671 c 2
 -122 671 l 1
 -101 711 l 1
 -80 711 l 2
 -28 711 -28 671 -33 651 c 2
 -34 643 l 1
 162 643 l 1
 140 603 l 1
 -83 603 l 1
EndSplineSet
EndChar
StartChar: uni0E4A.low
Encoding: 328 63244 327
Width: 0
VWidth: 1333
Flags: HW
HStem: 604 40<-109.1 -87 141 249> 701 40<-103.1 7.4>
VStem: -149 421<643 671>
AnchorPoint: "AboveBase" 210.732 568 mark 0
Fore
93 603 m 1
 111 688 l 1
 -9 611 l 1
 -7 643 l 2
 -8 656 -7 701 -55 701 c 0
 -92 701 -106 683 -108 671 c 0
 -111 657 -104 644 -87 644 c 2
 -78 644 l 1
 -87 604 l 1
 -96 604 l 2
 -137 604 -157 637 -149 671 c 0
 -142 707 -105 741 -47 741 c 0
 -2 741 23 715 29 679 c 1
 110 729 l 1
 159 729 l 1
 141 643 l 1
 272 643 l 1
 249 603 l 1
 93 603 l 1
EndSplineSet
EndChar
StartChar: uni0E4B.low
Encoding: 329 63245 328
Width: 0
VWidth: 1333
Flags: HW
HStem: 644 37<-8 22 70 101>
VStem: -16 125<644 683>
AnchorPoint: "AboveBase" 65.7324 568 mark 0
Fore
-16 644 m 1
 -8 681 l 1
 30 681 l 1
 39 723 l 1
 79 723 l 1
 70 683 l 1
 109 683 l 1
 101 643 l 1
 62 643 l 1
 53 603 l 1
 13 603 l 1
 22 644 l 1
 -16 644 l 1
EndSplineSet
EndChar
StartChar: uni0E4C.low
Encoding: 330 63246 329
Width: 0
VWidth: 1333
Flags: HW
HStem: 652 40<4 72>
VStem: -67 161<603 692>
AnchorPoint: "AboveBase" 45.7324 568 mark 0
Fore
-67 603 m 1
 -61 632 l 2
 -56 652 -40 692 12 692 c 2
 94 692 l 1
 72 652 l 1
 4 652 l 2
 -13 652 -19 639 -21 632 c 2
 -27 603 l 1
 -67 603 l 1
EndSplineSet
LCarets2: 2 0 0 
EndChar
StartChar: uni0E0D.descless
Encoding: 331 63247 330
Width: 846
VWidth: 1333
Flags: HW
HStem: -7 40<500 698> 0 40<123 155> 500 40<283 465>
Fore
75 0 m 1x60
 127 247 l 2
 135 285 168 320 197 339 c 1
 137 376 l 1
 193 500 303 540 369 540 c 0
 479 540 549 451 526 341 c 2
 494 191 l 2
 475 101 523 33 599 33 c 0
 675 33 754 101 773 191 c 2
 845 533 l 1
 885 533 l 1
 813 191 l 2
 790 83 692 -7 591 -7 c 0xa0
 489 -7 431 83 454 191 c 2
 486 340 l 2
 507 440 441 500 361 500 c 0
 297 500 220 464 179 384 c 1
 245 341 l 1
 203 323 179 301 167 248 c 2
 123 40 l 1
 176 40 l 1
 155 0 l 1
 75 0 l 1x60
EndSplineSet
EndChar
StartChar: uni0E31.left
Encoding: 332 63248 331
Width: 0
VWidth: 1333
Flags: HW
HStem: 603 40<-187 136>
VStem: -236 407<603 643>
Fore
-187 643 m 1
 171 643 l 1
 136 603 l 1
 -236 603 l 1
 -216 695 l 1
 -176 695 l 1
 -187 643 l 1
EndSplineSet
EndChar
StartChar: uni0E4D.left
Encoding: 333 63249 332
Width: 0
VWidth: 1333
Flags: HW
HStem: 588 31<-107 -62> 680 31<-94 -49>
VStem: -139 123<625 674 649 649>
Fore
-65 711 m 0
 -32 711 -10 683 -17 649 c 0
 -24 616 -58 588 -91 588 c 0
 -124 588 -146 616 -139 649 c 0
 -132 683 -98 711 -65 711 c 0
-109 649 m 0
 -112 632 -102 619 -84 619 c 0
 -67 619 -51 632 -47 649 c 0
 -44 667 -54 680 -71 680 c 0
 -89 680 -105 667 -109 649 c 0
EndSplineSet
EndChar
StartChar: uni0E47.left
Encoding: 334 63250 333
Width: 0
VWidth: 1333
Flags: HW
HStem: 593 40<-125 -52> 603 40<-332 -289> 725 40<-304 8>
VStem: -373 403<684 765>
Fore
8 725 m 1x70
 -266 725 l 2
 -304 725 -331 701 -335 683 c 0
 -339 665 -322 644 -289 643 c 1x70
 -205 689 l 1
 -126 641 l 2
 -115 636 -102 634 -89 634 c 0xb0
 -76 634 -63 636 -49 640 c 1
 -43 603 l 1x70
 -61 597 -80 593 -98 593 c 0xb0
 -117 593 -135 597 -150 605 c 2
 -212 644 l 1
 -285 603 l 1
 -291 603 l 2
 -340 603 -384 635 -373 684 c 0
 -363 733 -305 765 -256 765 c 2
 29 765 l 1
 8 725 l 1x70
EndSplineSet
EndChar
StartChar: uni0E48.left
Encoding: 335 63251 334
Width: 0
VWidth: 1333
Flags: HW
VStem: -41 63<752 861>
Fore
-1 752 m 5
 -41 752 l 5
 -18 861 l 5
 22 861 l 5
 -1 752 l 5
EndSplineSet
EndChar
StartChar: uni0E49.left
Encoding: 336 63252 335
Width: 0
VWidth: 1333
Flags: HW
HStem: 752 40<-78 69> 820 40<-145 -108>
VStem: -167 258<792 820>
Fore
-127 752 m 1
 -117 800 l 2
 -115 807 -114 820 -132 820 c 2
 -167 820 l 1
 -145 860 l 1
 -124 860 l 2
 -71 860 -73 819 -77 800 c 2
 -78 792 l 1
 91 792 l 1
 69 752 l 1
 -127 752 l 1
EndSplineSet
EndChar
StartChar: uni0E4A.left
Encoding: 337 63253 336
Width: 0
VWidth: 1333
Flags: HW
HStem: 753 40<-122 -99 128 237> 851 40<-116 -5>
VStem: -162 421<792 820>
Fore
81 752 m 1
 99 837 l 1
 -21 760 l 1
 -20 792 l 2
 -19 805 -19 851 -67 851 c 0
 -105 851 -118 832 -120 820 c 0
 -123 807 -117 793 -99 793 c 2
 -90 793 l 1
 -99 753 l 1
 -108 753 l 2
 -149 753 -169 787 -162 820 c 0
 -154 856 -117 891 -60 891 c 0
 -15 891 10 864 17 828 c 1
 97 879 l 1
 147 879 l 1
 128 792 l 1
 259 792 l 1
 237 752 l 1
 81 752 l 1
EndSplineSet
EndChar
StartChar: uni0E4B.left
Encoding: 338 63254 337
Width: 0
VWidth: 1333
Flags: HW
HStem: 793 37<-63 -33 16 46>
VStem: -71 126<793 832>
Fore
-71 793 m 5
 -63 831 l 5
 -25 831 l 5
 -16 872 l 5
 24 872 l 5
 16 832 l 5
 54 832 l 5
 46 792 l 5
 7 792 l 5
 -1 752 l 5
 -41 752 l 5
 -33 793 l 5
 -71 793 l 5
EndSplineSet
EndChar
StartChar: uni0E4C.left
Encoding: 339 63255 338
Width: 0
VWidth: 1333
Flags: HW
HStem: 801 40<29 97>
VStem: -41 160<752 841>
Fore
-41 752 m 1
 -35 781 l 2
 -32 797 -12 841 37 841 c 2
 119 841 l 1
 97 801 l 1
 29 801 l 2
 12 801 6 788 5 781 c 2
 -1 752 l 1
 -41 752 l 1
EndSplineSet
EndChar
StartChar: uni0E38.low
Encoding: 340 63256 339
Width: 0
VWidth: 1333
Flags: HW
HStem: -256 40<-209 -169>
VStem: -230 110<-256 -216>
Fore
-209 -216 m 5
 -121 -216 l 5
 -155 -379 l 5
 -195 -379 l 5
 -169 -256 l 5
 -230 -256 l 5
 -209 -216 l 5
EndSplineSet
EndChar
StartChar: uni0E39.low
Encoding: 341 63257 340
Width: 0
VWidth: 1333
Flags: HW
HStem: -379 40<-299 -205>
VStem: -376 255<-256 -216>
Fore
-354 -216 m 5
 -291 -216 l 5
 -303 -273 l 6
 -311 -309 -288 -339 -252 -339 c 4
 -216 -339 -180 -309 -173 -273 c 6
 -161 -216 l 5
 -121 -216 l 5
 -133 -273 l 6
 -145 -332 -202 -379 -260 -379 c 4
 -319 -379 -356 -332 -343 -273 c 6
 -340 -256 l 5
 -376 -256 l 5
 -354 -216 l 5
EndSplineSet
EndChar
StartChar: uni0E3A.low
Encoding: 342 63258 341
Width: 0
VWidth: 1333
Flags: HW
HStem: -285 67<-165 -131>
VStem: -182 67<-276 -228 -252 -252>
Fore
-182 -252 m 0
 -178 -233 -160 -219 -141 -219 c 0
 -122 -219 -111 -233 -115 -252 c 0
 -119 -271 -137 -285 -155 -285 c 0
 -174 -285 -186 -271 -182 -252 c 0
EndSplineSet
EndChar
StartChar: uniF780
Encoding: 343 63360 342
Width: 394
VWidth: 1333
Flags: HW
HStem: 0 28G<280 320> 500 40<229 391> 588 31<-94 -49> 680 31<-81 -36>
VStem: -126 519<341 649>
Fore
280 0 m 1
 353 341 l 2
 368 415 362 500 268 500 c 0
 234 500 191 480 150 451 c 1
 160 496 l 1
 199 523 240 540 276 540 c 0
 388 540 415 449 393 341 c 2
 320 0 l 1
 280 0 l 1
-52 711 m 0
 -18 711 4 683 -3 649 c 0
 -10 616 -44 588 -78 588 c 0
 -111 588 -133 616 -126 649 c 0
 -119 683 -85 711 -52 711 c 0
-95 649 m 0
 -99 632 -88 619 -71 619 c 0
 -54 619 -38 632 -34 649 c 0
 -30 667 -41 680 -58 680 c 0
 -75 680 -92 667 -95 649 c 0
EndSplineSet
EndChar
StartChar: uniF781
Encoding: 344 63361 343
Width: 0
VWidth: 1333
Flags: HW
HStem: 652 32<-220 -145> 952 33<35 101> 956 33<-49 106>
VStem: -266 372<723 985>
Fore
-128 703 m 1xb0
 -103 687 l 1
 -123 663 -156 652 -187 652 c 0
 -239 652 -275 680 -266 723 c 0
 -254 783 -200 816 -133 828 c 1
 -144 840 -150 856 -145 879 c 0
 -131 945 -40 989 54 989 c 0xb0
 70 989 87 988 105 985 c 1
 93 952 l 1xd0
 76 955 61 956 46 956 c 0
 -27 956 -102 925 -112 879 c 0
 -118 851 -86 837 -56 833 c 2
 -27 833 l 1
 -66 800 l 1
 -78 800 l 0
 -139 800 -220 784 -233 721 c 0
 -238 699 -211 684 -180 684 c 0
 -151 684 -133 696 -128 703 c 1xb0
EndSplineSet
EndChar
StartChar: uniF782
Encoding: 345 63362 344
Width: 590
VWidth: 1333
Flags: HW
HStem: -7 43<108 245 341 489> 400 40<450 559>
VStem: 96 542<152 533>
Fore
308 152 m 2
 370 440 l 1
 408 440 l 1
 348 155 l 2
 336 99 340 36 408 36 c 0
 476 36 506 99 518 155 c 2
 552 313 l 2
 562 361 545 400 497 400 c 2
 441 400 l 1
 450 440 l 1
 506 440 l 2
 554 440 587 479 597 527 c 2
 599 533 l 1
 639 533 l 1
 637 527 l 2
 628 481 596 441 557 419 c 1
 587 396 601 356 591 311 c 2
 558 152 l 2
 534 41 468 -7 399 -7 c 0
 355 -7 323 27 310 71 c 1
 278 27 232 -7 188 -7 c 0
 119 -7 73 41 96 152 c 2
 177 533 l 1
 217 533 l 1
 136 152 l 2
 124 96 128 33 196 33 c 0
 270 33 299 109 308 152 c 2
EndSplineSet
EndChar
StartChar: uniF783
Encoding: 346 63363 345
Width: 809
VWidth: 1333
Flags: HW
HStem: 0 40<123 155> 500 40<283 465>
VStem: 75 451<0 341>
Fore
179 384 m 1
 245 341 l 1
 203 323 178 300 167 247 c 2
 123 40 l 1
 176 40 l 1
 155 0 l 1
 75 0 l 1
 127 247 l 2
 135 285 169 320 199 339 c 1
 137 376 l 1
 193 500 303 540 369 540 c 0
 479 540 549 451 526 341 c 2
 410 -203 l 1
 370 -203 l 1
 486 341 l 2
 507 441 441 500 361 500 c 0
 297 500 220 464 179 384 c 1
652 -203 m 1
 767 341 l 2
 783 415 777 500 682 500 c 0
 649 500 606 480 565 451 c 1
 575 496 l 1
 614 523 655 540 691 540 c 0
 803 540 830 449 807 341 c 2
 692 -203 l 1
 652 -203 l 1
EndSplineSet
LCarets2: 1 0 
EndChar
StartChar: uniF784
Encoding: 347 63364 346
Width: 809
VWidth: 1333
Flags: HW
HStem: 0 40<50 83> 500 40<283 465>
VStem: 28 498<0 341>
Fore
179 384 m 1
 245 341 l 1
 203 323 178 300 167 247 c 2
 115 0 l 1
 28 0 l 1
 50 40 l 1
 83 40 l 1
 127 247 l 2
 135 285 169 320 199 339 c 1
 137 376 l 1
 193 500 303 540 369 540 c 0
 479 540 549 451 526 341 c 2
 410 -203 l 1
 370 -203 l 1
 486 341 l 2
 507 441 441 500 361 500 c 0
 297 500 220 464 179 384 c 1
652 -203 m 1
 767 341 l 2
 783 415 777 500 682 500 c 0
 649 500 606 480 565 451 c 1
 575 496 l 1
 614 523 655 540 691 540 c 0
 803 540 830 449 807 341 c 2
 692 -203 l 1
 652 -203 l 1
EndSplineSet
LCarets2: 1 0 
EndChar
StartChar: uniFB00
Encoding: 348 64256 347
Width: 491
VWidth: 1333
Flags: HW
HStem: 0 28G<64 104 313 353> 413 40<120 152 200 401 447 553> 613 27<272 421> 640 27<545 618>
VStem: 64 554<0 667>
Fore
364 640 m 0
 420 640 451 617 467 591 c 1
 506 636 562 667 618 667 c 1
 612 640 l 1
 544 640 471 565 454 487 c 2
 447 453 l 1
 572 453 l 1
 553 413 l 1
 441 413 l 1
 353 0 l 1
 313 0 l 1
 401 413 l 1
 192 413 l 1
 104 0 l 1
 64 0 l 1
 152 413 l 1
 112 413 l 1
 120 453 l 1
 160 453 l 1
 162 460 l 2
 183 560 271 640 364 640 c 0
200 453 m 1
 408 453 l 1
 415 487 l 2
 422 519 437 549 456 576 c 1
 440 601 410 613 376 613 c 0
 296 613 220 547 202 460 c 2
 200 453 l 1
EndSplineSet
Ligature2: "'liga' Standard Ligatures in Latin lookup 0" f f
EndChar
StartChar: uniFB01
Encoding: 349 64257 348
Width: 413
VWidth: 1333
Flags: HW
HStem: 0 28G<64 104 313 352> 413 40<120 152 200 401> 640 27<277 433>
VStem: 64 421<0 564>
Fore
200 453 m 1
 448 453 l 1
 352 0 l 1
 313 0 l 1
 401 413 l 1
 192 413 l 1
 104 0 l 1
 64 0 l 1
 152 413 l 1
 112 413 l 1
 120 453 l 1
 160 453 l 1
 167 487 l 2
 189 587 276 667 370 667 c 0
 464 667 492 607 485 564 c 2
 484 560 l 2
 481 543 463 528 446 528 c 0
 428 528 417 543 420 560 c 0
 424 577 442 592 459 592 c 0
 462 592 466 592 468 591 c 1
 455 624 421 640 381 640 c 0
 301 640 226 573 207 487 c 2
 200 453 l 1
EndSplineSet
Ligature2: "'liga' Standard Ligatures in Latin lookup 0" f i
EndChar
StartChar: uniFB02
Encoding: 350 64258 349
Width: 415
VWidth: 1333
Flags: HW
HStem: 0 28G<64 104 313 352> 413 40<120 152 200 304> 640 27<365 449>
VStem: 64 430<0 667>
Fore
352 0 m 1
 313 0 l 1
 449 640 l 1
 365 640 l 2
 297 640 224 565 207 487 c 2
 200 453 l 1
 326 453 l 1
 304 413 l 1
 192 413 l 1
 104 0 l 1
 64 0 l 1
 152 413 l 1
 112 413 l 1
 120 453 l 1
 160 453 l 1
 167 487 l 2
 188 585 278 667 370 667 c 2
 494 667 l 1
 352 0 l 1
EndSplineSet
Ligature2: "'liga' Standard Ligatures in Latin lookup 0" f l
EndChar
StartChar: uniFB03
Encoding: 351 64259 350
Width: 662
VWidth: 1333
Flags: HW
HStem: 0 28G<64 104 313 353 563 601> 413 40<120 152 200 401 450 651> 613 27<272 421> 640 27<544 683>
Fore
450 453 m 1
 698 453 l 1
 601 0 l 1
 563 0 l 1
 651 413 l 1
 441 413 l 1
 353 0 l 1
 313 0 l 1
 401 413 l 1
 192 413 l 1
 104 0 l 1
 64 0 l 1
 152 413 l 1
 112 413 l 1
 120 453 l 1
 160 453 l 1
 162 460 l 2
 183 560 271 640 364 640 c 0
 420 640 453 617 468 591 c 1
 507 636 562 667 619 667 c 0
 714 667 741 607 735 564 c 2
 734 560 l 2
 730 543 712 528 695 528 c 0
 678 528 666 543 670 560 c 0
 673 577 691 592 708 592 c 0
 711 592 715 592 718 591 c 1
 705 624 671 640 631 640 c 0
 551 640 475 573 457 487 c 2
 450 453 l 1
202 460 m 2
 200 453 l 1
 410 453 l 1
 417 487 l 2
 424 519 437 551 456 576 c 1
 440 601 410 613 376 613 c 0
 296 613 220 547 202 460 c 2
EndSplineSet
Ligature2: "'liga' Standard Ligatures in Latin lookup 0" f f i
EndChar
StartChar: uniFB04
Encoding: 352 64260 351
Width: 665
VWidth: 1333
Flags: HW
HStem: 0 28G<64 104 313 353 563 601> 413 40<120 152 200 401 450 553> 613 27<272 421> 640 27<544 699>
Fore
575 453 m 1
 553 413 l 1
 441 413 l 1
 353 0 l 1
 313 0 l 1
 401 413 l 1
 192 413 l 1
 104 0 l 1
 64 0 l 1
 152 413 l 1
 112 413 l 1
 120 453 l 1
 160 453 l 1
 162 460 l 2
 183 560 271 640 364 640 c 0
 420 640 453 617 468 591 c 1
 507 636 562 667 619 667 c 2
 743 667 l 1
 601 0 l 1
 563 0 l 1
 699 640 l 1
 631 640 l 2
 551 640 475 573 457 487 c 2
 450 453 l 1
 575 453 l 1
202 460 m 2
 200 453 l 1
 410 453 l 1
 417 487 l 2
 424 519 437 551 456 576 c 1
 440 601 410 613 376 613 c 0
 296 613 220 547 202 460 c 2
EndSplineSet
Ligature2: "'liga' Standard Ligatures in Latin lookup 0" f f l
EndChar
